ISO-10303-21;
HEADER;
/* Generated by software containing ST-Developer
 * from STEP Tools, Inc. (www.steptools.com) 
 */

FILE_DESCRIPTION(
/* description */ (''),
/* implementation_level */ '2;1');

FILE_NAME(
/* name */ 'Motorholder1.step',
/* time_stamp */ '2026-06-26T09:45:07-04:00',
/* author */ (''),
/* organization */ (''),
/* preprocessor_version */ 'ST-DEVELOPER v20.1',
/* originating_system */ 'Autodesk Translation Framework v15.8.0.0',
/* authorisation */ '');

FILE_SCHEMA (('AUTOMOTIVE_DESIGN { 1 0 10303 214 3 1 1 }'));
ENDSEC;

DATA;
#10=MECHANICAL_DESIGN_GEOMETRIC_PRESENTATION_REPRESENTATION('',(#13),#1241);
#11=SHAPE_REPRESENTATION_RELATIONSHIP('SRR','None',#1248,#12);
#12=ADVANCED_BREP_SHAPE_REPRESENTATION('',(#14),#1240);
#13=STYLED_ITEM('',(#1257),#14);
#14=MANIFOLD_SOLID_BREP('Body4',#751);
#15=FACE_BOUND('',#94,.T.);
#16=FACE_BOUND('',#96,.T.);
#17=FACE_BOUND('',#119,.T.);
#18=FACE_BOUND('',#121,.T.);
#19=CIRCLE('',#771,1.9);
#20=CIRCLE('',#772,1.9);
#21=CIRCLE('',#776,21.);
#22=CIRCLE('',#784,24.5);
#23=CIRCLE('',#785,24.5);
#24=CIRCLE('',#787,21.);
#25=CIRCLE('',#788,21.);
#26=CIRCLE('',#791,24.5);
#27=CIRCLE('',#792,24.5);
#28=CIRCLE('',#794,21.);
#29=CIRCLE('',#798,24.5);
#30=CIRCLE('',#799,24.5);
#31=CIRCLE('',#801,21.);
#32=CIRCLE('',#807,1.9);
#33=CIRCLE('',#808,1.9);
#34=CIRCLE('',#811,21.);
#35=CIRCLE('',#818,21.);
#36=CIRCLE('',#819,21.);
#37=CYLINDRICAL_SURFACE('',#770,1.9);
#38=CYLINDRICAL_SURFACE('',#783,24.5);
#39=CYLINDRICAL_SURFACE('',#790,24.5);
#40=CYLINDRICAL_SURFACE('',#797,24.5);
#41=CYLINDRICAL_SURFACE('',#806,1.9);
#42=CYLINDRICAL_SURFACE('',#821,21.);
#43=FACE_OUTER_BOUND('',#83,.T.);
#44=FACE_OUTER_BOUND('',#84,.T.);
#45=FACE_OUTER_BOUND('',#85,.T.);
#46=FACE_OUTER_BOUND('',#86,.T.);
#47=FACE_OUTER_BOUND('',#87,.T.);
#48=FACE_OUTER_BOUND('',#88,.T.);
#49=FACE_OUTER_BOUND('',#89,.T.);
#50=FACE_OUTER_BOUND('',#90,.T.);
#51=FACE_OUTER_BOUND('',#91,.T.);
#52=FACE_OUTER_BOUND('',#92,.T.);
#53=FACE_OUTER_BOUND('',#93,.T.);
#54=FACE_OUTER_BOUND('',#95,.T.);
#55=FACE_OUTER_BOUND('',#97,.T.);
#56=FACE_OUTER_BOUND('',#98,.T.);
#57=FACE_OUTER_BOUND('',#99,.T.);
#58=FACE_OUTER_BOUND('',#100,.T.);
#59=FACE_OUTER_BOUND('',#101,.T.);
#60=FACE_OUTER_BOUND('',#102,.T.);
#61=FACE_OUTER_BOUND('',#103,.T.);
#62=FACE_OUTER_BOUND('',#104,.T.);
#63=FACE_OUTER_BOUND('',#105,.T.);
#64=FACE_OUTER_BOUND('',#106,.T.);
#65=FACE_OUTER_BOUND('',#107,.T.);
#66=FACE_OUTER_BOUND('',#108,.T.);
#67=FACE_OUTER_BOUND('',#109,.T.);
#68=FACE_OUTER_BOUND('',#110,.T.);
#69=FACE_OUTER_BOUND('',#111,.T.);
#70=FACE_OUTER_BOUND('',#112,.T.);
#71=FACE_OUTER_BOUND('',#113,.T.);
#72=FACE_OUTER_BOUND('',#114,.T.);
#73=FACE_OUTER_BOUND('',#115,.T.);
#74=FACE_OUTER_BOUND('',#116,.T.);
#75=FACE_OUTER_BOUND('',#117,.T.);
#76=FACE_OUTER_BOUND('',#118,.T.);
#77=FACE_OUTER_BOUND('',#120,.T.);
#78=FACE_OUTER_BOUND('',#122,.T.);
#79=FACE_OUTER_BOUND('',#123,.T.);
#80=FACE_OUTER_BOUND('',#124,.T.);
#81=FACE_OUTER_BOUND('',#125,.T.);
#82=FACE_OUTER_BOUND('',#126,.T.);
#83=EDGE_LOOP('',(#469,#470,#471,#472));
#84=EDGE_LOOP('',(#473,#474,#475,#476));
#85=EDGE_LOOP('',(#477,#478,#479,#480));
#86=EDGE_LOOP('',(#481,#482,#483,#484));
#87=EDGE_LOOP('',(#485,#486,#487,#488));
#88=EDGE_LOOP('',(#489,#490,#491,#492));
#89=EDGE_LOOP('',(#493,#494,#495,#496));
#90=EDGE_LOOP('',(#497,#498,#499,#500));
#91=EDGE_LOOP('',(#501,#502,#503,#504));
#92=EDGE_LOOP('',(#505,#506,#507,#508));
#93=EDGE_LOOP('',(#509,#510,#511,#512));
#94=EDGE_LOOP('',(#513));
#95=EDGE_LOOP('',(#514,#515,#516,#517));
#96=EDGE_LOOP('',(#518));
#97=EDGE_LOOP('',(#519,#520,#521,#522));
#98=EDGE_LOOP('',(#523,#524,#525,#526));
#99=EDGE_LOOP('',(#527,#528,#529,#530));
#100=EDGE_LOOP('',(#531,#532,#533,#534,#535,#536));
#101=EDGE_LOOP('',(#537,#538,#539,#540,#541,#542,#543,#544,#545,#546,#547));
#102=EDGE_LOOP('',(#548,#549,#550,#551));
#103=EDGE_LOOP('',(#552,#553,#554,#555,#556,#557,#558,#559,#560,#561));
#104=EDGE_LOOP('',(#562,#563,#564,#565,#566,#567,#568,#569));
#105=EDGE_LOOP('',(#570,#571,#572,#573));
#106=EDGE_LOOP('',(#574,#575,#576,#577));
#107=EDGE_LOOP('',(#578,#579,#580,#581,#582,#583));
#108=EDGE_LOOP('',(#584,#585,#586,#587,#588,#589,#590,#591));
#109=EDGE_LOOP('',(#592,#593,#594,#595));
#110=EDGE_LOOP('',(#596,#597,#598,#599));
#111=EDGE_LOOP('',(#600,#601,#602,#603));
#112=EDGE_LOOP('',(#604,#605,#606,#607));
#113=EDGE_LOOP('',(#608,#609,#610,#611));
#114=EDGE_LOOP('',(#612,#613,#614,#615));
#115=EDGE_LOOP('',(#616,#617,#618,#619));
#116=EDGE_LOOP('',(#620,#621,#622,#623));
#117=EDGE_LOOP('',(#624,#625,#626,#627));
#118=EDGE_LOOP('',(#628,#629,#630,#631));
#119=EDGE_LOOP('',(#632));
#120=EDGE_LOOP('',(#633,#634,#635,#636));
#121=EDGE_LOOP('',(#637));
#122=EDGE_LOOP('',(#638,#639,#640,#641));
#123=EDGE_LOOP('',(#642,#643,#644,#645,#646,#647,#648,#649,#650,#651,#652));
#124=EDGE_LOOP('',(#653,#654,#655,#656));
#125=EDGE_LOOP('',(#657,#658,#659,#660,#661,#662,#663,#664,#665,#666,#667,
#668,#669,#670,#671,#672));
#126=EDGE_LOOP('',(#673,#674,#675,#676));
#127=LINE('',#1031,#213);
#128=LINE('',#1033,#214);
#129=LINE('',#1035,#215);
#130=LINE('',#1036,#216);
#131=LINE('',#1040,#217);
#132=LINE('',#1042,#218);
#133=LINE('',#1044,#219);
#134=LINE('',#1045,#220);
#135=LINE('',#1048,#221);
#136=LINE('',#1050,#222);
#137=LINE('',#1051,#223);
#138=LINE('',#1055,#224);
#139=LINE('',#1056,#225);
#140=LINE('',#1057,#226);
#141=LINE('',#1059,#227);
#142=LINE('',#1064,#228);
#143=LINE('',#1069,#229);
#144=LINE('',#1070,#230);
#145=LINE('',#1071,#231);
#146=LINE('',#1074,#232);
#147=LINE('',#1076,#233);
#148=LINE('',#1077,#234);
#149=LINE('',#1083,#235);
#150=LINE('',#1085,#236);
#151=LINE('',#1086,#237);
#152=LINE('',#1090,#238);
#153=LINE('',#1091,#239);
#154=LINE('',#1092,#240);
#155=LINE('',#1095,#241);
#156=LINE('',#1096,#242);
#157=LINE('',#1100,#243);
#158=LINE('',#1101,#244);
#159=LINE('',#1102,#245);
#160=LINE('',#1105,#246);
#161=LINE('',#1106,#247);
#162=LINE('',#1109,#248);
#163=LINE('',#1110,#249);
#164=LINE('',#1113,#250);
#165=LINE('',#1114,#251);
#166=LINE('',#1122,#252);
#167=LINE('',#1125,#253);
#168=LINE('',#1127,#254);
#169=LINE('',#1128,#255);
#170=LINE('',#1132,#256);
#171=LINE('',#1136,#257);
#172=LINE('',#1139,#258);
#173=LINE('',#1140,#259);
#174=LINE('',#1143,#260);
#175=LINE('',#1147,#261);
#176=LINE('',#1148,#262);
#177=LINE('',#1151,#263);
#178=LINE('',#1153,#264);
#179=LINE('',#1154,#265);
#180=LINE('',#1160,#266);
#181=LINE('',#1164,#267);
#182=LINE('',#1166,#268);
#183=LINE('',#1167,#269);
#184=LINE('',#1170,#270);
#185=LINE('',#1172,#271);
#186=LINE('',#1173,#272);
#187=LINE('',#1175,#273);
#188=LINE('',#1178,#274);
#189=LINE('',#1179,#275);
#190=LINE('',#1183,#276);
#191=LINE('',#1184,#277);
#192=LINE('',#1185,#278);
#193=LINE('',#1187,#279);
#194=LINE('',#1188,#280);
#195=LINE('',#1194,#281);
#196=LINE('',#1198,#282);
#197=LINE('',#1199,#283);
#198=LINE('',#1205,#284);
#199=LINE('',#1207,#285);
#200=LINE('',#1208,#286);
#201=LINE('',#1212,#287);
#202=LINE('',#1213,#288);
#203=LINE('',#1214,#289);
#204=LINE('',#1217,#290);
#205=LINE('',#1218,#291);
#206=LINE('',#1220,#292);
#207=LINE('',#1223,#293);
#208=LINE('',#1224,#294);
#209=LINE('',#1227,#295);
#210=LINE('',#1228,#296);
#211=LINE('',#1232,#297);
#212=LINE('',#1236,#298);
#213=VECTOR('',#827,10.);
#214=VECTOR('',#828,10.);
#215=VECTOR('',#829,10.);
#216=VECTOR('',#830,10.);
#217=VECTOR('',#833,10.);
#218=VECTOR('',#834,10.);
#219=VECTOR('',#835,10.);
#220=VECTOR('',#836,10.);
#221=VECTOR('',#839,10.);
#222=VECTOR('',#840,10.);
#223=VECTOR('',#841,10.);
#224=VECTOR('',#844,10.);
#225=VECTOR('',#845,10.);
#226=VECTOR('',#846,10.);
#227=VECTOR('',#849,10.);
#228=VECTOR('',#854,1.9);
#229=VECTOR('',#859,10.);
#230=VECTOR('',#860,10.);
#231=VECTOR('',#861,10.);
#232=VECTOR('',#864,10.);
#233=VECTOR('',#865,10.);
#234=VECTOR('',#866,10.);
#235=VECTOR('',#871,10.);
#236=VECTOR('',#872,10.);
#237=VECTOR('',#873,10.);
#238=VECTOR('',#876,10.);
#239=VECTOR('',#877,10.);
#240=VECTOR('',#878,10.);
#241=VECTOR('',#881,10.);
#242=VECTOR('',#882,10.);
#243=VECTOR('',#885,10.);
#244=VECTOR('',#886,10.);
#245=VECTOR('',#887,10.);
#246=VECTOR('',#890,10.);
#247=VECTOR('',#891,10.);
#248=VECTOR('',#894,10.);
#249=VECTOR('',#895,10.);
#250=VECTOR('',#898,10.);
#251=VECTOR('',#899,10.);
#252=VECTOR('',#912,10.);
#253=VECTOR('',#915,10.);
#254=VECTOR('',#916,10.);
#255=VECTOR('',#917,10.);
#256=VECTOR('',#920,10.);
#257=VECTOR('',#923,10.);
#258=VECTOR('',#926,10.);
#259=VECTOR('',#927,10.);
#260=VECTOR('',#930,10.);
#261=VECTOR('',#935,10.);
#262=VECTOR('',#936,10.);
#263=VECTOR('',#939,10.);
#264=VECTOR('',#940,10.);
#265=VECTOR('',#941,10.);
#266=VECTOR('',#946,10.);
#267=VECTOR('',#949,10.);
#268=VECTOR('',#950,10.);
#269=VECTOR('',#951,10.);
#270=VECTOR('',#954,10.);
#271=VECTOR('',#955,10.);
#272=VECTOR('',#956,10.);
#273=VECTOR('',#957,10.);
#274=VECTOR('',#962,10.);
#275=VECTOR('',#963,10.);
#276=VECTOR('',#966,10.);
#277=VECTOR('',#967,10.);
#278=VECTOR('',#968,10.);
#279=VECTOR('',#971,10.);
#280=VECTOR('',#972,10.);
#281=VECTOR('',#979,1.9);
#282=VECTOR('',#984,10.);
#283=VECTOR('',#985,10.);
#284=VECTOR('',#990,10.);
#285=VECTOR('',#991,10.);
#286=VECTOR('',#992,10.);
#287=VECTOR('',#995,10.);
#288=VECTOR('',#996,10.);
#289=VECTOR('',#997,10.);
#290=VECTOR('',#1000,10.);
#291=VECTOR('',#1001,10.);
#292=VECTOR('',#1004,10.);
#293=VECTOR('',#1007,10.);
#294=VECTOR('',#1008,10.);
#295=VECTOR('',#1011,10.);
#296=VECTOR('',#1012,10.);
#297=VECTOR('',#1017,10.);
#298=VECTOR('',#1024,10.);
#299=VERTEX_POINT('',#1029);
#300=VERTEX_POINT('',#1030);
#301=VERTEX_POINT('',#1032);
#302=VERTEX_POINT('',#1034);
#303=VERTEX_POINT('',#1038);
#304=VERTEX_POINT('',#1039);
#305=VERTEX_POINT('',#1041);
#306=VERTEX_POINT('',#1043);
#307=VERTEX_POINT('',#1047);
#308=VERTEX_POINT('',#1049);
#309=VERTEX_POINT('',#1053);
#310=VERTEX_POINT('',#1054);
#311=VERTEX_POINT('',#1061);
#312=VERTEX_POINT('',#1063);
#313=VERTEX_POINT('',#1067);
#314=VERTEX_POINT('',#1068);
#315=VERTEX_POINT('',#1073);
#316=VERTEX_POINT('',#1075);
#317=VERTEX_POINT('',#1079);
#318=VERTEX_POINT('',#1080);
#319=VERTEX_POINT('',#1082);
#320=VERTEX_POINT('',#1084);
#321=VERTEX_POINT('',#1088);
#322=VERTEX_POINT('',#1089);
#323=VERTEX_POINT('',#1094);
#324=VERTEX_POINT('',#1098);
#325=VERTEX_POINT('',#1099);
#326=VERTEX_POINT('',#1104);
#327=VERTEX_POINT('',#1108);
#328=VERTEX_POINT('',#1112);
#329=VERTEX_POINT('',#1120);
#330=VERTEX_POINT('',#1124);
#331=VERTEX_POINT('',#1126);
#332=VERTEX_POINT('',#1130);
#333=VERTEX_POINT('',#1131);
#334=VERTEX_POINT('',#1133);
#335=VERTEX_POINT('',#1135);
#336=VERTEX_POINT('',#1138);
#337=VERTEX_POINT('',#1142);
#338=VERTEX_POINT('',#1146);
#339=VERTEX_POINT('',#1150);
#340=VERTEX_POINT('',#1152);
#341=VERTEX_POINT('',#1156);
#342=VERTEX_POINT('',#1157);
#343=VERTEX_POINT('',#1159);
#344=VERTEX_POINT('',#1161);
#345=VERTEX_POINT('',#1163);
#346=VERTEX_POINT('',#1165);
#347=VERTEX_POINT('',#1169);
#348=VERTEX_POINT('',#1171);
#349=VERTEX_POINT('',#1174);
#350=VERTEX_POINT('',#1181);
#351=VERTEX_POINT('',#1182);
#352=VERTEX_POINT('',#1191);
#353=VERTEX_POINT('',#1193);
#354=VERTEX_POINT('',#1197);
#355=VERTEX_POINT('',#1201);
#356=VERTEX_POINT('',#1202);
#357=VERTEX_POINT('',#1204);
#358=VERTEX_POINT('',#1206);
#359=VERTEX_POINT('',#1210);
#360=VERTEX_POINT('',#1211);
#361=VERTEX_POINT('',#1216);
#362=VERTEX_POINT('',#1222);
#363=VERTEX_POINT('',#1226);
#364=VERTEX_POINT('',#1230);
#365=EDGE_CURVE('',#299,#300,#127,.T.);
#366=EDGE_CURVE('',#301,#300,#128,.T.);
#367=EDGE_CURVE('',#302,#301,#129,.T.);
#368=EDGE_CURVE('',#299,#302,#130,.T.);
#369=EDGE_CURVE('',#303,#304,#131,.T.);
#370=EDGE_CURVE('',#305,#303,#132,.T.);
#371=EDGE_CURVE('',#306,#305,#133,.T.);
#372=EDGE_CURVE('',#304,#306,#134,.T.);
#373=EDGE_CURVE('',#301,#307,#135,.T.);
#374=EDGE_CURVE('',#307,#308,#136,.T.);
#375=EDGE_CURVE('',#308,#302,#137,.T.);
#376=EDGE_CURVE('',#309,#310,#138,.T.);
#377=EDGE_CURVE('',#310,#308,#139,.T.);
#378=EDGE_CURVE('',#309,#307,#140,.T.);
#379=EDGE_CURVE('',#299,#310,#141,.T.);
#380=EDGE_CURVE('',#311,#311,#19,.T.);
#381=EDGE_CURVE('',#311,#312,#142,.T.);
#382=EDGE_CURVE('',#312,#312,#20,.T.);
#383=EDGE_CURVE('',#313,#314,#143,.T.);
#384=EDGE_CURVE('',#314,#299,#144,.T.);
#385=EDGE_CURVE('',#310,#313,#145,.T.);
#386=EDGE_CURVE('',#313,#315,#146,.T.);
#387=EDGE_CURVE('',#316,#315,#147,.T.);
#388=EDGE_CURVE('',#314,#316,#148,.T.);
#389=EDGE_CURVE('',#317,#318,#21,.T.);
#390=EDGE_CURVE('',#317,#319,#149,.T.);
#391=EDGE_CURVE('',#319,#320,#150,.T.);
#392=EDGE_CURVE('',#320,#318,#151,.T.);
#393=EDGE_CURVE('',#321,#322,#152,.T.);
#394=EDGE_CURVE('',#315,#322,#153,.T.);
#395=EDGE_CURVE('',#313,#321,#154,.T.);
#396=EDGE_CURVE('',#322,#323,#155,.T.);
#397=EDGE_CURVE('',#323,#316,#156,.T.);
#398=EDGE_CURVE('',#324,#325,#157,.T.);
#399=EDGE_CURVE('',#320,#325,#158,.T.);
#400=EDGE_CURVE('',#324,#319,#159,.T.);
#401=EDGE_CURVE('',#326,#324,#160,.T.);
#402=EDGE_CURVE('',#326,#317,#161,.T.);
#403=EDGE_CURVE('',#325,#327,#162,.T.);
#404=EDGE_CURVE('',#318,#327,#163,.T.);
#405=EDGE_CURVE('',#328,#314,#164,.T.);
#406=EDGE_CURVE('',#323,#328,#165,.T.);
#407=EDGE_CURVE('',#321,#303,#22,.T.);
#408=EDGE_CURVE('',#309,#305,#23,.T.);
#409=EDGE_CURVE('',#304,#327,#24,.T.);
#410=EDGE_CURVE('',#329,#326,#25,.T.);
#411=EDGE_CURVE('',#328,#329,#166,.T.);
#412=EDGE_CURVE('',#329,#330,#167,.T.);
#413=EDGE_CURVE('',#331,#330,#168,.T.);
#414=EDGE_CURVE('',#331,#328,#169,.T.);
#415=EDGE_CURVE('',#332,#333,#170,.T.);
#416=EDGE_CURVE('',#334,#332,#26,.T.);
#417=EDGE_CURVE('',#334,#335,#171,.T.);
#418=EDGE_CURVE('',#335,#300,#27,.T.);
#419=EDGE_CURVE('',#336,#331,#172,.T.);
#420=EDGE_CURVE('',#333,#336,#173,.T.);
#421=EDGE_CURVE('',#335,#337,#174,.T.);
#422=EDGE_CURVE('',#306,#337,#28,.T.);
#423=EDGE_CURVE('',#338,#334,#175,.T.);
#424=EDGE_CURVE('',#337,#338,#176,.T.);
#425=EDGE_CURVE('',#339,#331,#177,.T.);
#426=EDGE_CURVE('',#340,#339,#178,.T.);
#427=EDGE_CURVE('',#336,#340,#179,.T.);
#428=EDGE_CURVE('',#341,#342,#29,.T.);
#429=EDGE_CURVE('',#341,#343,#180,.T.);
#430=EDGE_CURVE('',#344,#343,#30,.T.);
#431=EDGE_CURVE('',#345,#344,#181,.T.);
#432=EDGE_CURVE('',#346,#345,#182,.T.);
#433=EDGE_CURVE('',#342,#346,#183,.T.);
#434=EDGE_CURVE('',#332,#347,#184,.T.);
#435=EDGE_CURVE('',#348,#347,#185,.T.);
#436=EDGE_CURVE('',#344,#348,#186,.T.);
#437=EDGE_CURVE('',#343,#349,#187,.T.);
#438=EDGE_CURVE('',#349,#338,#31,.T.);
#439=EDGE_CURVE('',#336,#346,#188,.T.);
#440=EDGE_CURVE('',#345,#333,#189,.T.);
#441=EDGE_CURVE('',#350,#351,#190,.T.);
#442=EDGE_CURVE('',#351,#348,#191,.T.);
#443=EDGE_CURVE('',#347,#350,#192,.T.);
#444=EDGE_CURVE('',#345,#351,#193,.T.);
#445=EDGE_CURVE('',#333,#350,#194,.T.);
#446=EDGE_CURVE('',#352,#352,#32,.T.);
#447=EDGE_CURVE('',#352,#353,#195,.T.);
#448=EDGE_CURVE('',#353,#353,#33,.T.);
#449=EDGE_CURVE('',#354,#340,#196,.T.);
#450=EDGE_CURVE('',#346,#354,#197,.T.);
#451=EDGE_CURVE('',#355,#356,#34,.T.);
#452=EDGE_CURVE('',#357,#355,#198,.T.);
#453=EDGE_CURVE('',#357,#358,#199,.T.);
#454=EDGE_CURVE('',#358,#356,#200,.T.);
#455=EDGE_CURVE('',#359,#360,#201,.T.);
#456=EDGE_CURVE('',#360,#357,#202,.T.);
#457=EDGE_CURVE('',#359,#355,#203,.T.);
#458=EDGE_CURVE('',#361,#342,#204,.T.);
#459=EDGE_CURVE('',#361,#354,#205,.T.);
#460=EDGE_CURVE('',#339,#361,#206,.T.);
#461=EDGE_CURVE('',#360,#362,#207,.T.);
#462=EDGE_CURVE('',#358,#362,#208,.T.);
#463=EDGE_CURVE('',#362,#363,#209,.T.);
#464=EDGE_CURVE('',#356,#363,#210,.T.);
#465=EDGE_CURVE('',#359,#364,#35,.T.);
#466=EDGE_CURVE('',#364,#341,#211,.T.);
#467=EDGE_CURVE('',#363,#330,#36,.T.);
#468=EDGE_CURVE('',#349,#364,#212,.T.);
#469=ORIENTED_EDGE('',*,*,#365,.T.);
#470=ORIENTED_EDGE('',*,*,#366,.F.);
#471=ORIENTED_EDGE('',*,*,#367,.F.);
#472=ORIENTED_EDGE('',*,*,#368,.F.);
#473=ORIENTED_EDGE('',*,*,#369,.F.);
#474=ORIENTED_EDGE('',*,*,#370,.F.);
#475=ORIENTED_EDGE('',*,*,#371,.F.);
#476=ORIENTED_EDGE('',*,*,#372,.F.);
#477=ORIENTED_EDGE('',*,*,#373,.T.);
#478=ORIENTED_EDGE('',*,*,#374,.T.);
#479=ORIENTED_EDGE('',*,*,#375,.T.);
#480=ORIENTED_EDGE('',*,*,#367,.T.);
#481=ORIENTED_EDGE('',*,*,#376,.T.);
#482=ORIENTED_EDGE('',*,*,#377,.T.);
#483=ORIENTED_EDGE('',*,*,#374,.F.);
#484=ORIENTED_EDGE('',*,*,#378,.F.);
#485=ORIENTED_EDGE('',*,*,#379,.F.);
#486=ORIENTED_EDGE('',*,*,#368,.T.);
#487=ORIENTED_EDGE('',*,*,#375,.F.);
#488=ORIENTED_EDGE('',*,*,#377,.F.);
#489=ORIENTED_EDGE('',*,*,#380,.F.);
#490=ORIENTED_EDGE('',*,*,#381,.T.);
#491=ORIENTED_EDGE('',*,*,#382,.T.);
#492=ORIENTED_EDGE('',*,*,#381,.F.);
#493=ORIENTED_EDGE('',*,*,#383,.T.);
#494=ORIENTED_EDGE('',*,*,#384,.T.);
#495=ORIENTED_EDGE('',*,*,#379,.T.);
#496=ORIENTED_EDGE('',*,*,#385,.T.);
#497=ORIENTED_EDGE('',*,*,#383,.F.);
#498=ORIENTED_EDGE('',*,*,#386,.T.);
#499=ORIENTED_EDGE('',*,*,#387,.F.);
#500=ORIENTED_EDGE('',*,*,#388,.F.);
#501=ORIENTED_EDGE('',*,*,#389,.F.);
#502=ORIENTED_EDGE('',*,*,#390,.T.);
#503=ORIENTED_EDGE('',*,*,#391,.T.);
#504=ORIENTED_EDGE('',*,*,#392,.T.);
#505=ORIENTED_EDGE('',*,*,#393,.T.);
#506=ORIENTED_EDGE('',*,*,#394,.F.);
#507=ORIENTED_EDGE('',*,*,#386,.F.);
#508=ORIENTED_EDGE('',*,*,#395,.T.);
#509=ORIENTED_EDGE('',*,*,#396,.T.);
#510=ORIENTED_EDGE('',*,*,#397,.T.);
#511=ORIENTED_EDGE('',*,*,#387,.T.);
#512=ORIENTED_EDGE('',*,*,#394,.T.);
#513=ORIENTED_EDGE('',*,*,#380,.T.);
#514=ORIENTED_EDGE('',*,*,#398,.T.);
#515=ORIENTED_EDGE('',*,*,#399,.F.);
#516=ORIENTED_EDGE('',*,*,#391,.F.);
#517=ORIENTED_EDGE('',*,*,#400,.F.);
#518=ORIENTED_EDGE('',*,*,#382,.F.);
#519=ORIENTED_EDGE('',*,*,#401,.T.);
#520=ORIENTED_EDGE('',*,*,#400,.T.);
#521=ORIENTED_EDGE('',*,*,#390,.F.);
#522=ORIENTED_EDGE('',*,*,#402,.F.);
#523=ORIENTED_EDGE('',*,*,#403,.T.);
#524=ORIENTED_EDGE('',*,*,#404,.F.);
#525=ORIENTED_EDGE('',*,*,#392,.F.);
#526=ORIENTED_EDGE('',*,*,#399,.T.);
#527=ORIENTED_EDGE('',*,*,#405,.T.);
#528=ORIENTED_EDGE('',*,*,#388,.T.);
#529=ORIENTED_EDGE('',*,*,#397,.F.);
#530=ORIENTED_EDGE('',*,*,#406,.T.);
#531=ORIENTED_EDGE('',*,*,#407,.F.);
#532=ORIENTED_EDGE('',*,*,#395,.F.);
#533=ORIENTED_EDGE('',*,*,#385,.F.);
#534=ORIENTED_EDGE('',*,*,#376,.F.);
#535=ORIENTED_EDGE('',*,*,#408,.T.);
#536=ORIENTED_EDGE('',*,*,#370,.T.);
#537=ORIENTED_EDGE('',*,*,#409,.T.);
#538=ORIENTED_EDGE('',*,*,#403,.F.);
#539=ORIENTED_EDGE('',*,*,#398,.F.);
#540=ORIENTED_EDGE('',*,*,#401,.F.);
#541=ORIENTED_EDGE('',*,*,#410,.F.);
#542=ORIENTED_EDGE('',*,*,#411,.F.);
#543=ORIENTED_EDGE('',*,*,#406,.F.);
#544=ORIENTED_EDGE('',*,*,#396,.F.);
#545=ORIENTED_EDGE('',*,*,#393,.F.);
#546=ORIENTED_EDGE('',*,*,#407,.T.);
#547=ORIENTED_EDGE('',*,*,#369,.T.);
#548=ORIENTED_EDGE('',*,*,#411,.T.);
#549=ORIENTED_EDGE('',*,*,#412,.T.);
#550=ORIENTED_EDGE('',*,*,#413,.F.);
#551=ORIENTED_EDGE('',*,*,#414,.T.);
#552=ORIENTED_EDGE('',*,*,#415,.F.);
#553=ORIENTED_EDGE('',*,*,#416,.F.);
#554=ORIENTED_EDGE('',*,*,#417,.T.);
#555=ORIENTED_EDGE('',*,*,#418,.T.);
#556=ORIENTED_EDGE('',*,*,#365,.F.);
#557=ORIENTED_EDGE('',*,*,#384,.F.);
#558=ORIENTED_EDGE('',*,*,#405,.F.);
#559=ORIENTED_EDGE('',*,*,#414,.F.);
#560=ORIENTED_EDGE('',*,*,#419,.F.);
#561=ORIENTED_EDGE('',*,*,#420,.F.);
#562=ORIENTED_EDGE('',*,*,#418,.F.);
#563=ORIENTED_EDGE('',*,*,#421,.T.);
#564=ORIENTED_EDGE('',*,*,#422,.F.);
#565=ORIENTED_EDGE('',*,*,#371,.T.);
#566=ORIENTED_EDGE('',*,*,#408,.F.);
#567=ORIENTED_EDGE('',*,*,#378,.T.);
#568=ORIENTED_EDGE('',*,*,#373,.F.);
#569=ORIENTED_EDGE('',*,*,#366,.T.);
#570=ORIENTED_EDGE('',*,*,#417,.F.);
#571=ORIENTED_EDGE('',*,*,#423,.F.);
#572=ORIENTED_EDGE('',*,*,#424,.F.);
#573=ORIENTED_EDGE('',*,*,#421,.F.);
#574=ORIENTED_EDGE('',*,*,#419,.T.);
#575=ORIENTED_EDGE('',*,*,#425,.F.);
#576=ORIENTED_EDGE('',*,*,#426,.F.);
#577=ORIENTED_EDGE('',*,*,#427,.F.);
#578=ORIENTED_EDGE('',*,*,#428,.F.);
#579=ORIENTED_EDGE('',*,*,#429,.T.);
#580=ORIENTED_EDGE('',*,*,#430,.F.);
#581=ORIENTED_EDGE('',*,*,#431,.F.);
#582=ORIENTED_EDGE('',*,*,#432,.F.);
#583=ORIENTED_EDGE('',*,*,#433,.F.);
#584=ORIENTED_EDGE('',*,*,#434,.T.);
#585=ORIENTED_EDGE('',*,*,#435,.F.);
#586=ORIENTED_EDGE('',*,*,#436,.F.);
#587=ORIENTED_EDGE('',*,*,#430,.T.);
#588=ORIENTED_EDGE('',*,*,#437,.T.);
#589=ORIENTED_EDGE('',*,*,#438,.T.);
#590=ORIENTED_EDGE('',*,*,#423,.T.);
#591=ORIENTED_EDGE('',*,*,#416,.T.);
#592=ORIENTED_EDGE('',*,*,#439,.T.);
#593=ORIENTED_EDGE('',*,*,#432,.T.);
#594=ORIENTED_EDGE('',*,*,#440,.T.);
#595=ORIENTED_EDGE('',*,*,#420,.T.);
#596=ORIENTED_EDGE('',*,*,#441,.T.);
#597=ORIENTED_EDGE('',*,*,#442,.T.);
#598=ORIENTED_EDGE('',*,*,#435,.T.);
#599=ORIENTED_EDGE('',*,*,#443,.T.);
#600=ORIENTED_EDGE('',*,*,#440,.F.);
#601=ORIENTED_EDGE('',*,*,#444,.T.);
#602=ORIENTED_EDGE('',*,*,#441,.F.);
#603=ORIENTED_EDGE('',*,*,#445,.F.);
#604=ORIENTED_EDGE('',*,*,#431,.T.);
#605=ORIENTED_EDGE('',*,*,#436,.T.);
#606=ORIENTED_EDGE('',*,*,#442,.F.);
#607=ORIENTED_EDGE('',*,*,#444,.F.);
#608=ORIENTED_EDGE('',*,*,#446,.F.);
#609=ORIENTED_EDGE('',*,*,#447,.T.);
#610=ORIENTED_EDGE('',*,*,#448,.T.);
#611=ORIENTED_EDGE('',*,*,#447,.F.);
#612=ORIENTED_EDGE('',*,*,#439,.F.);
#613=ORIENTED_EDGE('',*,*,#427,.T.);
#614=ORIENTED_EDGE('',*,*,#449,.F.);
#615=ORIENTED_EDGE('',*,*,#450,.F.);
#616=ORIENTED_EDGE('',*,*,#451,.F.);
#617=ORIENTED_EDGE('',*,*,#452,.F.);
#618=ORIENTED_EDGE('',*,*,#453,.T.);
#619=ORIENTED_EDGE('',*,*,#454,.T.);
#620=ORIENTED_EDGE('',*,*,#455,.T.);
#621=ORIENTED_EDGE('',*,*,#456,.T.);
#622=ORIENTED_EDGE('',*,*,#452,.T.);
#623=ORIENTED_EDGE('',*,*,#457,.F.);
#624=ORIENTED_EDGE('',*,*,#458,.T.);
#625=ORIENTED_EDGE('',*,*,#433,.T.);
#626=ORIENTED_EDGE('',*,*,#450,.T.);
#627=ORIENTED_EDGE('',*,*,#459,.F.);
#628=ORIENTED_EDGE('',*,*,#460,.T.);
#629=ORIENTED_EDGE('',*,*,#459,.T.);
#630=ORIENTED_EDGE('',*,*,#449,.T.);
#631=ORIENTED_EDGE('',*,*,#426,.T.);
#632=ORIENTED_EDGE('',*,*,#446,.T.);
#633=ORIENTED_EDGE('',*,*,#461,.T.);
#634=ORIENTED_EDGE('',*,*,#462,.F.);
#635=ORIENTED_EDGE('',*,*,#453,.F.);
#636=ORIENTED_EDGE('',*,*,#456,.F.);
#637=ORIENTED_EDGE('',*,*,#448,.F.);
#638=ORIENTED_EDGE('',*,*,#463,.T.);
#639=ORIENTED_EDGE('',*,*,#464,.F.);
#640=ORIENTED_EDGE('',*,*,#454,.F.);
#641=ORIENTED_EDGE('',*,*,#462,.T.);
#642=ORIENTED_EDGE('',*,*,#465,.T.);
#643=ORIENTED_EDGE('',*,*,#466,.T.);
#644=ORIENTED_EDGE('',*,*,#428,.T.);
#645=ORIENTED_EDGE('',*,*,#458,.F.);
#646=ORIENTED_EDGE('',*,*,#460,.F.);
#647=ORIENTED_EDGE('',*,*,#425,.T.);
#648=ORIENTED_EDGE('',*,*,#413,.T.);
#649=ORIENTED_EDGE('',*,*,#467,.F.);
#650=ORIENTED_EDGE('',*,*,#463,.F.);
#651=ORIENTED_EDGE('',*,*,#461,.F.);
#652=ORIENTED_EDGE('',*,*,#455,.F.);
#653=ORIENTED_EDGE('',*,*,#415,.T.);
#654=ORIENTED_EDGE('',*,*,#445,.T.);
#655=ORIENTED_EDGE('',*,*,#443,.F.);
#656=ORIENTED_EDGE('',*,*,#434,.F.);
#657=ORIENTED_EDGE('',*,*,#465,.F.);
#658=ORIENTED_EDGE('',*,*,#457,.T.);
#659=ORIENTED_EDGE('',*,*,#451,.T.);
#660=ORIENTED_EDGE('',*,*,#464,.T.);
#661=ORIENTED_EDGE('',*,*,#467,.T.);
#662=ORIENTED_EDGE('',*,*,#412,.F.);
#663=ORIENTED_EDGE('',*,*,#410,.T.);
#664=ORIENTED_EDGE('',*,*,#402,.T.);
#665=ORIENTED_EDGE('',*,*,#389,.T.);
#666=ORIENTED_EDGE('',*,*,#404,.T.);
#667=ORIENTED_EDGE('',*,*,#409,.F.);
#668=ORIENTED_EDGE('',*,*,#372,.T.);
#669=ORIENTED_EDGE('',*,*,#422,.T.);
#670=ORIENTED_EDGE('',*,*,#424,.T.);
#671=ORIENTED_EDGE('',*,*,#438,.F.);
#672=ORIENTED_EDGE('',*,*,#468,.T.);
#673=ORIENTED_EDGE('',*,*,#466,.F.);
#674=ORIENTED_EDGE('',*,*,#468,.F.);
#675=ORIENTED_EDGE('',*,*,#437,.F.);
#676=ORIENTED_EDGE('',*,*,#429,.F.);
#677=PLANE('',#765);
#678=PLANE('',#766);
#679=PLANE('',#767);
#680=PLANE('',#768);
#681=PLANE('',#769);
#682=PLANE('',#773);
#683=PLANE('',#774);
#684=PLANE('',#775);
#685=PLANE('',#777);
#686=PLANE('',#778);
#687=PLANE('',#779);
#688=PLANE('',#780);
#689=PLANE('',#781);
#690=PLANE('',#782);
#691=PLANE('',#786);
#692=PLANE('',#789);
#693=PLANE('',#793);
#694=PLANE('',#795);
#695=PLANE('',#796);
#696=PLANE('',#800);
#697=PLANE('',#802);
#698=PLANE('',#803);
#699=PLANE('',#804);
#700=PLANE('',#805);
#701=PLANE('',#809);
#702=PLANE('',#810);
#703=PLANE('',#812);
#704=PLANE('',#813);
#705=PLANE('',#814);
#706=PLANE('',#815);
#707=PLANE('',#816);
#708=PLANE('',#817);
#709=PLANE('',#820);
#710=PLANE('',#822);
#711=ADVANCED_FACE('',(#43),#677,.F.);
#712=ADVANCED_FACE('',(#44),#678,.F.);
#713=ADVANCED_FACE('',(#45),#679,.T.);
#714=ADVANCED_FACE('',(#46),#680,.T.);
#715=ADVANCED_FACE('',(#47),#681,.T.);
#716=ADVANCED_FACE('',(#48),#37,.F.);
#717=ADVANCED_FACE('',(#49),#682,.T.);
#718=ADVANCED_FACE('',(#50),#683,.T.);
#719=ADVANCED_FACE('',(#51),#684,.F.);
#720=ADVANCED_FACE('',(#52),#685,.T.);
#721=ADVANCED_FACE('',(#53,#15),#686,.T.);
#722=ADVANCED_FACE('',(#54,#16),#687,.F.);
#723=ADVANCED_FACE('',(#55),#688,.F.);
#724=ADVANCED_FACE('',(#56),#689,.F.);
#725=ADVANCED_FACE('',(#57),#690,.F.);
#726=ADVANCED_FACE('',(#58),#38,.T.);
#727=ADVANCED_FACE('',(#59),#691,.T.);
#728=ADVANCED_FACE('',(#60),#692,.T.);
#729=ADVANCED_FACE('',(#61),#39,.T.);
#730=ADVANCED_FACE('',(#62),#693,.F.);
#731=ADVANCED_FACE('',(#63),#694,.F.);
#732=ADVANCED_FACE('',(#64),#695,.F.);
#733=ADVANCED_FACE('',(#65),#40,.T.);
#734=ADVANCED_FACE('',(#66),#696,.T.);
#735=ADVANCED_FACE('',(#67),#697,.T.);
#736=ADVANCED_FACE('',(#68),#698,.T.);
#737=ADVANCED_FACE('',(#69),#699,.T.);
#738=ADVANCED_FACE('',(#70),#700,.T.);
#739=ADVANCED_FACE('',(#71),#41,.F.);
#740=ADVANCED_FACE('',(#72),#701,.T.);
#741=ADVANCED_FACE('',(#73),#702,.F.);
#742=ADVANCED_FACE('',(#74),#703,.F.);
#743=ADVANCED_FACE('',(#75),#704,.T.);
#744=ADVANCED_FACE('',(#76,#17),#705,.T.);
#745=ADVANCED_FACE('',(#77,#18),#706,.F.);
#746=ADVANCED_FACE('',(#78),#707,.F.);
#747=ADVANCED_FACE('',(#79),#708,.F.);
#748=ADVANCED_FACE('',(#80),#709,.F.);
#749=ADVANCED_FACE('',(#81),#42,.F.);
#750=ADVANCED_FACE('',(#82),#710,.F.);
#751=CLOSED_SHELL('',(#711,#712,#713,#714,#715,#716,#717,#718,#719,#720,
#721,#722,#723,#724,#725,#726,#727,#728,#729,#730,#731,#732,#733,#734,#735,
#736,#737,#738,#739,#740,#741,#742,#743,#744,#745,#746,#747,#748,#749,#750));
#752=DERIVED_UNIT_ELEMENT(#754,1.);
#753=DERIVED_UNIT_ELEMENT(#1243,-3.);
#754=(
MASS_UNIT()
NAMED_UNIT(*)
SI_UNIT(.KILO.,.GRAM.)
);
#755=DERIVED_UNIT((#752,#753));
#756=MEASURE_REPRESENTATION_ITEM('density measure',
POSITIVE_RATIO_MEASURE(7850.),#755);
#757=PROPERTY_DEFINITION_REPRESENTATION(#762,#759);
#758=PROPERTY_DEFINITION_REPRESENTATION(#763,#760);
#759=REPRESENTATION('material name',(#761),#1240);
#760=REPRESENTATION('density',(#756),#1240);
#761=DESCRIPTIVE_REPRESENTATION_ITEM('Steel','Steel');
#762=PROPERTY_DEFINITION('material property','material name',#1250);
#763=PROPERTY_DEFINITION('material property','density of part',#1250);
#764=AXIS2_PLACEMENT_3D('',#1027,#823,#824);
#765=AXIS2_PLACEMENT_3D('',#1028,#825,#826);
#766=AXIS2_PLACEMENT_3D('',#1037,#831,#832);
#767=AXIS2_PLACEMENT_3D('',#1046,#837,#838);
#768=AXIS2_PLACEMENT_3D('',#1052,#842,#843);
#769=AXIS2_PLACEMENT_3D('',#1058,#847,#848);
#770=AXIS2_PLACEMENT_3D('',#1060,#850,#851);
#771=AXIS2_PLACEMENT_3D('',#1062,#852,#853);
#772=AXIS2_PLACEMENT_3D('',#1065,#855,#856);
#773=AXIS2_PLACEMENT_3D('',#1066,#857,#858);
#774=AXIS2_PLACEMENT_3D('',#1072,#862,#863);
#775=AXIS2_PLACEMENT_3D('',#1078,#867,#868);
#776=AXIS2_PLACEMENT_3D('',#1081,#869,#870);
#777=AXIS2_PLACEMENT_3D('',#1087,#874,#875);
#778=AXIS2_PLACEMENT_3D('',#1093,#879,#880);
#779=AXIS2_PLACEMENT_3D('',#1097,#883,#884);
#780=AXIS2_PLACEMENT_3D('',#1103,#888,#889);
#781=AXIS2_PLACEMENT_3D('',#1107,#892,#893);
#782=AXIS2_PLACEMENT_3D('',#1111,#896,#897);
#783=AXIS2_PLACEMENT_3D('',#1115,#900,#901);
#784=AXIS2_PLACEMENT_3D('',#1116,#902,#903);
#785=AXIS2_PLACEMENT_3D('',#1117,#904,#905);
#786=AXIS2_PLACEMENT_3D('',#1118,#906,#907);
#787=AXIS2_PLACEMENT_3D('',#1119,#908,#909);
#788=AXIS2_PLACEMENT_3D('',#1121,#910,#911);
#789=AXIS2_PLACEMENT_3D('',#1123,#913,#914);
#790=AXIS2_PLACEMENT_3D('',#1129,#918,#919);
#791=AXIS2_PLACEMENT_3D('',#1134,#921,#922);
#792=AXIS2_PLACEMENT_3D('',#1137,#924,#925);
#793=AXIS2_PLACEMENT_3D('',#1141,#928,#929);
#794=AXIS2_PLACEMENT_3D('',#1144,#931,#932);
#795=AXIS2_PLACEMENT_3D('',#1145,#933,#934);
#796=AXIS2_PLACEMENT_3D('',#1149,#937,#938);
#797=AXIS2_PLACEMENT_3D('',#1155,#942,#943);
#798=AXIS2_PLACEMENT_3D('',#1158,#944,#945);
#799=AXIS2_PLACEMENT_3D('',#1162,#947,#948);
#800=AXIS2_PLACEMENT_3D('',#1168,#952,#953);
#801=AXIS2_PLACEMENT_3D('',#1176,#958,#959);
#802=AXIS2_PLACEMENT_3D('',#1177,#960,#961);
#803=AXIS2_PLACEMENT_3D('',#1180,#964,#965);
#804=AXIS2_PLACEMENT_3D('',#1186,#969,#970);
#805=AXIS2_PLACEMENT_3D('',#1189,#973,#974);
#806=AXIS2_PLACEMENT_3D('',#1190,#975,#976);
#807=AXIS2_PLACEMENT_3D('',#1192,#977,#978);
#808=AXIS2_PLACEMENT_3D('',#1195,#980,#981);
#809=AXIS2_PLACEMENT_3D('',#1196,#982,#983);
#810=AXIS2_PLACEMENT_3D('',#1200,#986,#987);
#811=AXIS2_PLACEMENT_3D('',#1203,#988,#989);
#812=AXIS2_PLACEMENT_3D('',#1209,#993,#994);
#813=AXIS2_PLACEMENT_3D('',#1215,#998,#999);
#814=AXIS2_PLACEMENT_3D('',#1219,#1002,#1003);
#815=AXIS2_PLACEMENT_3D('',#1221,#1005,#1006);
#816=AXIS2_PLACEMENT_3D('',#1225,#1009,#1010);
#817=AXIS2_PLACEMENT_3D('',#1229,#1013,#1014);
#818=AXIS2_PLACEMENT_3D('',#1231,#1015,#1016);
#819=AXIS2_PLACEMENT_3D('',#1233,#1018,#1019);
#820=AXIS2_PLACEMENT_3D('',#1234,#1020,#1021);
#821=AXIS2_PLACEMENT_3D('',#1235,#1022,#1023);
#822=AXIS2_PLACEMENT_3D('',#1237,#1025,#1026);
#823=DIRECTION('axis',(0.,0.,1.));
#824=DIRECTION('refdir',(1.,0.,0.));
#825=DIRECTION('center_axis',(-1.,0.,0.));
#826=DIRECTION('ref_axis',(0.,0.,1.));
#827=DIRECTION('',(0.,0.,-1.));
#828=DIRECTION('',(0.,-1.,0.));
#829=DIRECTION('',(0.,0.,-1.));
#830=DIRECTION('',(0.,1.,0.));
#831=DIRECTION('center_axis',(0.,1.,0.));
#832=DIRECTION('ref_axis',(0.,0.,1.));
#833=DIRECTION('',(1.,0.,0.));
#834=DIRECTION('',(0.,0.,1.));
#835=DIRECTION('',(-1.,0.,0.));
#836=DIRECTION('',(0.,0.,-1.));
#837=DIRECTION('center_axis',(0.,1.,0.));
#838=DIRECTION('ref_axis',(0.,0.,1.));
#839=DIRECTION('',(-1.,0.,0.));
#840=DIRECTION('',(0.,0.,1.));
#841=DIRECTION('',(1.,0.,0.));
#842=DIRECTION('center_axis',(-1.,0.,0.));
#843=DIRECTION('ref_axis',(0.,0.,1.));
#844=DIRECTION('',(0.,0.,1.));
#845=DIRECTION('',(0.,1.,0.));
#846=DIRECTION('',(0.,1.,0.));
#847=DIRECTION('center_axis',(0.,0.,1.));
#848=DIRECTION('ref_axis',(1.,0.,0.));
#849=DIRECTION('',(-1.,0.,0.));
#850=DIRECTION('center_axis',(0.,-1.,0.));
#851=DIRECTION('ref_axis',(-1.,0.,0.));
#852=DIRECTION('center_axis',(0.,-1.,0.));
#853=DIRECTION('ref_axis',(-1.,0.,0.));
#854=DIRECTION('',(0.,-1.,0.));
#855=DIRECTION('center_axis',(0.,-1.,0.));
#856=DIRECTION('ref_axis',(-1.,0.,0.));
#857=DIRECTION('center_axis',(0.,1.,0.));
#858=DIRECTION('ref_axis',(0.,0.,1.));
#859=DIRECTION('',(1.,0.,0.));
#860=DIRECTION('',(0.,0.,-1.));
#861=DIRECTION('',(0.,0.,1.));
#862=DIRECTION('center_axis',(0.,0.,-1.));
#863=DIRECTION('ref_axis',(-1.,0.,0.));
#864=DIRECTION('',(0.,1.,0.));
#865=DIRECTION('',(-1.,0.,0.));
#866=DIRECTION('',(0.,1.,0.));
#867=DIRECTION('center_axis',(0.,0.,-1.));
#868=DIRECTION('ref_axis',(1.,0.,0.));
#869=DIRECTION('center_axis',(0.,0.,1.));
#870=DIRECTION('ref_axis',(1.,0.,0.));
#871=DIRECTION('',(0.,1.,0.));
#872=DIRECTION('',(-1.,0.,0.));
#873=DIRECTION('',(0.,-1.,0.));
#874=DIRECTION('center_axis',(-1.,0.,0.));
#875=DIRECTION('ref_axis',(0.,0.,1.));
#876=DIRECTION('',(0.,1.,0.));
#877=DIRECTION('',(0.,0.,1.));
#878=DIRECTION('',(0.,0.,1.));
#879=DIRECTION('center_axis',(0.,1.,0.));
#880=DIRECTION('ref_axis',(-1.,0.,0.));
#881=DIRECTION('',(1.,0.,0.));
#882=DIRECTION('',(0.,0.,-1.));
#883=DIRECTION('center_axis',(0.,1.,0.));
#884=DIRECTION('ref_axis',(-1.,0.,0.));
#885=DIRECTION('',(-1.,0.,0.));
#886=DIRECTION('',(0.,0.,1.));
#887=DIRECTION('',(0.,0.,-1.));
#888=DIRECTION('center_axis',(1.,0.,0.));
#889=DIRECTION('ref_axis',(0.,0.,1.));
#890=DIRECTION('',(0.,1.,0.));
#891=DIRECTION('',(0.,0.,-1.));
#892=DIRECTION('center_axis',(-1.,0.,0.));
#893=DIRECTION('ref_axis',(0.,0.,-1.));
#894=DIRECTION('',(0.,-1.,0.));
#895=DIRECTION('',(0.,0.,1.));
#896=DIRECTION('center_axis',(-1.,0.,0.));
#897=DIRECTION('ref_axis',(0.,0.,1.));
#898=DIRECTION('',(0.,0.,-1.));
#899=DIRECTION('',(0.,-1.,0.));
#900=DIRECTION('center_axis',(0.,0.,1.));
#901=DIRECTION('ref_axis',(1.,0.,0.));
#902=DIRECTION('center_axis',(0.,0.,1.));
#903=DIRECTION('ref_axis',(1.,0.,0.));
#904=DIRECTION('center_axis',(0.,0.,1.));
#905=DIRECTION('ref_axis',(1.,0.,0.));
#906=DIRECTION('center_axis',(0.,0.,1.));
#907=DIRECTION('ref_axis',(1.,0.,0.));
#908=DIRECTION('center_axis',(0.,0.,-1.));
#909=DIRECTION('ref_axis',(1.,0.,0.));
#910=DIRECTION('center_axis',(0.,0.,1.));
#911=DIRECTION('ref_axis',(1.,0.,0.));
#912=DIRECTION('',(0.,-1.,0.));
#913=DIRECTION('center_axis',(-1.,0.,0.));
#914=DIRECTION('ref_axis',(0.,0.,1.));
#915=DIRECTION('',(0.,0.,1.));
#916=DIRECTION('',(0.,-1.,0.));
#917=DIRECTION('',(0.,0.,-1.));
#918=DIRECTION('center_axis',(0.,0.,1.));
#919=DIRECTION('ref_axis',(1.,0.,0.));
#920=DIRECTION('',(0.,0.,-1.));
#921=DIRECTION('center_axis',(0.,0.,1.));
#922=DIRECTION('ref_axis',(1.,0.,0.));
#923=DIRECTION('',(0.,0.,-1.));
#924=DIRECTION('center_axis',(0.,0.,1.));
#925=DIRECTION('ref_axis',(1.,0.,0.));
#926=DIRECTION('',(0.,0.,-1.));
#927=DIRECTION('',(0.,0.,-1.));
#928=DIRECTION('center_axis',(0.,0.,1.));
#929=DIRECTION('ref_axis',(1.,0.,0.));
#930=DIRECTION('',(-1.,0.,0.));
#931=DIRECTION('center_axis',(0.,0.,-1.));
#932=DIRECTION('ref_axis',(1.,0.,0.));
#933=DIRECTION('center_axis',(0.,1.,0.));
#934=DIRECTION('ref_axis',(0.,0.,1.));
#935=DIRECTION('',(1.,0.,0.));
#936=DIRECTION('',(0.,0.,1.));
#937=DIRECTION('center_axis',(-1.,0.,0.));
#938=DIRECTION('ref_axis',(0.,0.,1.));
#939=DIRECTION('',(0.,-1.,0.));
#940=DIRECTION('',(0.,0.,-1.));
#941=DIRECTION('',(0.,1.,0.));
#942=DIRECTION('center_axis',(0.,0.,1.));
#943=DIRECTION('ref_axis',(1.,0.,0.));
#944=DIRECTION('center_axis',(0.,0.,-1.));
#945=DIRECTION('ref_axis',(1.,0.,0.));
#946=DIRECTION('',(0.,0.,1.));
#947=DIRECTION('center_axis',(0.,0.,1.));
#948=DIRECTION('ref_axis',(1.,0.,0.));
#949=DIRECTION('',(0.,0.,1.));
#950=DIRECTION('',(0.,0.,1.));
#951=DIRECTION('',(0.,0.,1.));
#952=DIRECTION('center_axis',(0.,0.,1.));
#953=DIRECTION('ref_axis',(1.,0.,0.));
#954=DIRECTION('',(0.,1.,0.));
#955=DIRECTION('',(1.,0.,0.));
#956=DIRECTION('',(0.,1.,0.));
#957=DIRECTION('',(1.,0.,0.));
#958=DIRECTION('center_axis',(0.,0.,-1.));
#959=DIRECTION('ref_axis',(1.,0.,0.));
#960=DIRECTION('center_axis',(0.,1.,0.));
#961=DIRECTION('ref_axis',(0.,0.,1.));
#962=DIRECTION('',(-1.,0.,0.));
#963=DIRECTION('',(1.,0.,0.));
#964=DIRECTION('center_axis',(0.,1.,0.));
#965=DIRECTION('ref_axis',(0.,0.,1.));
#966=DIRECTION('',(-1.,0.,0.));
#967=DIRECTION('',(0.,0.,1.));
#968=DIRECTION('',(0.,0.,-1.));
#969=DIRECTION('center_axis',(0.,0.,-1.));
#970=DIRECTION('ref_axis',(-1.,0.,0.));
#971=DIRECTION('',(0.,1.,0.));
#972=DIRECTION('',(0.,1.,0.));
#973=DIRECTION('center_axis',(-1.,0.,0.));
#974=DIRECTION('ref_axis',(0.,0.,1.));
#975=DIRECTION('center_axis',(0.,-1.,0.));
#976=DIRECTION('ref_axis',(-1.,0.,0.));
#977=DIRECTION('center_axis',(0.,-1.,0.));
#978=DIRECTION('ref_axis',(-1.,0.,0.));
#979=DIRECTION('',(0.,-1.,0.));
#980=DIRECTION('center_axis',(0.,-1.,0.));
#981=DIRECTION('ref_axis',(-1.,0.,0.));
#982=DIRECTION('center_axis',(0.,0.,1.));
#983=DIRECTION('ref_axis',(1.,0.,0.));
#984=DIRECTION('',(1.,0.,0.));
#985=DIRECTION('',(0.,1.,0.));
#986=DIRECTION('center_axis',(0.,0.,1.));
#987=DIRECTION('ref_axis',(-1.,0.,0.));
#988=DIRECTION('center_axis',(0.,0.,-1.));
#989=DIRECTION('ref_axis',(1.,0.,0.));
#990=DIRECTION('',(0.,-1.,0.));
#991=DIRECTION('',(1.,0.,0.));
#992=DIRECTION('',(0.,-1.,0.));
#993=DIRECTION('center_axis',(-1.,0.,0.));
#994=DIRECTION('ref_axis',(0.,0.,-1.));
#995=DIRECTION('',(0.,1.,0.));
#996=DIRECTION('',(0.,0.,1.));
#997=DIRECTION('',(0.,0.,1.));
#998=DIRECTION('center_axis',(-1.,0.,0.));
#999=DIRECTION('ref_axis',(0.,0.,1.));
#1000=DIRECTION('',(0.,-1.,0.));
#1001=DIRECTION('',(0.,0.,1.));
#1002=DIRECTION('center_axis',(0.,1.,0.));
#1003=DIRECTION('ref_axis',(-1.,0.,0.));
#1004=DIRECTION('',(-1.,0.,0.));
#1005=DIRECTION('center_axis',(0.,1.,0.));
#1006=DIRECTION('ref_axis',(-1.,0.,0.));
#1007=DIRECTION('',(1.,0.,0.));
#1008=DIRECTION('',(0.,0.,-1.));
#1009=DIRECTION('center_axis',(1.,0.,0.));
#1010=DIRECTION('ref_axis',(0.,0.,1.));
#1011=DIRECTION('',(0.,-1.,0.));
#1012=DIRECTION('',(0.,0.,-1.));
#1013=DIRECTION('center_axis',(0.,0.,1.));
#1014=DIRECTION('ref_axis',(-1.,0.,0.));
#1015=DIRECTION('center_axis',(0.,0.,1.));
#1016=DIRECTION('ref_axis',(1.,0.,0.));
#1017=DIRECTION('',(-1.,0.,0.));
#1018=DIRECTION('center_axis',(0.,0.,-1.));
#1019=DIRECTION('ref_axis',(1.,0.,0.));
#1020=DIRECTION('center_axis',(-1.,0.,0.));
#1021=DIRECTION('ref_axis',(0.,0.,1.));
#1022=DIRECTION('center_axis',(0.,0.,1.));
#1023=DIRECTION('ref_axis',(1.,0.,0.));
#1024=DIRECTION('',(0.,0.,-1.));
#1025=DIRECTION('center_axis',(0.,1.,0.));
#1026=DIRECTION('ref_axis',(0.,0.,1.));
#1027=CARTESIAN_POINT('',(0.,0.,0.));
#1028=CARTESIAN_POINT('Origin',(6.92820323027551,20.75,47.5));
#1029=CARTESIAN_POINT('',(6.92820323027551,23.5,5.99274165764506));
#1030=CARTESIAN_POINT('',(6.92820323027551,23.5,0.));
#1031=CARTESIAN_POINT('',(6.92820323027551,23.5,0.));
#1032=CARTESIAN_POINT('',(6.92820323027551,29.5,0.));
#1033=CARTESIAN_POINT('',(6.92820323027551,10.375,0.));
#1034=CARTESIAN_POINT('',(6.92820323027551,29.5,5.99274165764506));
#1035=CARTESIAN_POINT('',(6.92820323027551,29.5,0.));
#1036=CARTESIAN_POINT('',(6.92820323027551,23.5,5.99274165764506));
#1037=CARTESIAN_POINT('Origin',(0.,12.,47.5));
#1038=CARTESIAN_POINT('',(-21.3600093632938,12.,41.417153172148));
#1039=CARTESIAN_POINT('',(-17.2336879396141,12.,41.417153172148));
#1040=CARTESIAN_POINT('',(-3.60795153325458,12.,41.417153172148));
#1041=CARTESIAN_POINT('',(-21.3600093632938,12.,0.));
#1042=CARTESIAN_POINT('',(-21.3600093632938,12.,0.));
#1043=CARTESIAN_POINT('',(-17.2336879396141,12.,0.));
#1044=CARTESIAN_POINT('',(0.,12.,0.));
#1045=CARTESIAN_POINT('',(-17.2336879396141,12.,0.));
#1046=CARTESIAN_POINT('Origin',(0.,29.5,2.99637082882253));
#1047=CARTESIAN_POINT('',(-6.92820323027551,29.5,0.));
#1048=CARTESIAN_POINT('',(-6.92820323027551,29.5,0.));
#1049=CARTESIAN_POINT('',(-6.92820323027551,29.5,5.99274165764506));
#1050=CARTESIAN_POINT('',(-6.92820323027551,29.5,5.99274165764506));
#1051=CARTESIAN_POINT('',(6.92820323027551,29.5,5.99274165764506));
#1052=CARTESIAN_POINT('Origin',(-6.92820323027551,23.5,0.));
#1053=CARTESIAN_POINT('',(-6.92820323027551,23.5,0.));
#1054=CARTESIAN_POINT('',(-6.92820323027551,23.5,5.99274165764506));
#1055=CARTESIAN_POINT('',(-6.92820323027551,23.5,0.));
#1056=CARTESIAN_POINT('',(-6.92820323027551,23.5,5.99274165764506));
#1057=CARTESIAN_POINT('',(-6.92820323027551,23.5,0.));
#1058=CARTESIAN_POINT('Origin',(-6.92820323027551,23.5,5.99274165764506));
#1059=CARTESIAN_POINT('',(-3.46410161513776,23.5,5.99274165764506));
#1060=CARTESIAN_POINT('Origin',(0.,23.5,31.753053173808));
#1061=CARTESIAN_POINT('',(1.9,29.5,31.753053173808));
#1062=CARTESIAN_POINT('Origin',(0.,29.5,31.753053173808));
#1063=CARTESIAN_POINT('',(1.9,24.,31.753053173808));
#1064=CARTESIAN_POINT('',(1.9,23.5,31.753053173808));
#1065=CARTESIAN_POINT('Origin',(0.,24.,31.753053173808));
#1066=CARTESIAN_POINT('Origin',(0.,23.5,47.5));
#1067=CARTESIAN_POINT('',(-6.92820323027551,23.5,25.2871587343598));
#1068=CARTESIAN_POINT('',(6.92820323027551,23.5,25.2871587343598));
#1069=CARTESIAN_POINT('',(3.46410161513776,23.5,25.2871587343598));
#1070=CARTESIAN_POINT('',(6.92820323027551,23.5,0.));
#1071=CARTESIAN_POINT('',(-6.92820323027551,23.5,0.));
#1072=CARTESIAN_POINT('Origin',(6.92820323027551,23.5,25.2871587343598));
#1073=CARTESIAN_POINT('',(-6.92820323027551,29.5,25.2871587343598));
#1074=CARTESIAN_POINT('',(-6.92820323027551,23.5,25.2871587343598));
#1075=CARTESIAN_POINT('',(6.92820323027551,29.5,25.2871587343598));
#1076=CARTESIAN_POINT('',(-6.92820323027551,29.5,25.2871587343598));
#1077=CARTESIAN_POINT('',(6.92820323027551,23.5,25.2871587343598));
#1078=CARTESIAN_POINT('Origin',(-4.00000005960464,23.5,28.0000004172325));
#1079=CARTESIAN_POINT('',(4.00000005960464,20.6155281165233,28.0000004172325));
#1080=CARTESIAN_POINT('',(-4.00000005960464,20.6155281165233,28.0000004172325));
#1081=CARTESIAN_POINT('Origin',(0.,0.,28.0000004172325));
#1082=CARTESIAN_POINT('',(4.00000005960464,24.,28.0000004172325));
#1083=CARTESIAN_POINT('',(4.00000005960464,23.5,28.0000004172325));
#1084=CARTESIAN_POINT('',(-4.00000005960464,24.,28.0000004172325));
#1085=CARTESIAN_POINT('',(-4.00000005960464,24.,28.0000004172325));
#1086=CARTESIAN_POINT('',(-4.00000005960464,23.5,28.0000004172325));
#1087=CARTESIAN_POINT('Origin',(-6.92820323027551,23.5,25.2871587343598));
#1088=CARTESIAN_POINT('',(-6.92820323027551,23.5,41.417153172148));
#1089=CARTESIAN_POINT('',(-6.92820323027551,29.5,41.417153172148));
#1090=CARTESIAN_POINT('',(-6.92820323027551,26.5,41.417153172148));
#1091=CARTESIAN_POINT('',(-6.92820323027551,29.5,69.6263582284626));
#1092=CARTESIAN_POINT('',(-6.92820323027551,23.5,0.));
#1093=CARTESIAN_POINT('Origin',(0.,29.5,47.4567584814112));
#1094=CARTESIAN_POINT('',(6.92820323027551,29.5,41.417153172148));
#1095=CARTESIAN_POINT('',(-3.46410161513776,29.5,41.417153172148));
#1096=CARTESIAN_POINT('',(6.92820323027551,29.5,25.2871587343598));
#1097=CARTESIAN_POINT('Origin',(0.,24.,47.5000007078052));
#1098=CARTESIAN_POINT('',(4.00000005960464,24.,41.417153172148));
#1099=CARTESIAN_POINT('',(-4.00000005960464,24.,41.417153172148));
#1100=CARTESIAN_POINT('',(-3.46410161513776,24.,41.417153172148));
#1101=CARTESIAN_POINT('',(-4.00000005960464,24.,67.0000009983778));
#1102=CARTESIAN_POINT('',(4.00000005960464,24.,28.0000004172325));
#1103=CARTESIAN_POINT('Origin',(4.00000005960464,23.5,28.0000004172325));
#1104=CARTESIAN_POINT('',(4.00000005960464,20.6155281165233,41.417153172148));
#1105=CARTESIAN_POINT('',(4.00000005960464,26.5,41.417153172148));
#1106=CARTESIAN_POINT('',(4.00000005960464,20.6155281165233,0.));
#1107=CARTESIAN_POINT('Origin',(-4.00000005960464,23.5,67.0000009983778));
#1108=CARTESIAN_POINT('',(-4.00000005960464,20.6155281165233,41.417153172148));
#1109=CARTESIAN_POINT('',(-4.00000005960464,26.5,41.417153172148));
#1110=CARTESIAN_POINT('',(-4.00000005960464,20.6155281165233,0.));
#1111=CARTESIAN_POINT('Origin',(6.92820323027551,20.75,47.5));
#1112=CARTESIAN_POINT('',(6.92820323027551,23.5,41.417153172148));
#1113=CARTESIAN_POINT('',(6.92820323027551,23.5,0.));
#1114=CARTESIAN_POINT('',(6.92820323027551,29.5,41.417153172148));
#1115=CARTESIAN_POINT('Origin',(0.,0.,0.));
#1116=CARTESIAN_POINT('Origin',(0.,0.,41.417153172148));
#1117=CARTESIAN_POINT('Origin',(0.,0.,0.));
#1118=CARTESIAN_POINT('Origin',(-7.21590306650916,20.75,41.417153172148));
#1119=CARTESIAN_POINT('Origin',(0.,0.,41.417153172148));
#1120=CARTESIAN_POINT('',(6.92820323027551,19.824227601599,41.417153172148));
#1121=CARTESIAN_POINT('Origin',(0.,0.,41.417153172148));
#1122=CARTESIAN_POINT('',(6.92820323027551,20.75,41.417153172148));
#1123=CARTESIAN_POINT('Origin',(6.92820323027551,20.75,47.5));
#1124=CARTESIAN_POINT('',(6.92820323027551,19.824227601599,53.6263582284626));
#1125=CARTESIAN_POINT('',(6.92820323027551,19.824227601599,0.));
#1126=CARTESIAN_POINT('',(6.92820323027551,23.5,53.6263582284626));
#1127=CARTESIAN_POINT('',(6.92820323027551,29.5,53.6263582284626));
#1128=CARTESIAN_POINT('',(6.92820323027551,23.5,0.));
#1129=CARTESIAN_POINT('Origin',(0.,0.,0.));
#1130=CARTESIAN_POINT('',(6.92820323027551,23.5,95.));
#1131=CARTESIAN_POINT('',(6.92820323027551,23.5,89.));
#1132=CARTESIAN_POINT('',(6.92820323027551,23.5,0.));
#1133=CARTESIAN_POINT('',(21.3600093632938,12.,95.));
#1134=CARTESIAN_POINT('Origin',(0.,0.,95.));
#1135=CARTESIAN_POINT('',(21.3600093632938,12.,0.));
#1136=CARTESIAN_POINT('',(21.3600093632938,12.,0.));
#1137=CARTESIAN_POINT('Origin',(0.,0.,0.));
#1138=CARTESIAN_POINT('',(6.92820323027551,23.5,69.6263582284626));
#1139=CARTESIAN_POINT('',(6.92820323027551,23.5,0.));
#1140=CARTESIAN_POINT('',(6.92820323027551,23.5,0.));
#1141=CARTESIAN_POINT('Origin',(0.,0.,0.));
#1142=CARTESIAN_POINT('',(17.2336879396141,12.,0.));
#1143=CARTESIAN_POINT('',(0.,12.,0.));
#1144=CARTESIAN_POINT('Origin',(0.,0.,0.));
#1145=CARTESIAN_POINT('Origin',(0.,12.,47.5));
#1146=CARTESIAN_POINT('',(17.2336879396141,12.,95.));
#1147=CARTESIAN_POINT('',(0.,12.,95.));
#1148=CARTESIAN_POINT('',(17.2336879396141,12.,0.));
#1149=CARTESIAN_POINT('Origin',(6.92820323027551,20.75,47.5));
#1150=CARTESIAN_POINT('',(6.92820323027551,29.5,53.6263582284626));
#1151=CARTESIAN_POINT('',(6.92820323027551,29.5,53.6263582284626));
#1152=CARTESIAN_POINT('',(6.92820323027551,29.5,69.6263582284626));
#1153=CARTESIAN_POINT('',(6.92820323027551,29.5,25.2871587343598));
#1154=CARTESIAN_POINT('',(6.92820323027551,23.5,69.6263582284626));
#1155=CARTESIAN_POINT('Origin',(0.,0.,0.));
#1156=CARTESIAN_POINT('',(-21.3600093632938,12.,53.6263582284626));
#1157=CARTESIAN_POINT('',(-6.92820323027551,23.5,53.6263582284626));
#1158=CARTESIAN_POINT('Origin',(0.,0.,53.6263582284626));
#1159=CARTESIAN_POINT('',(-21.3600093632938,12.,95.));
#1160=CARTESIAN_POINT('',(-21.3600093632938,12.,0.));
#1161=CARTESIAN_POINT('',(-6.92820323027551,23.5,95.));
#1162=CARTESIAN_POINT('Origin',(0.,0.,95.));
#1163=CARTESIAN_POINT('',(-6.92820323027551,23.5,89.));
#1164=CARTESIAN_POINT('',(-6.92820323027551,23.5,0.));
#1165=CARTESIAN_POINT('',(-6.92820323027551,23.5,69.6263582284626));
#1166=CARTESIAN_POINT('',(-6.92820323027551,23.5,0.));
#1167=CARTESIAN_POINT('',(-6.92820323027551,23.5,0.));
#1168=CARTESIAN_POINT('Origin',(0.,0.,95.));
#1169=CARTESIAN_POINT('',(6.92820323027551,29.5,95.));
#1170=CARTESIAN_POINT('',(6.92820323027551,10.375,95.));
#1171=CARTESIAN_POINT('',(-6.92820323027551,29.5,95.));
#1172=CARTESIAN_POINT('',(6.92820323027551,29.5,95.));
#1173=CARTESIAN_POINT('',(-6.92820323027551,23.5,95.));
#1174=CARTESIAN_POINT('',(-17.2336879396141,12.,95.));
#1175=CARTESIAN_POINT('',(0.,12.,95.));
#1176=CARTESIAN_POINT('Origin',(0.,0.,95.));
#1177=CARTESIAN_POINT('Origin',(0.,23.5,47.5));
#1178=CARTESIAN_POINT('',(-3.46410161513776,23.5,69.6263582284626));
#1179=CARTESIAN_POINT('',(3.46410161513776,23.5,89.));
#1180=CARTESIAN_POINT('Origin',(0.,29.5,92.));
#1181=CARTESIAN_POINT('',(6.92820323027551,29.5,89.));
#1182=CARTESIAN_POINT('',(-6.92820323027551,29.5,89.));
#1183=CARTESIAN_POINT('',(-6.92820323027551,29.5,89.));
#1184=CARTESIAN_POINT('',(-6.92820323027551,29.5,95.));
#1185=CARTESIAN_POINT('',(6.92820323027551,29.5,89.));
#1186=CARTESIAN_POINT('Origin',(6.92820323027551,23.5,89.));
#1187=CARTESIAN_POINT('',(-6.92820323027551,23.5,89.));
#1188=CARTESIAN_POINT('',(6.92820323027551,23.5,89.));
#1189=CARTESIAN_POINT('Origin',(-6.92820323027551,23.5,89.));
#1190=CARTESIAN_POINT('Origin',(0.,23.5,63.653053173808));
#1191=CARTESIAN_POINT('',(1.9,29.5,63.653053173808));
#1192=CARTESIAN_POINT('Origin',(0.,29.5,63.653053173808));
#1193=CARTESIAN_POINT('',(1.9,24.,63.653053173808));
#1194=CARTESIAN_POINT('',(1.9,23.5,63.653053173808));
#1195=CARTESIAN_POINT('Origin',(0.,24.,63.653053173808));
#1196=CARTESIAN_POINT('Origin',(-6.92820323027551,23.5,69.6263582284626));
#1197=CARTESIAN_POINT('',(-6.92820323027551,29.5,69.6263582284626));
#1198=CARTESIAN_POINT('',(6.92820323027551,29.5,69.6263582284626));
#1199=CARTESIAN_POINT('',(-6.92820323027551,23.5,69.6263582284626));
#1200=CARTESIAN_POINT('Origin',(4.00000005960464,23.5,67.0000009983778));
#1201=CARTESIAN_POINT('',(-4.00000005960464,20.6155281165233,67.0000009983778));
#1202=CARTESIAN_POINT('',(4.00000005960464,20.6155281165233,67.0000009983778));
#1203=CARTESIAN_POINT('Origin',(0.,0.,67.0000009983778));
#1204=CARTESIAN_POINT('',(-4.00000005960464,24.,67.0000009983778));
#1205=CARTESIAN_POINT('',(-4.00000005960464,23.5,67.0000009983778));
#1206=CARTESIAN_POINT('',(4.00000005960464,24.,67.0000009983778));
#1207=CARTESIAN_POINT('',(4.00000005960464,24.,67.0000009983778));
#1208=CARTESIAN_POINT('',(4.00000005960464,23.5,67.0000009983778));
#1209=CARTESIAN_POINT('Origin',(-4.00000005960464,23.5,67.0000009983778));
#1210=CARTESIAN_POINT('',(-4.00000005960464,20.6155281165233,53.6263582284626));
#1211=CARTESIAN_POINT('',(-4.00000005960464,24.,53.6263582284626));
#1212=CARTESIAN_POINT('',(-4.00000005960464,26.5,53.6263582284626));
#1213=CARTESIAN_POINT('',(-4.00000005960464,24.,67.0000009983778));
#1214=CARTESIAN_POINT('',(-4.00000005960464,20.6155281165233,0.));
#1215=CARTESIAN_POINT('Origin',(-6.92820323027551,23.5,25.2871587343598));
#1216=CARTESIAN_POINT('',(-6.92820323027551,29.5,53.6263582284626));
#1217=CARTESIAN_POINT('',(-6.92820323027551,26.5,53.6263582284626));
#1218=CARTESIAN_POINT('',(-6.92820323027551,29.5,69.6263582284626));
#1219=CARTESIAN_POINT('Origin',(0.,29.5,47.4567584814112));
#1220=CARTESIAN_POINT('',(3.46410161513776,29.5,53.6263582284626));
#1221=CARTESIAN_POINT('Origin',(0.,24.,47.5000007078052));
#1222=CARTESIAN_POINT('',(4.00000005960464,24.,53.6263582284626));
#1223=CARTESIAN_POINT('',(3.46410161513776,24.,53.6263582284626));
#1224=CARTESIAN_POINT('',(4.00000005960464,24.,28.0000004172325));
#1225=CARTESIAN_POINT('Origin',(4.00000005960464,23.5,28.0000004172325));
#1226=CARTESIAN_POINT('',(4.00000005960464,20.6155281165233,53.6263582284626));
#1227=CARTESIAN_POINT('',(4.00000005960464,26.5,53.6263582284626));
#1228=CARTESIAN_POINT('',(4.00000005960464,20.6155281165233,0.));
#1229=CARTESIAN_POINT('Origin',(6.92820323027551,29.5,53.6263582284626));
#1230=CARTESIAN_POINT('',(-17.2336879396141,12.,53.6263582284626));
#1231=CARTESIAN_POINT('Origin',(0.,0.,53.6263582284626));
#1232=CARTESIAN_POINT('',(-3.60795153325458,12.,53.6263582284626));
#1233=CARTESIAN_POINT('Origin',(0.,0.,53.6263582284626));
#1234=CARTESIAN_POINT('Origin',(6.92820323027551,20.75,47.5));
#1235=CARTESIAN_POINT('Origin',(0.,0.,0.));
#1236=CARTESIAN_POINT('',(-17.2336879396141,12.,0.));
#1237=CARTESIAN_POINT('Origin',(0.,12.,47.5));
#1238=UNCERTAINTY_MEASURE_WITH_UNIT(LENGTH_MEASURE(0.01),#1242,
'DISTANCE_ACCURACY_VALUE',
'Maximum model space distance between geometric entities at asserted c
onnectivities');
#1239=UNCERTAINTY_MEASURE_WITH_UNIT(LENGTH_MEASURE(0.01),#1242,
'DISTANCE_ACCURACY_VALUE',
'Maximum model space distance between geometric entities at asserted c
onnectivities');
#1240=(
GEOMETRIC_REPRESENTATION_CONTEXT(3)
GLOBAL_UNCERTAINTY_ASSIGNED_CONTEXT((#1238))
GLOBAL_UNIT_ASSIGNED_CONTEXT((#1242,#1244,#1245))
REPRESENTATION_CONTEXT('','3D')
);
#1241=(
GEOMETRIC_REPRESENTATION_CONTEXT(3)
GLOBAL_UNCERTAINTY_ASSIGNED_CONTEXT((#1239))
GLOBAL_UNIT_ASSIGNED_CONTEXT((#1242,#1244,#1245))
REPRESENTATION_CONTEXT('','3D')
);
#1242=(
LENGTH_UNIT()
NAMED_UNIT(*)
SI_UNIT(.MILLI.,.METRE.)
);
#1243=(
LENGTH_UNIT()
NAMED_UNIT(*)
SI_UNIT($,.METRE.)
);
#1244=(
NAMED_UNIT(*)
PLANE_ANGLE_UNIT()
SI_UNIT($,.RADIAN.)
);
#1245=(
NAMED_UNIT(*)
SI_UNIT($,.STERADIAN.)
SOLID_ANGLE_UNIT()
);
#1246=SHAPE_DEFINITION_REPRESENTATION(#1247,#1248);
#1247=PRODUCT_DEFINITION_SHAPE('',$,#1250);
#1248=SHAPE_REPRESENTATION('',(#764),#1240);
#1249=PRODUCT_DEFINITION_CONTEXT('part definition',#1254,'design');
#1250=PRODUCT_DEFINITION('2026-06-25-10-18-53-175','Motorholder1',#1251,
#1249);
#1251=PRODUCT_DEFINITION_FORMATION('',$,#1256);
#1252=PRODUCT_RELATED_PRODUCT_CATEGORY('Motorholder1','Motorholder1',(#1256));
#1253=APPLICATION_PROTOCOL_DEFINITION('international standard',
'automotive_design',2009,#1254);
#1254=APPLICATION_CONTEXT(
'Core Data for Automotive Mechanical Design Process');
#1255=PRODUCT_CONTEXT('part definition',#1254,'mechanical');
#1256=PRODUCT('2026-06-25-10-18-53-175','Motorholder1',$,(#1255));
#1257=PRESENTATION_STYLE_ASSIGNMENT((#1258));
#1258=SURFACE_STYLE_USAGE(.BOTH.,#1259);
#1259=SURFACE_SIDE_STYLE('',(#1260));
#1260=SURFACE_STYLE_FILL_AREA(#1261);
#1261=FILL_AREA_STYLE('Steel - Satin',(#1262));
#1262=FILL_AREA_STYLE_COLOUR('Steel - Satin',#1263);
#1263=COLOUR_RGB('Steel - Satin',0.627450980392157,0.627450980392157,0.627450980392157);
ENDSEC;
END-ISO-10303-21;
