ISO-10303-21;
HEADER;
/* Generated by software containing ST-Developer
 * from STEP Tools, Inc. (www.steptools.com) 
 */

FILE_DESCRIPTION(
/* description */ (''),
/* implementation_level */ '2;1');

FILE_NAME(
/* name */ 'Motortop2.step',
/* time_stamp */ '2026-06-25T14:30:25-04:00',
/* author */ (''),
/* organization */ (''),
/* preprocessor_version */ 'ST-DEVELOPER v20.1',
/* originating_system */ 'Autodesk Translation Framework v15.8.0.0',
/* authorisation */ '');

FILE_SCHEMA (('AUTOMOTIVE_DESIGN { 1 0 10303 214 3 1 1 }'));
ENDSEC;

DATA;
#10=MECHANICAL_DESIGN_GEOMETRIC_PRESENTATION_REPRESENTATION('',(#13),#533);
#11=SHAPE_REPRESENTATION_RELATIONSHIP('SRR','None',#540,#12);
#12=ADVANCED_BREP_SHAPE_REPRESENTATION('',(#14),#532);
#13=STYLED_ITEM('',(#549),#14);
#14=MANIFOLD_SOLID_BREP('Body1',#230);
#15=PLANE('',#250);
#16=PLANE('',#254);
#17=PLANE('',#263);
#18=PLANE('',#270);
#19=FACE_BOUND('',#76,.T.);
#20=FACE_BOUND('',#77,.T.);
#21=FACE_BOUND('',#79,.T.);
#22=FACE_BOUND('',#80,.T.);
#23=FACE_BOUND('',#81,.T.);
#24=FACE_BOUND('',#83,.T.);
#25=FACE_BOUND('',#87,.T.);
#26=FACE_BOUND('',#88,.T.);
#27=FACE_BOUND('',#91,.T.);
#28=FACE_BOUND('',#96,.T.);
#29=FACE_BOUND('',#97,.T.);
#30=FACE_BOUND('',#98,.T.);
#31=B_SPLINE_CURVE_WITH_KNOTS('',3,(#347,#348,#349,#350,#351,#352,#353,
#354,#355,#356,#357,#358,#359,#360,#361,#362,#363,#364,#365,#366,#367,#368,
#369,#370,#371,#372,#373,#374,#375,#376,#377,#378,#379,#380),
 .UNSPECIFIED.,.T.,.F.,(4,2,2,2,2,2,2,2,2,2,2,2,2,2,2,2,4),(0.,0.0760718567432295,
0.152143713486459,0.228170892209807,0.304198070933155,0.380225249656503,
0.456252428379851,0.53232428512308,0.60839614186631,0.684467998609539,0.760539855352769,
0.836567034076117,0.912594212799465,0.988621391522813,1.06464857024616,
1.14072042698939,1.21679228373262),.UNSPECIFIED.);
#32=B_SPLINE_CURVE_WITH_KNOTS('',3,(#383,#384,#385,#386,#387,#388,#389,
#390,#391,#392,#393,#394,#395,#396,#397,#398,#399,#400),.UNSPECIFIED.,.F.,
 .F.,(4,2,2,2,2,2,2,2,4),(0.,0.0760718567432294,0.152143713486459,0.228170892209807,
0.304198070933155,0.380225249656503,0.456252428379851,0.532324285123081,
0.60839614186631),.UNSPECIFIED.);
#33=B_SPLINE_CURVE_WITH_KNOTS('',3,(#401,#402,#403,#404,#405,#406,#407,
#408,#409,#410,#411,#412,#413,#414,#415,#416,#417,#418),.UNSPECIFIED.,.F.,
 .F.,(4,2,2,2,2,2,2,2,4),(0.60839614186631,0.684467998609539,0.760539855352769,
0.836567034076117,0.912594212799465,0.988621391522813,1.06464857024616,
1.14072042698939,1.21679228373262),.UNSPECIFIED.);
#34=B_SPLINE_CURVE_WITH_KNOTS('',3,(#433,#434,#435,#436,#437,#438,#439,
#440,#441,#442,#443,#444,#445,#446,#447,#448,#449,#450,#451,#452,#453,#454,
#455,#456,#457,#458,#459,#460,#461,#462,#463,#464,#465,#466),
 .UNSPECIFIED.,.T.,.F.,(4,2,2,2,2,2,2,2,2,2,2,2,2,2,2,2,4),(0.,0.0771174698282339,
0.154234939656468,0.231109177321458,0.307983414986449,0.38485765265144,
0.46173189031643,0.538849360144664,0.615966829972898,0.693084299801132,
0.770201769629366,0.847076007294357,0.923950244959347,1.00082448262434,
1.07769872028933,1.15481619011756,1.2319336599458),.UNSPECIFIED.);
#35=B_SPLINE_CURVE_WITH_KNOTS('',3,(#471,#472,#473,#474,#475,#476,#477,
#478,#479,#480,#481,#482,#483,#484,#485,#486,#487,#488),.UNSPECIFIED.,.F.,
 .F.,(4,2,2,2,2,2,2,2,4),(0.,0.0771174698282339,0.154234939656468,0.231109177321458,
0.307983414986449,0.38485765265144,0.46173189031643,0.538849360144664,0.615966829972898),
 .UNSPECIFIED.);
#36=B_SPLINE_CURVE_WITH_KNOTS('',3,(#489,#490,#491,#492,#493,#494,#495,
#496,#497,#498,#499,#500,#501,#502,#503,#504,#505,#506),.UNSPECIFIED.,.F.,
 .F.,(4,2,2,2,2,2,2,2,4),(0.615966829972898,0.693084299801132,0.770201769629366,
0.847076007294356,0.923950244959347,1.00082448262434,1.07769872028933,1.15481619011756,
1.2319336599458),.UNSPECIFIED.);
#37=LINE('',#345,#45);
#38=LINE('',#467,#46);
#39=LINE('',#507,#47);
#40=LINE('',#511,#48);
#41=LINE('',#515,#49);
#42=LINE('',#519,#50);
#43=LINE('',#523,#51);
#44=LINE('',#527,#52);
#45=VECTOR('',#285,5.675);
#46=VECTOR('',#302,2.);
#47=VECTOR('',#305,2.);
#48=VECTOR('',#310,3.875);
#49=VECTOR('',#315,5.625);
#50=VECTOR('',#320,1.9);
#51=VECTOR('',#325,1.9);
#52=VECTOR('',#330,18.);
#53=CYLINDRICAL_SURFACE('',#248,5.675);
#54=CYLINDRICAL_SURFACE('',#257,2.);
#55=CYLINDRICAL_SURFACE('',#258,2.);
#56=CYLINDRICAL_SURFACE('',#259,3.875);
#57=CYLINDRICAL_SURFACE('',#261,5.625);
#58=CYLINDRICAL_SURFACE('',#264,1.9);
#59=CYLINDRICAL_SURFACE('',#266,1.9);
#60=CYLINDRICAL_SURFACE('',#268,18.);
#61=FACE_OUTER_BOUND('',#74,.T.);
#62=FACE_OUTER_BOUND('',#75,.T.);
#63=FACE_OUTER_BOUND('',#78,.T.);
#64=FACE_OUTER_BOUND('',#82,.T.);
#65=FACE_OUTER_BOUND('',#84,.T.);
#66=FACE_OUTER_BOUND('',#85,.T.);
#67=FACE_OUTER_BOUND('',#86,.T.);
#68=FACE_OUTER_BOUND('',#89,.T.);
#69=FACE_OUTER_BOUND('',#90,.T.);
#70=FACE_OUTER_BOUND('',#92,.T.);
#71=FACE_OUTER_BOUND('',#93,.T.);
#72=FACE_OUTER_BOUND('',#94,.T.);
#73=FACE_OUTER_BOUND('',#95,.T.);
#74=EDGE_LOOP('',(#160,#161,#162,#163));
#75=EDGE_LOOP('',(#164,#165,#166,#167));
#76=EDGE_LOOP('',(#168));
#77=EDGE_LOOP('',(#169,#170));
#78=EDGE_LOOP('',(#171));
#79=EDGE_LOOP('',(#172));
#80=EDGE_LOOP('',(#173));
#81=EDGE_LOOP('',(#174));
#82=EDGE_LOOP('',(#175));
#83=EDGE_LOOP('',(#176));
#84=EDGE_LOOP('',(#177,#178,#179,#180,#181));
#85=EDGE_LOOP('',(#182,#183,#184,#185,#186));
#86=EDGE_LOOP('',(#187,#188,#189,#190));
#87=EDGE_LOOP('',(#191));
#88=EDGE_LOOP('',(#192,#193));
#89=EDGE_LOOP('',(#194,#195,#196,#197));
#90=EDGE_LOOP('',(#198));
#91=EDGE_LOOP('',(#199));
#92=EDGE_LOOP('',(#200,#201,#202,#203));
#93=EDGE_LOOP('',(#204,#205,#206,#207));
#94=EDGE_LOOP('',(#208,#209,#210,#211));
#95=EDGE_LOOP('',(#212));
#96=EDGE_LOOP('',(#213));
#97=EDGE_LOOP('',(#214));
#98=EDGE_LOOP('',(#215));
#99=CIRCLE('',#245,5.675);
#100=CIRCLE('',#246,1.);
#101=CIRCLE('',#247,6.675);
#102=CIRCLE('',#249,5.675);
#103=CIRCLE('',#251,18.);
#104=CIRCLE('',#252,1.9);
#105=CIRCLE('',#253,1.9);
#106=CIRCLE('',#255,5.625);
#107=CIRCLE('',#256,3.875);
#108=CIRCLE('',#260,3.875);
#109=CIRCLE('',#262,5.625);
#110=CIRCLE('',#265,1.9);
#111=CIRCLE('',#267,1.9);
#112=CIRCLE('',#269,18.);
#113=VERTEX_POINT('',#337);
#114=VERTEX_POINT('',#339);
#115=VERTEX_POINT('',#343);
#116=VERTEX_POINT('',#346);
#117=VERTEX_POINT('',#381);
#118=VERTEX_POINT('',#382);
#119=VERTEX_POINT('',#420);
#120=VERTEX_POINT('',#422);
#121=VERTEX_POINT('',#424);
#122=VERTEX_POINT('',#427);
#123=VERTEX_POINT('',#429);
#124=VERTEX_POINT('',#432);
#125=VERTEX_POINT('',#469);
#126=VERTEX_POINT('',#470);
#127=VERTEX_POINT('',#509);
#128=VERTEX_POINT('',#513);
#129=VERTEX_POINT('',#518);
#130=VERTEX_POINT('',#522);
#131=VERTEX_POINT('',#526);
#132=EDGE_CURVE('',#113,#113,#99,.T.);
#133=EDGE_CURVE('',#113,#114,#100,.T.);
#134=EDGE_CURVE('',#114,#114,#101,.T.);
#135=EDGE_CURVE('',#115,#115,#102,.T.);
#136=EDGE_CURVE('',#115,#113,#37,.T.);
#137=EDGE_CURVE('',#116,#116,#31,.T.);
#138=EDGE_CURVE('',#117,#118,#32,.T.);
#139=EDGE_CURVE('',#118,#117,#33,.T.);
#140=EDGE_CURVE('',#119,#119,#103,.T.);
#141=EDGE_CURVE('',#120,#120,#104,.T.);
#142=EDGE_CURVE('',#121,#121,#105,.T.);
#143=EDGE_CURVE('',#122,#122,#106,.T.);
#144=EDGE_CURVE('',#123,#123,#107,.T.);
#145=EDGE_CURVE('',#124,#124,#34,.T.);
#146=EDGE_CURVE('',#124,#118,#38,.T.);
#147=EDGE_CURVE('',#125,#126,#35,.T.);
#148=EDGE_CURVE('',#126,#125,#36,.T.);
#149=EDGE_CURVE('',#126,#116,#39,.T.);
#150=EDGE_CURVE('',#127,#127,#108,.T.);
#151=EDGE_CURVE('',#127,#123,#40,.T.);
#152=EDGE_CURVE('',#128,#128,#109,.T.);
#153=EDGE_CURVE('',#128,#122,#41,.T.);
#154=EDGE_CURVE('',#121,#129,#42,.T.);
#155=EDGE_CURVE('',#129,#129,#110,.T.);
#156=EDGE_CURVE('',#120,#130,#43,.T.);
#157=EDGE_CURVE('',#130,#130,#111,.T.);
#158=EDGE_CURVE('',#119,#131,#44,.T.);
#159=EDGE_CURVE('',#131,#131,#112,.T.);
#160=ORIENTED_EDGE('',*,*,#132,.T.);
#161=ORIENTED_EDGE('',*,*,#133,.T.);
#162=ORIENTED_EDGE('',*,*,#134,.T.);
#163=ORIENTED_EDGE('',*,*,#133,.F.);
#164=ORIENTED_EDGE('',*,*,#135,.F.);
#165=ORIENTED_EDGE('',*,*,#136,.T.);
#166=ORIENTED_EDGE('',*,*,#132,.F.);
#167=ORIENTED_EDGE('',*,*,#136,.F.);
#168=ORIENTED_EDGE('',*,*,#137,.T.);
#169=ORIENTED_EDGE('',*,*,#138,.T.);
#170=ORIENTED_EDGE('',*,*,#139,.T.);
#171=ORIENTED_EDGE('',*,*,#140,.T.);
#172=ORIENTED_EDGE('',*,*,#141,.T.);
#173=ORIENTED_EDGE('',*,*,#142,.T.);
#174=ORIENTED_EDGE('',*,*,#134,.F.);
#175=ORIENTED_EDGE('',*,*,#143,.F.);
#176=ORIENTED_EDGE('',*,*,#144,.F.);
#177=ORIENTED_EDGE('',*,*,#145,.F.);
#178=ORIENTED_EDGE('',*,*,#146,.T.);
#179=ORIENTED_EDGE('',*,*,#138,.F.);
#180=ORIENTED_EDGE('',*,*,#139,.F.);
#181=ORIENTED_EDGE('',*,*,#146,.F.);
#182=ORIENTED_EDGE('',*,*,#147,.F.);
#183=ORIENTED_EDGE('',*,*,#148,.F.);
#184=ORIENTED_EDGE('',*,*,#149,.T.);
#185=ORIENTED_EDGE('',*,*,#137,.F.);
#186=ORIENTED_EDGE('',*,*,#149,.F.);
#187=ORIENTED_EDGE('',*,*,#150,.F.);
#188=ORIENTED_EDGE('',*,*,#151,.T.);
#189=ORIENTED_EDGE('',*,*,#144,.T.);
#190=ORIENTED_EDGE('',*,*,#151,.F.);
#191=ORIENTED_EDGE('',*,*,#145,.T.);
#192=ORIENTED_EDGE('',*,*,#147,.T.);
#193=ORIENTED_EDGE('',*,*,#148,.T.);
#194=ORIENTED_EDGE('',*,*,#152,.F.);
#195=ORIENTED_EDGE('',*,*,#153,.T.);
#196=ORIENTED_EDGE('',*,*,#143,.T.);
#197=ORIENTED_EDGE('',*,*,#153,.F.);
#198=ORIENTED_EDGE('',*,*,#135,.T.);
#199=ORIENTED_EDGE('',*,*,#150,.T.);
#200=ORIENTED_EDGE('',*,*,#142,.F.);
#201=ORIENTED_EDGE('',*,*,#154,.T.);
#202=ORIENTED_EDGE('',*,*,#155,.F.);
#203=ORIENTED_EDGE('',*,*,#154,.F.);
#204=ORIENTED_EDGE('',*,*,#141,.F.);
#205=ORIENTED_EDGE('',*,*,#156,.T.);
#206=ORIENTED_EDGE('',*,*,#157,.F.);
#207=ORIENTED_EDGE('',*,*,#156,.F.);
#208=ORIENTED_EDGE('',*,*,#140,.F.);
#209=ORIENTED_EDGE('',*,*,#158,.T.);
#210=ORIENTED_EDGE('',*,*,#159,.T.);
#211=ORIENTED_EDGE('',*,*,#158,.F.);
#212=ORIENTED_EDGE('',*,*,#159,.F.);
#213=ORIENTED_EDGE('',*,*,#152,.T.);
#214=ORIENTED_EDGE('',*,*,#155,.T.);
#215=ORIENTED_EDGE('',*,*,#157,.T.);
#216=TOROIDAL_SURFACE('',#244,6.675,1.);
#217=ADVANCED_FACE('',(#61),#216,.F.);
#218=ADVANCED_FACE('',(#62,#19,#20),#53,.T.);
#219=ADVANCED_FACE('',(#63,#21,#22,#23),#15,.T.);
#220=ADVANCED_FACE('',(#64,#24),#16,.T.);
#221=ADVANCED_FACE('',(#65),#54,.F.);
#222=ADVANCED_FACE('',(#66),#55,.F.);
#223=ADVANCED_FACE('',(#67,#25,#26),#56,.F.);
#224=ADVANCED_FACE('',(#68),#57,.F.);
#225=ADVANCED_FACE('',(#69,#27),#17,.T.);
#226=ADVANCED_FACE('',(#70),#58,.F.);
#227=ADVANCED_FACE('',(#71),#59,.F.);
#228=ADVANCED_FACE('',(#72),#60,.T.);
#229=ADVANCED_FACE('',(#73,#28,#29,#30),#18,.F.);
#230=CLOSED_SHELL('',(#217,#218,#219,#220,#221,#222,#223,#224,#225,#226,
#227,#228,#229));
#231=DERIVED_UNIT_ELEMENT(#233,1.);
#232=DERIVED_UNIT_ELEMENT(#535,-3.);
#233=(
MASS_UNIT()
NAMED_UNIT(*)
SI_UNIT(.KILO.,.GRAM.)
);
#234=DERIVED_UNIT((#231,#232));
#235=MEASURE_REPRESENTATION_ITEM('density measure',
POSITIVE_RATIO_MEASURE(7850.),#234);
#236=PROPERTY_DEFINITION_REPRESENTATION(#241,#238);
#237=PROPERTY_DEFINITION_REPRESENTATION(#242,#239);
#238=REPRESENTATION('material name',(#240),#532);
#239=REPRESENTATION('density',(#235),#532);
#240=DESCRIPTIVE_REPRESENTATION_ITEM('Steel','Steel');
#241=PROPERTY_DEFINITION('material property','material name',#542);
#242=PROPERTY_DEFINITION('material property','density of part',#542);
#243=AXIS2_PLACEMENT_3D('',#335,#271,#272);
#244=AXIS2_PLACEMENT_3D('',#336,#273,#274);
#245=AXIS2_PLACEMENT_3D('',#338,#275,#276);
#246=AXIS2_PLACEMENT_3D('',#340,#277,#278);
#247=AXIS2_PLACEMENT_3D('',#341,#279,#280);
#248=AXIS2_PLACEMENT_3D('',#342,#281,#282);
#249=AXIS2_PLACEMENT_3D('',#344,#283,#284);
#250=AXIS2_PLACEMENT_3D('',#419,#286,#287);
#251=AXIS2_PLACEMENT_3D('',#421,#288,#289);
#252=AXIS2_PLACEMENT_3D('',#423,#290,#291);
#253=AXIS2_PLACEMENT_3D('',#425,#292,#293);
#254=AXIS2_PLACEMENT_3D('',#426,#294,#295);
#255=AXIS2_PLACEMENT_3D('',#428,#296,#297);
#256=AXIS2_PLACEMENT_3D('',#430,#298,#299);
#257=AXIS2_PLACEMENT_3D('',#431,#300,#301);
#258=AXIS2_PLACEMENT_3D('',#468,#303,#304);
#259=AXIS2_PLACEMENT_3D('',#508,#306,#307);
#260=AXIS2_PLACEMENT_3D('',#510,#308,#309);
#261=AXIS2_PLACEMENT_3D('',#512,#311,#312);
#262=AXIS2_PLACEMENT_3D('',#514,#313,#314);
#263=AXIS2_PLACEMENT_3D('',#516,#316,#317);
#264=AXIS2_PLACEMENT_3D('',#517,#318,#319);
#265=AXIS2_PLACEMENT_3D('',#520,#321,#322);
#266=AXIS2_PLACEMENT_3D('',#521,#323,#324);
#267=AXIS2_PLACEMENT_3D('',#524,#326,#327);
#268=AXIS2_PLACEMENT_3D('',#525,#328,#329);
#269=AXIS2_PLACEMENT_3D('',#528,#331,#332);
#270=AXIS2_PLACEMENT_3D('',#529,#333,#334);
#271=DIRECTION('axis',(0.,0.,1.));
#272=DIRECTION('refdir',(1.,0.,0.));
#273=DIRECTION('center_axis',(0.,0.,-1.));
#274=DIRECTION('ref_axis',(-1.,0.,0.));
#275=DIRECTION('center_axis',(0.,0.,-1.));
#276=DIRECTION('ref_axis',(-1.,0.,0.));
#277=DIRECTION('center_axis',(-1.22464679914735E-16,-1.,0.));
#278=DIRECTION('ref_axis',(1.,-1.22464679914735E-16,0.));
#279=DIRECTION('center_axis',(0.,0.,1.));
#280=DIRECTION('ref_axis',(-1.,0.,0.));
#281=DIRECTION('center_axis',(0.,0.,1.));
#282=DIRECTION('ref_axis',(-1.,0.,0.));
#283=DIRECTION('center_axis',(0.,0.,1.));
#284=DIRECTION('ref_axis',(-1.,0.,0.));
#285=DIRECTION('',(0.,0.,-1.));
#286=DIRECTION('center_axis',(0.,0.,1.));
#287=DIRECTION('ref_axis',(1.,0.,0.));
#288=DIRECTION('center_axis',(0.,0.,1.));
#289=DIRECTION('ref_axis',(1.,0.,0.));
#290=DIRECTION('center_axis',(0.,0.,-1.));
#291=DIRECTION('ref_axis',(-1.,0.,0.));
#292=DIRECTION('center_axis',(0.,0.,-1.));
#293=DIRECTION('ref_axis',(-1.,0.,0.));
#294=DIRECTION('center_axis',(0.,0.,-1.));
#295=DIRECTION('ref_axis',(1.,0.,0.));
#296=DIRECTION('center_axis',(0.,0.,1.));
#297=DIRECTION('ref_axis',(1.,0.,0.));
#298=DIRECTION('center_axis',(0.,0.,-1.));
#299=DIRECTION('ref_axis',(-1.,0.,0.));
#300=DIRECTION('center_axis',(0.,-1.,0.));
#301=DIRECTION('ref_axis',(1.,0.,0.));
#302=DIRECTION('',(0.,-1.,0.));
#303=DIRECTION('center_axis',(0.,1.,0.));
#304=DIRECTION('ref_axis',(1.,0.,0.));
#305=DIRECTION('',(0.,1.,0.));
#306=DIRECTION('center_axis',(0.,0.,-1.));
#307=DIRECTION('ref_axis',(-1.,0.,0.));
#308=DIRECTION('center_axis',(0.,0.,-1.));
#309=DIRECTION('ref_axis',(-1.,0.,0.));
#310=DIRECTION('',(0.,0.,-1.));
#311=DIRECTION('center_axis',(0.,0.,1.));
#312=DIRECTION('ref_axis',(1.,0.,0.));
#313=DIRECTION('center_axis',(0.,0.,1.));
#314=DIRECTION('ref_axis',(1.,0.,0.));
#315=DIRECTION('',(0.,0.,1.));
#316=DIRECTION('center_axis',(0.,0.,1.));
#317=DIRECTION('ref_axis',(-1.,0.,0.));
#318=DIRECTION('center_axis',(0.,0.,-1.));
#319=DIRECTION('ref_axis',(-1.,0.,0.));
#320=DIRECTION('',(0.,0.,-1.));
#321=DIRECTION('center_axis',(0.,0.,1.));
#322=DIRECTION('ref_axis',(-1.,0.,0.));
#323=DIRECTION('center_axis',(0.,0.,-1.));
#324=DIRECTION('ref_axis',(-1.,0.,0.));
#325=DIRECTION('',(0.,0.,-1.));
#326=DIRECTION('center_axis',(0.,0.,1.));
#327=DIRECTION('ref_axis',(-1.,0.,0.));
#328=DIRECTION('center_axis',(0.,0.,1.));
#329=DIRECTION('ref_axis',(1.,0.,0.));
#330=DIRECTION('',(0.,0.,-1.));
#331=DIRECTION('center_axis',(0.,0.,1.));
#332=DIRECTION('ref_axis',(1.,0.,0.));
#333=DIRECTION('center_axis',(0.,0.,1.));
#334=DIRECTION('ref_axis',(1.,0.,0.));
#335=CARTESIAN_POINT('',(0.,0.,0.));
#336=CARTESIAN_POINT('Origin',(0.,0.,11.));
#337=CARTESIAN_POINT('',(5.675,-6.94987058516123E-16,11.));
#338=CARTESIAN_POINT('Origin',(0.,0.,11.));
#339=CARTESIAN_POINT('',(6.675,8.17451738430858E-16,10.));
#340=CARTESIAN_POINT('Origin',(6.675,-8.17451738430858E-16,11.));
#341=CARTESIAN_POINT('Origin',(0.,0.,10.));
#342=CARTESIAN_POINT('Origin',(0.,0.,10.));
#343=CARTESIAN_POINT('',(5.675,6.94987058516123E-16,32.));
#344=CARTESIAN_POINT('Origin',(0.,0.,32.));
#345=CARTESIAN_POINT('',(5.675,6.94987058516123E-16,10.));
#346=CARTESIAN_POINT('',(-2.,5.31089681692273,24.0000003576279));
#347=CARTESIAN_POINT('Ctrl Pts',(-2.,5.31089681692273,24.0000003576279));
#348=CARTESIAN_POINT('Ctrl Pts',(-2.,5.31089681692273,23.7464275018171));
#349=CARTESIAN_POINT('Ctrl Pts',(-1.94887523201786,5.33096905209126,23.4776186041425));
#350=CARTESIAN_POINT('Ctrl Pts',(-1.74413580411984,5.4014197540867,22.9856096858767));
#351=CARTESIAN_POINT('Ctrl Pts',(-1.59062032685701,5.45057169684407,22.7621935597387));
#352=CARTESIAN_POINT('Ctrl Pts',(-1.23791040394362,5.54133050051747,22.4094836368253));
#353=CARTESIAN_POINT('Ctrl Pts',(-1.01445354422207,5.58911403512358,22.2558887023166));
#354=CARTESIAN_POINT('Ctrl Pts',(-0.5222915981964,5.65637014152499,22.0510896237227));
#355=CARTESIAN_POINT('Ctrl Pts',(-0.253423929077826,5.675,22.0000003576279));
#356=CARTESIAN_POINT('Ctrl Pts',(0.253423929077828,5.675,22.0000003576279));
#357=CARTESIAN_POINT('Ctrl Pts',(0.522291598196403,5.65637014152498,22.0510896237227));
#358=CARTESIAN_POINT('Ctrl Pts',(1.01445354422208,5.58911403512358,22.2558887023166));
#359=CARTESIAN_POINT('Ctrl Pts',(1.23791040394362,5.54133050051747,22.4094836368253));
#360=CARTESIAN_POINT('Ctrl Pts',(1.59062032685701,5.45057169684407,22.7621935597387));
#361=CARTESIAN_POINT('Ctrl Pts',(1.74413580411984,5.4014197540867,22.9856096858767));
#362=CARTESIAN_POINT('Ctrl Pts',(1.94887523201786,5.33096905209126,23.4776186041425));
#363=CARTESIAN_POINT('Ctrl Pts',(2.,5.31089681692273,23.7464275018171));
#364=CARTESIAN_POINT('Ctrl Pts',(2.,5.31089681692273,24.2535732134386));
#365=CARTESIAN_POINT('Ctrl Pts',(1.94887523201786,5.33096905209126,24.5223821111132));
#366=CARTESIAN_POINT('Ctrl Pts',(1.74413580411984,5.4014197540867,25.014391029379));
#367=CARTESIAN_POINT('Ctrl Pts',(1.59062032685701,5.45057169684407,25.2378071555171));
#368=CARTESIAN_POINT('Ctrl Pts',(1.23791040394362,5.54133050051747,25.5905170784304));
#369=CARTESIAN_POINT('Ctrl Pts',(1.01445354422207,5.58911403512358,25.7441120129391));
#370=CARTESIAN_POINT('Ctrl Pts',(0.5222915981964,5.65637014152499,25.948911091533));
#371=CARTESIAN_POINT('Ctrl Pts',(0.253423929077827,5.675,26.0000003576279));
#372=CARTESIAN_POINT('Ctrl Pts',(-0.253423929077827,5.675,26.0000003576279));
#373=CARTESIAN_POINT('Ctrl Pts',(-0.5222915981964,5.65637014152499,25.948911091533));
#374=CARTESIAN_POINT('Ctrl Pts',(-1.01445354422207,5.58911403512358,25.7441120129391));
#375=CARTESIAN_POINT('Ctrl Pts',(-1.23791040394362,5.54133050051747,25.5905170784304));
#376=CARTESIAN_POINT('Ctrl Pts',(-1.59062032685701,5.45057169684407,25.2378071555171));
#377=CARTESIAN_POINT('Ctrl Pts',(-1.74413580411984,5.4014197540867,25.014391029379));
#378=CARTESIAN_POINT('Ctrl Pts',(-1.94887523201786,5.33096905209126,24.5223821111132));
#379=CARTESIAN_POINT('Ctrl Pts',(-2.,5.31089681692273,24.2535732134386));
#380=CARTESIAN_POINT('Ctrl Pts',(-2.,5.31089681692273,24.0000003576279));
#381=CARTESIAN_POINT('',(2.,-5.31089681692273,24.0000003576279));
#382=CARTESIAN_POINT('',(-2.,-5.31089681692273,24.0000003576279));
#383=CARTESIAN_POINT('Ctrl Pts',(2.,-5.31089681692273,24.0000003576279));
#384=CARTESIAN_POINT('Ctrl Pts',(2.,-5.31089681692273,23.7464275018171));
#385=CARTESIAN_POINT('Ctrl Pts',(1.94887523201786,-5.33096905209126,23.4776186041425));
#386=CARTESIAN_POINT('Ctrl Pts',(1.74413580411984,-5.4014197540867,22.9856096858767));
#387=CARTESIAN_POINT('Ctrl Pts',(1.59062032685701,-5.45057169684407,22.7621935597387));
#388=CARTESIAN_POINT('Ctrl Pts',(1.23791040394362,-5.54133050051747,22.4094836368253));
#389=CARTESIAN_POINT('Ctrl Pts',(1.01445354422208,-5.58911403512358,22.2558887023166));
#390=CARTESIAN_POINT('Ctrl Pts',(0.522291598196402,-5.65637014152498,22.0510896237227));
#391=CARTESIAN_POINT('Ctrl Pts',(0.253423929077827,-5.675,22.0000003576279));
#392=CARTESIAN_POINT('Ctrl Pts',(-0.253423929077827,-5.675,22.0000003576279));
#393=CARTESIAN_POINT('Ctrl Pts',(-0.522291598196403,-5.65637014152498,22.0510896237227));
#394=CARTESIAN_POINT('Ctrl Pts',(-1.01445354422208,-5.58911403512358,22.2558887023166));
#395=CARTESIAN_POINT('Ctrl Pts',(-1.23791040394362,-5.54133050051747,22.4094836368253));
#396=CARTESIAN_POINT('Ctrl Pts',(-1.59062032685701,-5.45057169684407,22.7621935597387));
#397=CARTESIAN_POINT('Ctrl Pts',(-1.74413580411984,-5.4014197540867,22.9856096858767));
#398=CARTESIAN_POINT('Ctrl Pts',(-1.94887523201786,-5.33096905209126,23.4776186041425));
#399=CARTESIAN_POINT('Ctrl Pts',(-2.,-5.31089681692273,23.7464275018171));
#400=CARTESIAN_POINT('Ctrl Pts',(-2.,-5.31089681692273,24.0000003576279));
#401=CARTESIAN_POINT('Ctrl Pts',(-2.,-5.31089681692273,24.0000003576279));
#402=CARTESIAN_POINT('Ctrl Pts',(-2.,-5.31089681692273,24.2535732134386));
#403=CARTESIAN_POINT('Ctrl Pts',(-1.94887523201786,-5.33096905209126,24.5223821111132));
#404=CARTESIAN_POINT('Ctrl Pts',(-1.74413580411983,-5.4014197540867,25.014391029379));
#405=CARTESIAN_POINT('Ctrl Pts',(-1.59062032685701,-5.45057169684407,25.2378071555171));
#406=CARTESIAN_POINT('Ctrl Pts',(-1.23791040394362,-5.54133050051747,25.5905170784304));
#407=CARTESIAN_POINT('Ctrl Pts',(-1.01445354422208,-5.58911403512358,25.7441120129391));
#408=CARTESIAN_POINT('Ctrl Pts',(-0.522291598196403,-5.65637014152498,25.948911091533));
#409=CARTESIAN_POINT('Ctrl Pts',(-0.253423929077827,-5.675,26.0000003576279));
#410=CARTESIAN_POINT('Ctrl Pts',(0.253423929077827,-5.675,26.0000003576279));
#411=CARTESIAN_POINT('Ctrl Pts',(0.522291598196403,-5.65637014152498,25.948911091533));
#412=CARTESIAN_POINT('Ctrl Pts',(1.01445354422208,-5.58911403512358,25.7441120129391));
#413=CARTESIAN_POINT('Ctrl Pts',(1.23791040394362,-5.54133050051747,25.5905170784304));
#414=CARTESIAN_POINT('Ctrl Pts',(1.59062032685701,-5.45057169684407,25.2378071555171));
#415=CARTESIAN_POINT('Ctrl Pts',(1.74413580411984,-5.4014197540867,25.014391029379));
#416=CARTESIAN_POINT('Ctrl Pts',(1.94887523201786,-5.33096905209126,24.5223821111132));
#417=CARTESIAN_POINT('Ctrl Pts',(2.,-5.31089681692273,24.2535732134386));
#418=CARTESIAN_POINT('Ctrl Pts',(2.,-5.31089681692273,24.0000003576279));
#419=CARTESIAN_POINT('Origin',(0.,0.,10.));
#420=CARTESIAN_POINT('',(-18.,-2.20436423846524E-15,10.));
#421=CARTESIAN_POINT('Origin',(0.,0.,10.));
#422=CARTESIAN_POINT('',(-7.80784993846229,0.00359310853756451,10.));
#423=CARTESIAN_POINT('Origin',(-9.70784993846229,0.00359310853756427,10.));
#424=CARTESIAN_POINT('',(11.6409508006563,-0.0372799250248957,10.));
#425=CARTESIAN_POINT('Origin',(9.74095080065631,-0.0372799250248959,10.));
#426=CARTESIAN_POINT('Origin',(0.,0.,6.5));
#427=CARTESIAN_POINT('',(-5.625,6.88863824520386E-16,6.5));
#428=CARTESIAN_POINT('Origin',(0.,0.,6.5));
#429=CARTESIAN_POINT('',(3.875,4.74550634669599E-16,6.5));
#430=CARTESIAN_POINT('Origin',(0.,0.,6.5));
#431=CARTESIAN_POINT('Origin',(2.60208521396521E-17,0.,24.0000003576279));
#432=CARTESIAN_POINT('',(-2.,-3.31897951183794,24.0000003576279));
#433=CARTESIAN_POINT('Ctrl Pts',(-2.,-3.31897951183794,24.0000003576279));
#434=CARTESIAN_POINT('Ctrl Pts',(-2.,-3.31897951183794,23.7429421248671));
#435=CARTESIAN_POINT('Ctrl Pts',(-1.94761426451916,-3.3520233775469,23.4731785217141));
#436=CARTESIAN_POINT('Ctrl Pts',(-1.74223426775844,-3.46321820356296,22.9824719065729));
#437=CARTESIAN_POINT('Ctrl Pts',(-1.58937673344362,-3.53905402582649,22.7609499663253));
#438=CARTESIAN_POINT('Ctrl Pts',(-1.23960286426512,-3.67616425138977,22.4111760971468));
#439=CARTESIAN_POINT('Ctrl Pts',(-1.01789931457685,-3.74731919605215,22.257915994561));
#440=CARTESIAN_POINT('Ctrl Pts',(-0.526379541882749,-3.84726458539972,22.052206292685));
#441=CARTESIAN_POINT('Ctrl Pts',(-0.256247458883302,-3.875,22.0000003576279));
#442=CARTESIAN_POINT('Ctrl Pts',(0.256247458883302,-3.875,22.0000003576279));
#443=CARTESIAN_POINT('Ctrl Pts',(0.526379541882749,-3.84726458539972,22.052206292685));
#444=CARTESIAN_POINT('Ctrl Pts',(1.01789931457685,-3.74731919605215,22.257915994561));
#445=CARTESIAN_POINT('Ctrl Pts',(1.23960286426512,-3.67616425138977,22.4111760971468));
#446=CARTESIAN_POINT('Ctrl Pts',(1.58937673344362,-3.53905402582649,22.7609499663253));
#447=CARTESIAN_POINT('Ctrl Pts',(1.74223426775844,-3.46321820356296,22.9824719065729));
#448=CARTESIAN_POINT('Ctrl Pts',(1.94761426451916,-3.3520233775469,23.4731785217141));
#449=CARTESIAN_POINT('Ctrl Pts',(2.,-3.31897951183794,23.7429421248671));
#450=CARTESIAN_POINT('Ctrl Pts',(2.,-3.31897951183794,24.2570585903887));
#451=CARTESIAN_POINT('Ctrl Pts',(1.94761426451916,-3.3520233775469,24.5268221935416));
#452=CARTESIAN_POINT('Ctrl Pts',(1.74223426775844,-3.46321820356296,25.0175288086829));
#453=CARTESIAN_POINT('Ctrl Pts',(1.58937673344362,-3.53905402582649,25.2390507489304));
#454=CARTESIAN_POINT('Ctrl Pts',(1.23960286426512,-3.67616425138977,25.588824618109));
#455=CARTESIAN_POINT('Ctrl Pts',(1.01789931457685,-3.74731919605215,25.7420847206948));
#456=CARTESIAN_POINT('Ctrl Pts',(0.526379541882749,-3.84726458539972,25.9477944225707));
#457=CARTESIAN_POINT('Ctrl Pts',(0.256247458883302,-3.875,26.0000003576279));
#458=CARTESIAN_POINT('Ctrl Pts',(-0.256247458883302,-3.875,26.0000003576279));
#459=CARTESIAN_POINT('Ctrl Pts',(-0.526379541882749,-3.84726458539972,25.9477944225707));
#460=CARTESIAN_POINT('Ctrl Pts',(-1.01789931457685,-3.74731919605215,25.7420847206948));
#461=CARTESIAN_POINT('Ctrl Pts',(-1.23960286426512,-3.67616425138977,25.588824618109));
#462=CARTESIAN_POINT('Ctrl Pts',(-1.58937673344362,-3.53905402582649,25.2390507489304));
#463=CARTESIAN_POINT('Ctrl Pts',(-1.74223426775844,-3.46321820356296,25.0175288086829));
#464=CARTESIAN_POINT('Ctrl Pts',(-1.94761426451916,-3.3520233775469,24.5268221935416));
#465=CARTESIAN_POINT('Ctrl Pts',(-2.,-3.31897951183794,24.2570585903887));
#466=CARTESIAN_POINT('Ctrl Pts',(-2.,-3.31897951183794,24.0000003576279));
#467=CARTESIAN_POINT('',(-2.,0.,24.0000003576279));
#468=CARTESIAN_POINT('Origin',(2.60208521396521E-17,0.,24.0000003576279));
#469=CARTESIAN_POINT('',(2.,3.31897951183794,24.0000003576279));
#470=CARTESIAN_POINT('',(-2.,3.31897951183794,24.0000003576279));
#471=CARTESIAN_POINT('Ctrl Pts',(2.,3.31897951183794,24.0000003576279));
#472=CARTESIAN_POINT('Ctrl Pts',(2.,3.31897951183794,23.7429421248671));
#473=CARTESIAN_POINT('Ctrl Pts',(1.94761426451916,3.3520233775469,23.4731785217141));
#474=CARTESIAN_POINT('Ctrl Pts',(1.74223426775844,3.46321820356296,22.9824719065729));
#475=CARTESIAN_POINT('Ctrl Pts',(1.58937673344362,3.53905402582649,22.7609499663253));
#476=CARTESIAN_POINT('Ctrl Pts',(1.23960286426512,3.67616425138977,22.4111760971468));
#477=CARTESIAN_POINT('Ctrl Pts',(1.01789931457685,3.74731919605215,22.257915994561));
#478=CARTESIAN_POINT('Ctrl Pts',(0.526379541882748,3.84726458539972,22.052206292685));
#479=CARTESIAN_POINT('Ctrl Pts',(0.256247458883302,3.875,22.0000003576279));
#480=CARTESIAN_POINT('Ctrl Pts',(-0.256247458883302,3.875,22.0000003576279));
#481=CARTESIAN_POINT('Ctrl Pts',(-0.526379541882749,3.84726458539972,22.052206292685));
#482=CARTESIAN_POINT('Ctrl Pts',(-1.01789931457685,3.74731919605215,22.257915994561));
#483=CARTESIAN_POINT('Ctrl Pts',(-1.23960286426512,3.67616425138977,22.4111760971468));
#484=CARTESIAN_POINT('Ctrl Pts',(-1.58937673344362,3.53905402582649,22.7609499663253));
#485=CARTESIAN_POINT('Ctrl Pts',(-1.74223426775844,3.46321820356296,22.9824719065729));
#486=CARTESIAN_POINT('Ctrl Pts',(-1.94761426451916,3.3520233775469,23.4731785217141));
#487=CARTESIAN_POINT('Ctrl Pts',(-2.,3.31897951183794,23.7429421248671));
#488=CARTESIAN_POINT('Ctrl Pts',(-2.,3.31897951183794,24.0000003576279));
#489=CARTESIAN_POINT('Ctrl Pts',(-2.,3.31897951183794,24.0000003576279));
#490=CARTESIAN_POINT('Ctrl Pts',(-2.,3.31897951183794,24.2570585903887));
#491=CARTESIAN_POINT('Ctrl Pts',(-1.94761426451916,3.3520233775469,24.5268221935416));
#492=CARTESIAN_POINT('Ctrl Pts',(-1.74223426775844,3.46321820356296,25.0175288086829));
#493=CARTESIAN_POINT('Ctrl Pts',(-1.58937673344362,3.53905402582649,25.2390507489304));
#494=CARTESIAN_POINT('Ctrl Pts',(-1.23960286426512,3.67616425138977,25.588824618109));
#495=CARTESIAN_POINT('Ctrl Pts',(-1.01789931457685,3.74731919605215,25.7420847206948));
#496=CARTESIAN_POINT('Ctrl Pts',(-0.526379541882749,3.84726458539972,25.9477944225707));
#497=CARTESIAN_POINT('Ctrl Pts',(-0.256247458883302,3.875,26.0000003576279));
#498=CARTESIAN_POINT('Ctrl Pts',(0.256247458883302,3.875,26.0000003576279));
#499=CARTESIAN_POINT('Ctrl Pts',(0.526379541882749,3.84726458539972,25.9477944225707));
#500=CARTESIAN_POINT('Ctrl Pts',(1.01789931457685,3.74731919605215,25.7420847206948));
#501=CARTESIAN_POINT('Ctrl Pts',(1.23960286426512,3.67616425138977,25.588824618109));
#502=CARTESIAN_POINT('Ctrl Pts',(1.58937673344362,3.53905402582649,25.2390507489304));
#503=CARTESIAN_POINT('Ctrl Pts',(1.74223426775844,3.46321820356297,25.0175288086829));
#504=CARTESIAN_POINT('Ctrl Pts',(1.94761426451916,3.3520233775469,24.5268221935416));
#505=CARTESIAN_POINT('Ctrl Pts',(2.,3.31897951183794,24.2570585903886));
#506=CARTESIAN_POINT('Ctrl Pts',(2.,3.31897951183794,24.0000003576279));
#507=CARTESIAN_POINT('',(-2.,0.,24.0000003576279));
#508=CARTESIAN_POINT('Origin',(0.,0.,32.));
#509=CARTESIAN_POINT('',(3.875,4.74550634669599E-16,32.));
#510=CARTESIAN_POINT('Origin',(0.,0.,32.));
#511=CARTESIAN_POINT('',(3.875,-4.74550634669599E-16,32.));
#512=CARTESIAN_POINT('Origin',(0.,0.,0.));
#513=CARTESIAN_POINT('',(-5.625,6.88863824520386E-16,0.));
#514=CARTESIAN_POINT('Origin',(0.,0.,0.));
#515=CARTESIAN_POINT('',(-5.625,-6.88863824520386E-16,0.));
#516=CARTESIAN_POINT('Origin',(0.,0.,32.));
#517=CARTESIAN_POINT('Origin',(9.74095080065631,-0.0372799250248959,10.));
#518=CARTESIAN_POINT('',(11.6409508006563,-0.0372799250248957,0.));
#519=CARTESIAN_POINT('',(11.6409508006563,-0.0372799250248961,10.));
#520=CARTESIAN_POINT('Origin',(9.74095080065631,-0.0372799250248959,0.));
#521=CARTESIAN_POINT('Origin',(-9.70784993846229,0.00359310853756427,10.));
#522=CARTESIAN_POINT('',(-7.80784993846229,0.00359310853756451,0.));
#523=CARTESIAN_POINT('',(-7.80784993846229,0.00359310853756404,10.));
#524=CARTESIAN_POINT('Origin',(-9.70784993846229,0.00359310853756427,0.));
#525=CARTESIAN_POINT('Origin',(0.,0.,0.));
#526=CARTESIAN_POINT('',(-18.,-2.20436423846524E-15,0.));
#527=CARTESIAN_POINT('',(-18.,-2.20436423846524E-15,0.));
#528=CARTESIAN_POINT('Origin',(0.,0.,0.));
#529=CARTESIAN_POINT('Origin',(0.,0.,0.));
#530=UNCERTAINTY_MEASURE_WITH_UNIT(LENGTH_MEASURE(0.01),#534,
'DISTANCE_ACCURACY_VALUE',
'Maximum model space distance between geometric entities at asserted c
onnectivities');
#531=UNCERTAINTY_MEASURE_WITH_UNIT(LENGTH_MEASURE(0.01),#534,
'DISTANCE_ACCURACY_VALUE',
'Maximum model space distance between geometric entities at asserted c
onnectivities');
#532=(
GEOMETRIC_REPRESENTATION_CONTEXT(3)
GLOBAL_UNCERTAINTY_ASSIGNED_CONTEXT((#530))
GLOBAL_UNIT_ASSIGNED_CONTEXT((#534,#536,#537))
REPRESENTATION_CONTEXT('','3D')
);
#533=(
GEOMETRIC_REPRESENTATION_CONTEXT(3)
GLOBAL_UNCERTAINTY_ASSIGNED_CONTEXT((#531))
GLOBAL_UNIT_ASSIGNED_CONTEXT((#534,#536,#537))
REPRESENTATION_CONTEXT('','3D')
);
#534=(
LENGTH_UNIT()
NAMED_UNIT(*)
SI_UNIT(.MILLI.,.METRE.)
);
#535=(
LENGTH_UNIT()
NAMED_UNIT(*)
SI_UNIT($,.METRE.)
);
#536=(
NAMED_UNIT(*)
PLANE_ANGLE_UNIT()
SI_UNIT($,.RADIAN.)
);
#537=(
NAMED_UNIT(*)
SI_UNIT($,.STERADIAN.)
SOLID_ANGLE_UNIT()
);
#538=SHAPE_DEFINITION_REPRESENTATION(#539,#540);
#539=PRODUCT_DEFINITION_SHAPE('',$,#542);
#540=SHAPE_REPRESENTATION('',(#243),#532);
#541=PRODUCT_DEFINITION_CONTEXT('part definition',#546,'design');
#542=PRODUCT_DEFINITION('2026-06-25-09-10-46-616','Motortop2',#543,#541);
#543=PRODUCT_DEFINITION_FORMATION('',$,#548);
#544=PRODUCT_RELATED_PRODUCT_CATEGORY('Motortop2','Motortop2',(#548));
#545=APPLICATION_PROTOCOL_DEFINITION('international standard',
'automotive_design',2009,#546);
#546=APPLICATION_CONTEXT(
'Core Data for Automotive Mechanical Design Process');
#547=PRODUCT_CONTEXT('part definition',#546,'mechanical');
#548=PRODUCT('2026-06-25-09-10-46-616','Motortop2',$,(#547));
#549=PRESENTATION_STYLE_ASSIGNMENT((#550));
#550=SURFACE_STYLE_USAGE(.BOTH.,#551);
#551=SURFACE_SIDE_STYLE('',(#552));
#552=SURFACE_STYLE_FILL_AREA(#553);
#553=FILL_AREA_STYLE('Steel - Satin',(#554));
#554=FILL_AREA_STYLE_COLOUR('Steel - Satin',#555);
#555=COLOUR_RGB('Steel - Satin',0.627450980392157,0.627450980392157,0.627450980392157);
ENDSEC;
END-ISO-10303-21;
