ISO-10303-21;
HEADER;
/* Generated by software containing ST-Developer
 * from STEP Tools, Inc. (www.steptools.com) 
 */

FILE_DESCRIPTION(
/* description */ (''),
/* implementation_level */ '2;1');

FILE_NAME(
/* name */ 'Pressure house mount4.step',
/* time_stamp */ '2026-07-07T09:57:59-04:00',
/* author */ (''),
/* organization */ (''),
/* preprocessor_version */ 'ST-DEVELOPER v20.1',
/* originating_system */ 'Autodesk Translation Framework v15.8.0.0',
/* authorisation */ '');

FILE_SCHEMA (('AUTOMOTIVE_DESIGN { 1 0 10303 214 3 1 1 }'));
ENDSEC;

DATA;
#10=MECHANICAL_DESIGN_GEOMETRIC_PRESENTATION_REPRESENTATION('',(#13),#1494);
#11=SHAPE_REPRESENTATION_RELATIONSHIP('SRR','None',#1501,#12);
#12=ADVANCED_BREP_SHAPE_REPRESENTATION('',(#14),#1493);
#13=STYLED_ITEM('',(#1510),#14);
#14=MANIFOLD_SOLID_BREP('Body10',#918);
#15=FACE_BOUND('',#96,.T.);
#16=FACE_BOUND('',#97,.T.);
#17=FACE_BOUND('',#104,.T.);
#18=FACE_BOUND('',#105,.T.);
#19=CIRCLE('',#935,27.5);
#20=CIRCLE('',#936,27.5);
#21=CIRCLE('',#938,27.5);
#22=CIRCLE('',#939,27.5);
#23=CIRCLE('',#941,21.);
#24=CIRCLE('',#942,21.);
#25=CIRCLE('',#949,50.266518763668);
#26=CIRCLE('',#951,50.266518763668);
#27=CIRCLE('',#974,50.266518763668);
#28=CIRCLE('',#977,50.266518763668);
#29=CIRCLE('',#979,50.266518763668);
#30=CIRCLE('',#980,40.98);
#31=CIRCLE('',#981,50.266518763668);
#32=CIRCLE('',#984,50.266518763668);
#33=CIRCLE('',#987,40.98);
#34=CIRCLE('',#991,50.266518763668);
#35=CYLINDRICAL_SURFACE('',#934,27.5);
#36=CYLINDRICAL_SURFACE('',#937,27.5);
#37=CYLINDRICAL_SURFACE('',#940,21.);
#38=CYLINDRICAL_SURFACE('',#982,50.266518763668);
#39=CYLINDRICAL_SURFACE('',#983,50.266518763668);
#40=CYLINDRICAL_SURFACE('',#985,50.266518763668);
#41=CYLINDRICAL_SURFACE('',#986,40.98);
#42=CYLINDRICAL_SURFACE('',#992,50.266518763668);
#43=FACE_OUTER_BOUND('',#88,.T.);
#44=FACE_OUTER_BOUND('',#89,.T.);
#45=FACE_OUTER_BOUND('',#90,.T.);
#46=FACE_OUTER_BOUND('',#91,.T.);
#47=FACE_OUTER_BOUND('',#92,.T.);
#48=FACE_OUTER_BOUND('',#93,.T.);
#49=FACE_OUTER_BOUND('',#94,.T.);
#50=FACE_OUTER_BOUND('',#95,.T.);
#51=FACE_OUTER_BOUND('',#98,.T.);
#52=FACE_OUTER_BOUND('',#99,.T.);
#53=FACE_OUTER_BOUND('',#100,.T.);
#54=FACE_OUTER_BOUND('',#101,.T.);
#55=FACE_OUTER_BOUND('',#102,.T.);
#56=FACE_OUTER_BOUND('',#103,.T.);
#57=FACE_OUTER_BOUND('',#106,.T.);
#58=FACE_OUTER_BOUND('',#107,.T.);
#59=FACE_OUTER_BOUND('',#108,.T.);
#60=FACE_OUTER_BOUND('',#109,.T.);
#61=FACE_OUTER_BOUND('',#110,.T.);
#62=FACE_OUTER_BOUND('',#111,.T.);
#63=FACE_OUTER_BOUND('',#112,.T.);
#64=FACE_OUTER_BOUND('',#113,.T.);
#65=FACE_OUTER_BOUND('',#114,.T.);
#66=FACE_OUTER_BOUND('',#115,.T.);
#67=FACE_OUTER_BOUND('',#116,.T.);
#68=FACE_OUTER_BOUND('',#117,.T.);
#69=FACE_OUTER_BOUND('',#118,.T.);
#70=FACE_OUTER_BOUND('',#119,.T.);
#71=FACE_OUTER_BOUND('',#120,.T.);
#72=FACE_OUTER_BOUND('',#121,.T.);
#73=FACE_OUTER_BOUND('',#122,.T.);
#74=FACE_OUTER_BOUND('',#123,.T.);
#75=FACE_OUTER_BOUND('',#124,.T.);
#76=FACE_OUTER_BOUND('',#125,.T.);
#77=FACE_OUTER_BOUND('',#126,.T.);
#78=FACE_OUTER_BOUND('',#127,.T.);
#79=FACE_OUTER_BOUND('',#128,.T.);
#80=FACE_OUTER_BOUND('',#129,.T.);
#81=FACE_OUTER_BOUND('',#130,.T.);
#82=FACE_OUTER_BOUND('',#131,.T.);
#83=FACE_OUTER_BOUND('',#132,.T.);
#84=FACE_OUTER_BOUND('',#133,.T.);
#85=FACE_OUTER_BOUND('',#134,.T.);
#86=FACE_OUTER_BOUND('',#135,.T.);
#87=FACE_OUTER_BOUND('',#136,.T.);
#88=EDGE_LOOP('',(#578,#579,#580,#581));
#89=EDGE_LOOP('',(#582,#583,#584,#585));
#90=EDGE_LOOP('',(#586,#587,#588,#589));
#91=EDGE_LOOP('',(#590,#591,#592,#593));
#92=EDGE_LOOP('',(#594,#595,#596,#597));
#93=EDGE_LOOP('',(#598,#599,#600,#601));
#94=EDGE_LOOP('',(#602,#603,#604,#605));
#95=EDGE_LOOP('',(#606,#607,#608,#609));
#96=EDGE_LOOP('',(#610,#611,#612,#613,#614,#615,#616,#617,#618,#619,#620,
#621));
#97=EDGE_LOOP('',(#622,#623,#624,#625,#626,#627,#628,#629,#630,#631,#632,
#633));
#98=EDGE_LOOP('',(#634,#635,#636,#637));
#99=EDGE_LOOP('',(#638,#639,#640,#641));
#100=EDGE_LOOP('',(#642,#643,#644,#645,#646,#647));
#101=EDGE_LOOP('',(#648,#649,#650,#651,#652,#653));
#102=EDGE_LOOP('',(#654,#655,#656,#657));
#103=EDGE_LOOP('',(#658,#659,#660,#661));
#104=EDGE_LOOP('',(#662,#663,#664,#665,#666,#667,#668,#669,#670,#671,#672,
#673));
#105=EDGE_LOOP('',(#674,#675,#676,#677,#678,#679,#680,#681,#682,#683,#684,
#685));
#106=EDGE_LOOP('',(#686,#687,#688,#689));
#107=EDGE_LOOP('',(#690,#691,#692,#693));
#108=EDGE_LOOP('',(#694,#695,#696,#697));
#109=EDGE_LOOP('',(#698,#699,#700,#701));
#110=EDGE_LOOP('',(#702,#703,#704,#705));
#111=EDGE_LOOP('',(#706,#707,#708,#709));
#112=EDGE_LOOP('',(#710,#711,#712,#713));
#113=EDGE_LOOP('',(#714,#715,#716,#717));
#114=EDGE_LOOP('',(#718,#719,#720,#721));
#115=EDGE_LOOP('',(#722,#723,#724,#725));
#116=EDGE_LOOP('',(#726,#727,#728,#729));
#117=EDGE_LOOP('',(#730,#731,#732,#733));
#118=EDGE_LOOP('',(#734,#735,#736,#737));
#119=EDGE_LOOP('',(#738,#739,#740,#741));
#120=EDGE_LOOP('',(#742,#743,#744,#745));
#121=EDGE_LOOP('',(#746,#747,#748,#749));
#122=EDGE_LOOP('',(#750,#751,#752,#753));
#123=EDGE_LOOP('',(#754,#755,#756,#757));
#124=EDGE_LOOP('',(#758,#759,#760,#761));
#125=EDGE_LOOP('',(#762,#763,#764,#765,#766,#767));
#126=EDGE_LOOP('',(#768,#769,#770,#771));
#127=EDGE_LOOP('',(#772,#773,#774,#775,#776,#777));
#128=EDGE_LOOP('',(#778,#779,#780,#781,#782,#783,#784,#785,#786,#787,#788,
#789,#790,#791,#792));
#129=EDGE_LOOP('',(#793,#794,#795,#796));
#130=EDGE_LOOP('',(#797,#798,#799,#800));
#131=EDGE_LOOP('',(#801,#802,#803,#804));
#132=EDGE_LOOP('',(#805,#806,#807,#808));
#133=EDGE_LOOP('',(#809,#810,#811,#812));
#134=EDGE_LOOP('',(#813,#814,#815,#816));
#135=EDGE_LOOP('',(#817,#818,#819,#820,#821,#822,#823,#824,#825,#826,#827,
#828,#829,#830,#831));
#136=EDGE_LOOP('',(#832,#833,#834,#835));
#137=LINE('',#1234,#250);
#138=LINE('',#1236,#251);
#139=LINE('',#1238,#252);
#140=LINE('',#1239,#253);
#141=LINE('',#1243,#254);
#142=LINE('',#1245,#255);
#143=LINE('',#1247,#256);
#144=LINE('',#1248,#257);
#145=LINE('',#1253,#258);
#146=LINE('',#1259,#259);
#147=LINE('',#1266,#260);
#148=LINE('',#1269,#261);
#149=LINE('',#1271,#262);
#150=LINE('',#1272,#263);
#151=LINE('',#1274,#264);
#152=LINE('',#1275,#265);
#153=LINE('',#1279,#266);
#154=LINE('',#1280,#267);
#155=LINE('',#1281,#268);
#156=LINE('',#1284,#269);
#157=LINE('',#1286,#270);
#158=LINE('',#1288,#271);
#159=LINE('',#1290,#272);
#160=LINE('',#1292,#273);
#161=LINE('',#1294,#274);
#162=LINE('',#1296,#275);
#163=LINE('',#1298,#276);
#164=LINE('',#1300,#277);
#165=LINE('',#1302,#278);
#166=LINE('',#1304,#279);
#167=LINE('',#1305,#280);
#168=LINE('',#1308,#281);
#169=LINE('',#1310,#282);
#170=LINE('',#1312,#283);
#171=LINE('',#1314,#284);
#172=LINE('',#1316,#285);
#173=LINE('',#1318,#286);
#174=LINE('',#1320,#287);
#175=LINE('',#1322,#288);
#176=LINE('',#1324,#289);
#177=LINE('',#1326,#290);
#178=LINE('',#1328,#291);
#179=LINE('',#1329,#292);
#180=LINE('',#1333,#293);
#181=LINE('',#1334,#294);
#182=LINE('',#1335,#295);
#183=LINE('',#1339,#296);
#184=LINE('',#1341,#297);
#185=LINE('',#1343,#298);
#186=LINE('',#1344,#299);
#187=LINE('',#1348,#300);
#188=LINE('',#1349,#301);
#189=LINE('',#1354,#302);
#190=LINE('',#1356,#303);
#191=LINE('',#1358,#304);
#192=LINE('',#1359,#305);
#193=LINE('',#1362,#306);
#194=LINE('',#1363,#307);
#195=LINE('',#1366,#308);
#196=LINE('',#1368,#309);
#197=LINE('',#1369,#310);
#198=LINE('',#1372,#311);
#199=LINE('',#1374,#312);
#200=LINE('',#1376,#313);
#201=LINE('',#1378,#314);
#202=LINE('',#1379,#315);
#203=LINE('',#1381,#316);
#204=LINE('',#1383,#317);
#205=LINE('',#1385,#318);
#206=LINE('',#1387,#319);
#207=LINE('',#1388,#320);
#208=LINE('',#1391,#321);
#209=LINE('',#1393,#322);
#210=LINE('',#1395,#323);
#211=LINE('',#1397,#324);
#212=LINE('',#1399,#325);
#213=LINE('',#1401,#326);
#214=LINE('',#1403,#327);
#215=LINE('',#1404,#328);
#216=LINE('',#1406,#329);
#217=LINE('',#1408,#330);
#218=LINE('',#1409,#331);
#219=LINE('',#1411,#332);
#220=LINE('',#1412,#333);
#221=LINE('',#1414,#334);
#222=LINE('',#1415,#335);
#223=LINE('',#1418,#336);
#224=LINE('',#1420,#337);
#225=LINE('',#1421,#338);
#226=LINE('',#1423,#339);
#227=LINE('',#1424,#340);
#228=LINE('',#1429,#341);
#229=LINE('',#1430,#342);
#230=LINE('',#1432,#343);
#231=LINE('',#1433,#344);
#232=LINE('',#1435,#345);
#233=LINE('',#1437,#346);
#234=LINE('',#1439,#347);
#235=LINE('',#1441,#348);
#236=LINE('',#1444,#349);
#237=LINE('',#1449,#350);
#238=LINE('',#1450,#351);
#239=LINE('',#1451,#352);
#240=LINE('',#1456,#353);
#241=LINE('',#1457,#354);
#242=LINE('',#1464,#355);
#243=LINE('',#1468,#356);
#244=LINE('',#1474,#357);
#245=LINE('',#1480,#358);
#246=LINE('',#1481,#359);
#247=LINE('',#1483,#360);
#248=LINE('',#1486,#361);
#249=LINE('',#1487,#362);
#250=VECTOR('',#997,10.);
#251=VECTOR('',#998,10.);
#252=VECTOR('',#999,10.);
#253=VECTOR('',#1000,10.);
#254=VECTOR('',#1003,10.);
#255=VECTOR('',#1004,10.);
#256=VECTOR('',#1005,10.);
#257=VECTOR('',#1006,10.);
#258=VECTOR('',#1011,10.);
#259=VECTOR('',#1018,10.);
#260=VECTOR('',#1025,10.);
#261=VECTOR('',#1028,10.);
#262=VECTOR('',#1031,10.);
#263=VECTOR('',#1032,10.);
#264=VECTOR('',#1035,10.);
#265=VECTOR('',#1036,10.);
#266=VECTOR('',#1039,10.);
#267=VECTOR('',#1040,10.);
#268=VECTOR('',#1041,10.);
#269=VECTOR('',#1042,10.);
#270=VECTOR('',#1043,10.);
#271=VECTOR('',#1044,10.);
#272=VECTOR('',#1045,10.);
#273=VECTOR('',#1046,10.);
#274=VECTOR('',#1047,10.);
#275=VECTOR('',#1048,10.);
#276=VECTOR('',#1049,10.);
#277=VECTOR('',#1050,10.);
#278=VECTOR('',#1051,10.);
#279=VECTOR('',#1052,10.);
#280=VECTOR('',#1053,10.);
#281=VECTOR('',#1054,10.);
#282=VECTOR('',#1055,10.);
#283=VECTOR('',#1056,10.);
#284=VECTOR('',#1057,10.);
#285=VECTOR('',#1058,10.);
#286=VECTOR('',#1059,10.);
#287=VECTOR('',#1060,10.);
#288=VECTOR('',#1061,10.);
#289=VECTOR('',#1062,10.);
#290=VECTOR('',#1063,10.);
#291=VECTOR('',#1064,10.);
#292=VECTOR('',#1065,10.);
#293=VECTOR('',#1068,10.);
#294=VECTOR('',#1069,10.);
#295=VECTOR('',#1070,10.);
#296=VECTOR('',#1073,10.);
#297=VECTOR('',#1074,10.);
#298=VECTOR('',#1075,10.);
#299=VECTOR('',#1076,10.);
#300=VECTOR('',#1081,10.);
#301=VECTOR('',#1082,10.);
#302=VECTOR('',#1087,10.);
#303=VECTOR('',#1088,10.);
#304=VECTOR('',#1089,10.);
#305=VECTOR('',#1090,10.);
#306=VECTOR('',#1093,10.);
#307=VECTOR('',#1094,10.);
#308=VECTOR('',#1097,10.);
#309=VECTOR('',#1098,10.);
#310=VECTOR('',#1099,10.);
#311=VECTOR('',#1100,10.);
#312=VECTOR('',#1101,10.);
#313=VECTOR('',#1102,10.);
#314=VECTOR('',#1103,10.);
#315=VECTOR('',#1104,10.);
#316=VECTOR('',#1105,10.);
#317=VECTOR('',#1106,10.);
#318=VECTOR('',#1107,10.);
#319=VECTOR('',#1108,10.);
#320=VECTOR('',#1109,10.);
#321=VECTOR('',#1110,10.);
#322=VECTOR('',#1111,10.);
#323=VECTOR('',#1112,10.);
#324=VECTOR('',#1113,10.);
#325=VECTOR('',#1114,10.);
#326=VECTOR('',#1115,10.);
#327=VECTOR('',#1116,10.);
#328=VECTOR('',#1117,10.);
#329=VECTOR('',#1118,10.);
#330=VECTOR('',#1119,10.);
#331=VECTOR('',#1120,10.);
#332=VECTOR('',#1123,10.);
#333=VECTOR('',#1124,10.);
#334=VECTOR('',#1127,10.);
#335=VECTOR('',#1128,10.);
#336=VECTOR('',#1133,10.);
#337=VECTOR('',#1136,10.);
#338=VECTOR('',#1137,10.);
#339=VECTOR('',#1140,10.);
#340=VECTOR('',#1141,10.);
#341=VECTOR('',#1150,10.);
#342=VECTOR('',#1151,10.);
#343=VECTOR('',#1154,10.);
#344=VECTOR('',#1155,10.);
#345=VECTOR('',#1158,10.);
#346=VECTOR('',#1161,10.);
#347=VECTOR('',#1164,10.);
#348=VECTOR('',#1167,10.);
#349=VECTOR('',#1172,10.);
#350=VECTOR('',#1177,10.);
#351=VECTOR('',#1178,10.);
#352=VECTOR('',#1179,10.);
#353=VECTOR('',#1186,10.);
#354=VECTOR('',#1187,10.);
#355=VECTOR('',#1196,10.);
#356=VECTOR('',#1199,10.);
#357=VECTOR('',#1208,10.);
#358=VECTOR('',#1215,10.);
#359=VECTOR('',#1216,10.);
#360=VECTOR('',#1219,10.);
#361=VECTOR('',#1222,10.);
#362=VECTOR('',#1223,10.);
#363=VERTEX_POINT('',#1232);
#364=VERTEX_POINT('',#1233);
#365=VERTEX_POINT('',#1235);
#366=VERTEX_POINT('',#1237);
#367=VERTEX_POINT('',#1241);
#368=VERTEX_POINT('',#1242);
#369=VERTEX_POINT('',#1244);
#370=VERTEX_POINT('',#1246);
#371=VERTEX_POINT('',#1250);
#372=VERTEX_POINT('',#1252);
#373=VERTEX_POINT('',#1256);
#374=VERTEX_POINT('',#1258);
#375=VERTEX_POINT('',#1262);
#376=VERTEX_POINT('',#1263);
#377=VERTEX_POINT('',#1265);
#378=VERTEX_POINT('',#1267);
#379=VERTEX_POINT('',#1277);
#380=VERTEX_POINT('',#1278);
#381=VERTEX_POINT('',#1282);
#382=VERTEX_POINT('',#1283);
#383=VERTEX_POINT('',#1285);
#384=VERTEX_POINT('',#1287);
#385=VERTEX_POINT('',#1289);
#386=VERTEX_POINT('',#1291);
#387=VERTEX_POINT('',#1293);
#388=VERTEX_POINT('',#1295);
#389=VERTEX_POINT('',#1297);
#390=VERTEX_POINT('',#1299);
#391=VERTEX_POINT('',#1301);
#392=VERTEX_POINT('',#1303);
#393=VERTEX_POINT('',#1306);
#394=VERTEX_POINT('',#1307);
#395=VERTEX_POINT('',#1309);
#396=VERTEX_POINT('',#1311);
#397=VERTEX_POINT('',#1313);
#398=VERTEX_POINT('',#1315);
#399=VERTEX_POINT('',#1317);
#400=VERTEX_POINT('',#1319);
#401=VERTEX_POINT('',#1321);
#402=VERTEX_POINT('',#1323);
#403=VERTEX_POINT('',#1325);
#404=VERTEX_POINT('',#1327);
#405=VERTEX_POINT('',#1331);
#406=VERTEX_POINT('',#1332);
#407=VERTEX_POINT('',#1337);
#408=VERTEX_POINT('',#1338);
#409=VERTEX_POINT('',#1340);
#410=VERTEX_POINT('',#1342);
#411=VERTEX_POINT('',#1347);
#412=VERTEX_POINT('',#1351);
#413=VERTEX_POINT('',#1352);
#414=VERTEX_POINT('',#1355);
#415=VERTEX_POINT('',#1357);
#416=VERTEX_POINT('',#1361);
#417=VERTEX_POINT('',#1365);
#418=VERTEX_POINT('',#1367);
#419=VERTEX_POINT('',#1370);
#420=VERTEX_POINT('',#1371);
#421=VERTEX_POINT('',#1373);
#422=VERTEX_POINT('',#1375);
#423=VERTEX_POINT('',#1377);
#424=VERTEX_POINT('',#1380);
#425=VERTEX_POINT('',#1382);
#426=VERTEX_POINT('',#1384);
#427=VERTEX_POINT('',#1386);
#428=VERTEX_POINT('',#1389);
#429=VERTEX_POINT('',#1390);
#430=VERTEX_POINT('',#1392);
#431=VERTEX_POINT('',#1394);
#432=VERTEX_POINT('',#1396);
#433=VERTEX_POINT('',#1398);
#434=VERTEX_POINT('',#1400);
#435=VERTEX_POINT('',#1402);
#436=VERTEX_POINT('',#1405);
#437=VERTEX_POINT('',#1407);
#438=VERTEX_POINT('',#1447);
#439=VERTEX_POINT('',#1448);
#440=VERTEX_POINT('',#1455);
#441=VERTEX_POINT('',#1461);
#442=VERTEX_POINT('',#1463);
#443=VERTEX_POINT('',#1465);
#444=VERTEX_POINT('',#1467);
#445=VERTEX_POINT('',#1472);
#446=VERTEX_POINT('',#1477);
#447=VERTEX_POINT('',#1478);
#448=VERTEX_POINT('',#1485);
#449=EDGE_CURVE('',#363,#364,#137,.T.);
#450=EDGE_CURVE('',#365,#363,#138,.T.);
#451=EDGE_CURVE('',#366,#365,#139,.F.);
#452=EDGE_CURVE('',#364,#366,#140,.T.);
#453=EDGE_CURVE('',#367,#368,#141,.T.);
#454=EDGE_CURVE('',#369,#367,#142,.T.);
#455=EDGE_CURVE('',#370,#369,#143,.F.);
#456=EDGE_CURVE('',#368,#370,#144,.T.);
#457=EDGE_CURVE('',#371,#365,#19,.F.);
#458=EDGE_CURVE('',#372,#371,#145,.F.);
#459=EDGE_CURVE('',#372,#366,#20,.F.);
#460=EDGE_CURVE('',#369,#373,#21,.F.);
#461=EDGE_CURVE('',#373,#374,#146,.T.);
#462=EDGE_CURVE('',#370,#374,#22,.F.);
#463=EDGE_CURVE('',#375,#376,#23,.T.);
#464=EDGE_CURVE('',#375,#377,#147,.T.);
#465=EDGE_CURVE('',#378,#377,#24,.T.);
#466=EDGE_CURVE('',#376,#378,#148,.T.);
#467=EDGE_CURVE('',#373,#376,#149,.T.);
#468=EDGE_CURVE('',#374,#378,#150,.T.);
#469=EDGE_CURVE('',#375,#372,#151,.T.);
#470=EDGE_CURVE('',#377,#371,#152,.T.);
#471=EDGE_CURVE('',#379,#380,#153,.T.);
#472=EDGE_CURVE('',#379,#367,#154,.T.);
#473=EDGE_CURVE('',#368,#380,#155,.T.);
#474=EDGE_CURVE('',#381,#382,#156,.T.);
#475=EDGE_CURVE('',#382,#383,#157,.T.);
#476=EDGE_CURVE('',#383,#384,#158,.T.);
#477=EDGE_CURVE('',#384,#385,#159,.T.);
#478=EDGE_CURVE('',#385,#386,#160,.T.);
#479=EDGE_CURVE('',#386,#387,#161,.T.);
#480=EDGE_CURVE('',#387,#388,#162,.T.);
#481=EDGE_CURVE('',#388,#389,#163,.T.);
#482=EDGE_CURVE('',#389,#390,#164,.T.);
#483=EDGE_CURVE('',#390,#391,#165,.T.);
#484=EDGE_CURVE('',#391,#392,#166,.T.);
#485=EDGE_CURVE('',#392,#381,#167,.T.);
#486=EDGE_CURVE('',#393,#394,#168,.T.);
#487=EDGE_CURVE('',#394,#395,#169,.T.);
#488=EDGE_CURVE('',#395,#396,#170,.T.);
#489=EDGE_CURVE('',#396,#397,#171,.T.);
#490=EDGE_CURVE('',#397,#398,#172,.T.);
#491=EDGE_CURVE('',#398,#399,#173,.T.);
#492=EDGE_CURVE('',#399,#400,#174,.T.);
#493=EDGE_CURVE('',#400,#401,#175,.T.);
#494=EDGE_CURVE('',#401,#402,#176,.T.);
#495=EDGE_CURVE('',#402,#403,#177,.T.);
#496=EDGE_CURVE('',#403,#404,#178,.T.);
#497=EDGE_CURVE('',#404,#393,#179,.T.);
#498=EDGE_CURVE('',#405,#406,#180,.T.);
#499=EDGE_CURVE('',#405,#401,#181,.T.);
#500=EDGE_CURVE('',#400,#406,#182,.T.);
#501=EDGE_CURVE('',#407,#408,#183,.T.);
#502=EDGE_CURVE('',#407,#409,#184,.T.);
#503=EDGE_CURVE('',#410,#409,#185,.T.);
#504=EDGE_CURVE('',#410,#408,#186,.T.);
#505=EDGE_CURVE('',#406,#407,#25,.T.);
#506=EDGE_CURVE('',#399,#411,#187,.T.);
#507=EDGE_CURVE('',#409,#411,#188,.T.);
#508=EDGE_CURVE('',#412,#413,#26,.T.);
#509=EDGE_CURVE('',#412,#386,#189,.T.);
#510=EDGE_CURVE('',#385,#414,#190,.T.);
#511=EDGE_CURVE('',#415,#414,#191,.T.);
#512=EDGE_CURVE('',#415,#413,#192,.T.);
#513=EDGE_CURVE('',#416,#412,#193,.T.);
#514=EDGE_CURVE('',#416,#387,#194,.T.);
#515=EDGE_CURVE('',#364,#417,#195,.T.);
#516=EDGE_CURVE('',#417,#418,#196,.T.);
#517=EDGE_CURVE('',#418,#363,#197,.T.);
#518=EDGE_CURVE('',#419,#420,#198,.T.);
#519=EDGE_CURVE('',#420,#421,#199,.T.);
#520=EDGE_CURVE('',#421,#422,#200,.T.);
#521=EDGE_CURVE('',#422,#423,#201,.T.);
#522=EDGE_CURVE('',#410,#423,#202,.T.);
#523=EDGE_CURVE('',#411,#424,#203,.T.);
#524=EDGE_CURVE('',#424,#425,#204,.T.);
#525=EDGE_CURVE('',#425,#426,#205,.T.);
#526=EDGE_CURVE('',#426,#427,#206,.T.);
#527=EDGE_CURVE('',#427,#419,#207,.T.);
#528=EDGE_CURVE('',#428,#429,#208,.T.);
#529=EDGE_CURVE('',#429,#430,#209,.T.);
#530=EDGE_CURVE('',#430,#431,#210,.T.);
#531=EDGE_CURVE('',#431,#432,#211,.T.);
#532=EDGE_CURVE('',#432,#433,#212,.T.);
#533=EDGE_CURVE('',#433,#434,#213,.T.);
#534=EDGE_CURVE('',#434,#435,#214,.T.);
#535=EDGE_CURVE('',#435,#415,#215,.T.);
#536=EDGE_CURVE('',#414,#436,#216,.T.);
#537=EDGE_CURVE('',#436,#437,#217,.T.);
#538=EDGE_CURVE('',#437,#428,#218,.T.);
#539=EDGE_CURVE('',#393,#420,#219,.T.);
#540=EDGE_CURVE('',#394,#419,#220,.T.);
#541=EDGE_CURVE('',#422,#403,#221,.T.);
#542=EDGE_CURVE('',#421,#404,#222,.T.);
#543=EDGE_CURVE('',#423,#402,#223,.T.);
#544=EDGE_CURVE('',#397,#425,#224,.T.);
#545=EDGE_CURVE('',#398,#424,#225,.T.);
#546=EDGE_CURVE('',#427,#395,#226,.T.);
#547=EDGE_CURVE('',#426,#396,#227,.T.);
#548=EDGE_CURVE('',#383,#437,#228,.T.);
#549=EDGE_CURVE('',#428,#382,#229,.T.);
#550=EDGE_CURVE('',#432,#390,#230,.T.);
#551=EDGE_CURVE('',#391,#431,#231,.T.);
#552=EDGE_CURVE('',#392,#430,#232,.T.);
#553=EDGE_CURVE('',#433,#389,#233,.T.);
#554=EDGE_CURVE('',#429,#381,#234,.T.);
#555=EDGE_CURVE('',#384,#436,#235,.T.);
#556=EDGE_CURVE('',#434,#388,#236,.T.);
#557=EDGE_CURVE('',#438,#439,#237,.T.);
#558=EDGE_CURVE('',#418,#438,#238,.T.);
#559=EDGE_CURVE('',#439,#417,#239,.T.);
#560=EDGE_CURVE('',#408,#405,#27,.T.);
#561=EDGE_CURVE('',#413,#440,#240,.T.);
#562=EDGE_CURVE('',#435,#440,#241,.T.);
#563=EDGE_CURVE('',#440,#416,#28,.T.);
#564=EDGE_CURVE('',#438,#441,#29,.F.);
#565=EDGE_CURVE('',#441,#442,#242,.T.);
#566=EDGE_CURVE('',#442,#443,#30,.T.);
#567=EDGE_CURVE('',#443,#444,#243,.T.);
#568=EDGE_CURVE('',#444,#380,#31,.F.);
#569=EDGE_CURVE('',#439,#445,#32,.F.);
#570=EDGE_CURVE('',#445,#441,#244,.T.);
#571=EDGE_CURVE('',#446,#447,#33,.T.);
#572=EDGE_CURVE('',#446,#443,#245,.T.);
#573=EDGE_CURVE('',#447,#442,#246,.T.);
#574=EDGE_CURVE('',#447,#445,#247,.T.);
#575=EDGE_CURVE('',#448,#446,#248,.T.);
#576=EDGE_CURVE('',#448,#444,#249,.F.);
#577=EDGE_CURVE('',#448,#379,#34,.F.);
#578=ORIENTED_EDGE('',*,*,#449,.F.);
#579=ORIENTED_EDGE('',*,*,#450,.F.);
#580=ORIENTED_EDGE('',*,*,#451,.F.);
#581=ORIENTED_EDGE('',*,*,#452,.F.);
#582=ORIENTED_EDGE('',*,*,#453,.F.);
#583=ORIENTED_EDGE('',*,*,#454,.F.);
#584=ORIENTED_EDGE('',*,*,#455,.F.);
#585=ORIENTED_EDGE('',*,*,#456,.F.);
#586=ORIENTED_EDGE('',*,*,#451,.T.);
#587=ORIENTED_EDGE('',*,*,#457,.F.);
#588=ORIENTED_EDGE('',*,*,#458,.F.);
#589=ORIENTED_EDGE('',*,*,#459,.T.);
#590=ORIENTED_EDGE('',*,*,#455,.T.);
#591=ORIENTED_EDGE('',*,*,#460,.T.);
#592=ORIENTED_EDGE('',*,*,#461,.T.);
#593=ORIENTED_EDGE('',*,*,#462,.F.);
#594=ORIENTED_EDGE('',*,*,#463,.F.);
#595=ORIENTED_EDGE('',*,*,#464,.T.);
#596=ORIENTED_EDGE('',*,*,#465,.F.);
#597=ORIENTED_EDGE('',*,*,#466,.F.);
#598=ORIENTED_EDGE('',*,*,#467,.T.);
#599=ORIENTED_EDGE('',*,*,#466,.T.);
#600=ORIENTED_EDGE('',*,*,#468,.F.);
#601=ORIENTED_EDGE('',*,*,#461,.F.);
#602=ORIENTED_EDGE('',*,*,#469,.T.);
#603=ORIENTED_EDGE('',*,*,#458,.T.);
#604=ORIENTED_EDGE('',*,*,#470,.F.);
#605=ORIENTED_EDGE('',*,*,#464,.F.);
#606=ORIENTED_EDGE('',*,*,#471,.F.);
#607=ORIENTED_EDGE('',*,*,#472,.T.);
#608=ORIENTED_EDGE('',*,*,#453,.T.);
#609=ORIENTED_EDGE('',*,*,#473,.T.);
#610=ORIENTED_EDGE('',*,*,#474,.T.);
#611=ORIENTED_EDGE('',*,*,#475,.T.);
#612=ORIENTED_EDGE('',*,*,#476,.T.);
#613=ORIENTED_EDGE('',*,*,#477,.T.);
#614=ORIENTED_EDGE('',*,*,#478,.T.);
#615=ORIENTED_EDGE('',*,*,#479,.T.);
#616=ORIENTED_EDGE('',*,*,#480,.T.);
#617=ORIENTED_EDGE('',*,*,#481,.T.);
#618=ORIENTED_EDGE('',*,*,#482,.T.);
#619=ORIENTED_EDGE('',*,*,#483,.T.);
#620=ORIENTED_EDGE('',*,*,#484,.T.);
#621=ORIENTED_EDGE('',*,*,#485,.T.);
#622=ORIENTED_EDGE('',*,*,#486,.T.);
#623=ORIENTED_EDGE('',*,*,#487,.T.);
#624=ORIENTED_EDGE('',*,*,#488,.T.);
#625=ORIENTED_EDGE('',*,*,#489,.T.);
#626=ORIENTED_EDGE('',*,*,#490,.T.);
#627=ORIENTED_EDGE('',*,*,#491,.T.);
#628=ORIENTED_EDGE('',*,*,#492,.T.);
#629=ORIENTED_EDGE('',*,*,#493,.T.);
#630=ORIENTED_EDGE('',*,*,#494,.T.);
#631=ORIENTED_EDGE('',*,*,#495,.T.);
#632=ORIENTED_EDGE('',*,*,#496,.T.);
#633=ORIENTED_EDGE('',*,*,#497,.T.);
#634=ORIENTED_EDGE('',*,*,#498,.F.);
#635=ORIENTED_EDGE('',*,*,#499,.T.);
#636=ORIENTED_EDGE('',*,*,#493,.F.);
#637=ORIENTED_EDGE('',*,*,#500,.T.);
#638=ORIENTED_EDGE('',*,*,#501,.F.);
#639=ORIENTED_EDGE('',*,*,#502,.T.);
#640=ORIENTED_EDGE('',*,*,#503,.F.);
#641=ORIENTED_EDGE('',*,*,#504,.T.);
#642=ORIENTED_EDGE('',*,*,#505,.F.);
#643=ORIENTED_EDGE('',*,*,#500,.F.);
#644=ORIENTED_EDGE('',*,*,#492,.F.);
#645=ORIENTED_EDGE('',*,*,#506,.T.);
#646=ORIENTED_EDGE('',*,*,#507,.F.);
#647=ORIENTED_EDGE('',*,*,#502,.F.);
#648=ORIENTED_EDGE('',*,*,#508,.F.);
#649=ORIENTED_EDGE('',*,*,#509,.T.);
#650=ORIENTED_EDGE('',*,*,#478,.F.);
#651=ORIENTED_EDGE('',*,*,#510,.T.);
#652=ORIENTED_EDGE('',*,*,#511,.F.);
#653=ORIENTED_EDGE('',*,*,#512,.T.);
#654=ORIENTED_EDGE('',*,*,#513,.F.);
#655=ORIENTED_EDGE('',*,*,#514,.T.);
#656=ORIENTED_EDGE('',*,*,#479,.F.);
#657=ORIENTED_EDGE('',*,*,#509,.F.);
#658=ORIENTED_EDGE('',*,*,#449,.T.);
#659=ORIENTED_EDGE('',*,*,#515,.T.);
#660=ORIENTED_EDGE('',*,*,#516,.T.);
#661=ORIENTED_EDGE('',*,*,#517,.T.);
#662=ORIENTED_EDGE('',*,*,#518,.T.);
#663=ORIENTED_EDGE('',*,*,#519,.T.);
#664=ORIENTED_EDGE('',*,*,#520,.T.);
#665=ORIENTED_EDGE('',*,*,#521,.T.);
#666=ORIENTED_EDGE('',*,*,#522,.F.);
#667=ORIENTED_EDGE('',*,*,#503,.T.);
#668=ORIENTED_EDGE('',*,*,#507,.T.);
#669=ORIENTED_EDGE('',*,*,#523,.T.);
#670=ORIENTED_EDGE('',*,*,#524,.T.);
#671=ORIENTED_EDGE('',*,*,#525,.T.);
#672=ORIENTED_EDGE('',*,*,#526,.T.);
#673=ORIENTED_EDGE('',*,*,#527,.T.);
#674=ORIENTED_EDGE('',*,*,#528,.T.);
#675=ORIENTED_EDGE('',*,*,#529,.T.);
#676=ORIENTED_EDGE('',*,*,#530,.T.);
#677=ORIENTED_EDGE('',*,*,#531,.T.);
#678=ORIENTED_EDGE('',*,*,#532,.T.);
#679=ORIENTED_EDGE('',*,*,#533,.T.);
#680=ORIENTED_EDGE('',*,*,#534,.T.);
#681=ORIENTED_EDGE('',*,*,#535,.T.);
#682=ORIENTED_EDGE('',*,*,#511,.T.);
#683=ORIENTED_EDGE('',*,*,#536,.T.);
#684=ORIENTED_EDGE('',*,*,#537,.T.);
#685=ORIENTED_EDGE('',*,*,#538,.T.);
#686=ORIENTED_EDGE('',*,*,#486,.F.);
#687=ORIENTED_EDGE('',*,*,#539,.T.);
#688=ORIENTED_EDGE('',*,*,#518,.F.);
#689=ORIENTED_EDGE('',*,*,#540,.F.);
#690=ORIENTED_EDGE('',*,*,#496,.F.);
#691=ORIENTED_EDGE('',*,*,#541,.F.);
#692=ORIENTED_EDGE('',*,*,#520,.F.);
#693=ORIENTED_EDGE('',*,*,#542,.T.);
#694=ORIENTED_EDGE('',*,*,#497,.F.);
#695=ORIENTED_EDGE('',*,*,#542,.F.);
#696=ORIENTED_EDGE('',*,*,#519,.F.);
#697=ORIENTED_EDGE('',*,*,#539,.F.);
#698=ORIENTED_EDGE('',*,*,#541,.T.);
#699=ORIENTED_EDGE('',*,*,#495,.F.);
#700=ORIENTED_EDGE('',*,*,#543,.F.);
#701=ORIENTED_EDGE('',*,*,#521,.F.);
#702=ORIENTED_EDGE('',*,*,#490,.F.);
#703=ORIENTED_EDGE('',*,*,#544,.T.);
#704=ORIENTED_EDGE('',*,*,#524,.F.);
#705=ORIENTED_EDGE('',*,*,#545,.F.);
#706=ORIENTED_EDGE('',*,*,#488,.F.);
#707=ORIENTED_EDGE('',*,*,#546,.F.);
#708=ORIENTED_EDGE('',*,*,#526,.F.);
#709=ORIENTED_EDGE('',*,*,#547,.T.);
#710=ORIENTED_EDGE('',*,*,#489,.F.);
#711=ORIENTED_EDGE('',*,*,#547,.F.);
#712=ORIENTED_EDGE('',*,*,#525,.F.);
#713=ORIENTED_EDGE('',*,*,#544,.F.);
#714=ORIENTED_EDGE('',*,*,#540,.T.);
#715=ORIENTED_EDGE('',*,*,#527,.F.);
#716=ORIENTED_EDGE('',*,*,#546,.T.);
#717=ORIENTED_EDGE('',*,*,#487,.F.);
#718=ORIENTED_EDGE('',*,*,#545,.T.);
#719=ORIENTED_EDGE('',*,*,#523,.F.);
#720=ORIENTED_EDGE('',*,*,#506,.F.);
#721=ORIENTED_EDGE('',*,*,#491,.F.);
#722=ORIENTED_EDGE('',*,*,#538,.F.);
#723=ORIENTED_EDGE('',*,*,#548,.F.);
#724=ORIENTED_EDGE('',*,*,#475,.F.);
#725=ORIENTED_EDGE('',*,*,#549,.F.);
#726=ORIENTED_EDGE('',*,*,#483,.F.);
#727=ORIENTED_EDGE('',*,*,#550,.F.);
#728=ORIENTED_EDGE('',*,*,#531,.F.);
#729=ORIENTED_EDGE('',*,*,#551,.F.);
#730=ORIENTED_EDGE('',*,*,#484,.F.);
#731=ORIENTED_EDGE('',*,*,#551,.T.);
#732=ORIENTED_EDGE('',*,*,#530,.F.);
#733=ORIENTED_EDGE('',*,*,#552,.F.);
#734=ORIENTED_EDGE('',*,*,#482,.F.);
#735=ORIENTED_EDGE('',*,*,#553,.F.);
#736=ORIENTED_EDGE('',*,*,#532,.F.);
#737=ORIENTED_EDGE('',*,*,#550,.T.);
#738=ORIENTED_EDGE('',*,*,#552,.T.);
#739=ORIENTED_EDGE('',*,*,#529,.F.);
#740=ORIENTED_EDGE('',*,*,#554,.T.);
#741=ORIENTED_EDGE('',*,*,#485,.F.);
#742=ORIENTED_EDGE('',*,*,#476,.F.);
#743=ORIENTED_EDGE('',*,*,#548,.T.);
#744=ORIENTED_EDGE('',*,*,#537,.F.);
#745=ORIENTED_EDGE('',*,*,#555,.F.);
#746=ORIENTED_EDGE('',*,*,#474,.F.);
#747=ORIENTED_EDGE('',*,*,#554,.F.);
#748=ORIENTED_EDGE('',*,*,#528,.F.);
#749=ORIENTED_EDGE('',*,*,#549,.T.);
#750=ORIENTED_EDGE('',*,*,#553,.T.);
#751=ORIENTED_EDGE('',*,*,#481,.F.);
#752=ORIENTED_EDGE('',*,*,#556,.F.);
#753=ORIENTED_EDGE('',*,*,#533,.F.);
#754=ORIENTED_EDGE('',*,*,#555,.T.);
#755=ORIENTED_EDGE('',*,*,#536,.F.);
#756=ORIENTED_EDGE('',*,*,#510,.F.);
#757=ORIENTED_EDGE('',*,*,#477,.F.);
#758=ORIENTED_EDGE('',*,*,#557,.F.);
#759=ORIENTED_EDGE('',*,*,#558,.F.);
#760=ORIENTED_EDGE('',*,*,#516,.F.);
#761=ORIENTED_EDGE('',*,*,#559,.F.);
#762=ORIENTED_EDGE('',*,*,#560,.F.);
#763=ORIENTED_EDGE('',*,*,#504,.F.);
#764=ORIENTED_EDGE('',*,*,#522,.T.);
#765=ORIENTED_EDGE('',*,*,#543,.T.);
#766=ORIENTED_EDGE('',*,*,#494,.F.);
#767=ORIENTED_EDGE('',*,*,#499,.F.);
#768=ORIENTED_EDGE('',*,*,#561,.F.);
#769=ORIENTED_EDGE('',*,*,#512,.F.);
#770=ORIENTED_EDGE('',*,*,#535,.F.);
#771=ORIENTED_EDGE('',*,*,#562,.T.);
#772=ORIENTED_EDGE('',*,*,#563,.F.);
#773=ORIENTED_EDGE('',*,*,#562,.F.);
#774=ORIENTED_EDGE('',*,*,#534,.F.);
#775=ORIENTED_EDGE('',*,*,#556,.T.);
#776=ORIENTED_EDGE('',*,*,#480,.F.);
#777=ORIENTED_EDGE('',*,*,#514,.F.);
#778=ORIENTED_EDGE('',*,*,#564,.T.);
#779=ORIENTED_EDGE('',*,*,#565,.T.);
#780=ORIENTED_EDGE('',*,*,#566,.T.);
#781=ORIENTED_EDGE('',*,*,#567,.T.);
#782=ORIENTED_EDGE('',*,*,#568,.T.);
#783=ORIENTED_EDGE('',*,*,#473,.F.);
#784=ORIENTED_EDGE('',*,*,#456,.T.);
#785=ORIENTED_EDGE('',*,*,#462,.T.);
#786=ORIENTED_EDGE('',*,*,#468,.T.);
#787=ORIENTED_EDGE('',*,*,#465,.T.);
#788=ORIENTED_EDGE('',*,*,#470,.T.);
#789=ORIENTED_EDGE('',*,*,#457,.T.);
#790=ORIENTED_EDGE('',*,*,#450,.T.);
#791=ORIENTED_EDGE('',*,*,#517,.F.);
#792=ORIENTED_EDGE('',*,*,#558,.T.);
#793=ORIENTED_EDGE('',*,*,#513,.T.);
#794=ORIENTED_EDGE('',*,*,#508,.T.);
#795=ORIENTED_EDGE('',*,*,#561,.T.);
#796=ORIENTED_EDGE('',*,*,#563,.T.);
#797=ORIENTED_EDGE('',*,*,#557,.T.);
#798=ORIENTED_EDGE('',*,*,#569,.T.);
#799=ORIENTED_EDGE('',*,*,#570,.T.);
#800=ORIENTED_EDGE('',*,*,#564,.F.);
#801=ORIENTED_EDGE('',*,*,#505,.T.);
#802=ORIENTED_EDGE('',*,*,#501,.T.);
#803=ORIENTED_EDGE('',*,*,#560,.T.);
#804=ORIENTED_EDGE('',*,*,#498,.T.);
#805=ORIENTED_EDGE('',*,*,#571,.F.);
#806=ORIENTED_EDGE('',*,*,#572,.T.);
#807=ORIENTED_EDGE('',*,*,#566,.F.);
#808=ORIENTED_EDGE('',*,*,#573,.F.);
#809=ORIENTED_EDGE('',*,*,#574,.F.);
#810=ORIENTED_EDGE('',*,*,#573,.T.);
#811=ORIENTED_EDGE('',*,*,#565,.F.);
#812=ORIENTED_EDGE('',*,*,#570,.F.);
#813=ORIENTED_EDGE('',*,*,#575,.F.);
#814=ORIENTED_EDGE('',*,*,#576,.T.);
#815=ORIENTED_EDGE('',*,*,#567,.F.);
#816=ORIENTED_EDGE('',*,*,#572,.F.);
#817=ORIENTED_EDGE('',*,*,#577,.F.);
#818=ORIENTED_EDGE('',*,*,#575,.T.);
#819=ORIENTED_EDGE('',*,*,#571,.T.);
#820=ORIENTED_EDGE('',*,*,#574,.T.);
#821=ORIENTED_EDGE('',*,*,#569,.F.);
#822=ORIENTED_EDGE('',*,*,#559,.T.);
#823=ORIENTED_EDGE('',*,*,#515,.F.);
#824=ORIENTED_EDGE('',*,*,#452,.T.);
#825=ORIENTED_EDGE('',*,*,#459,.F.);
#826=ORIENTED_EDGE('',*,*,#469,.F.);
#827=ORIENTED_EDGE('',*,*,#463,.T.);
#828=ORIENTED_EDGE('',*,*,#467,.F.);
#829=ORIENTED_EDGE('',*,*,#460,.F.);
#830=ORIENTED_EDGE('',*,*,#454,.T.);
#831=ORIENTED_EDGE('',*,*,#472,.F.);
#832=ORIENTED_EDGE('',*,*,#471,.T.);
#833=ORIENTED_EDGE('',*,*,#568,.F.);
#834=ORIENTED_EDGE('',*,*,#576,.F.);
#835=ORIENTED_EDGE('',*,*,#577,.T.);
#836=PLANE('',#932);
#837=PLANE('',#933);
#838=PLANE('',#943);
#839=PLANE('',#944);
#840=PLANE('',#945);
#841=PLANE('',#946);
#842=PLANE('',#947);
#843=PLANE('',#948);
#844=PLANE('',#950);
#845=PLANE('',#952);
#846=PLANE('',#953);
#847=PLANE('',#954);
#848=PLANE('',#955);
#849=PLANE('',#956);
#850=PLANE('',#957);
#851=PLANE('',#958);
#852=PLANE('',#959);
#853=PLANE('',#960);
#854=PLANE('',#961);
#855=PLANE('',#962);
#856=PLANE('',#963);
#857=PLANE('',#964);
#858=PLANE('',#965);
#859=PLANE('',#966);
#860=PLANE('',#967);
#861=PLANE('',#968);
#862=PLANE('',#969);
#863=PLANE('',#970);
#864=PLANE('',#971);
#865=PLANE('',#972);
#866=PLANE('',#973);
#867=PLANE('',#975);
#868=PLANE('',#976);
#869=PLANE('',#978);
#870=PLANE('',#988);
#871=PLANE('',#989);
#872=PLANE('',#990);
#873=ADVANCED_FACE('',(#43),#836,.F.);
#874=ADVANCED_FACE('',(#44),#837,.F.);
#875=ADVANCED_FACE('',(#45),#35,.T.);
#876=ADVANCED_FACE('',(#46),#36,.T.);
#877=ADVANCED_FACE('',(#47),#37,.F.);
#878=ADVANCED_FACE('',(#48),#838,.T.);
#879=ADVANCED_FACE('',(#49),#839,.T.);
#880=ADVANCED_FACE('',(#50,#15,#16),#840,.T.);
#881=ADVANCED_FACE('',(#51),#841,.F.);
#882=ADVANCED_FACE('',(#52),#842,.F.);
#883=ADVANCED_FACE('',(#53),#843,.F.);
#884=ADVANCED_FACE('',(#54),#844,.F.);
#885=ADVANCED_FACE('',(#55),#845,.F.);
#886=ADVANCED_FACE('',(#56,#17,#18),#846,.T.);
#887=ADVANCED_FACE('',(#57),#847,.F.);
#888=ADVANCED_FACE('',(#58),#848,.F.);
#889=ADVANCED_FACE('',(#59),#849,.F.);
#890=ADVANCED_FACE('',(#60),#850,.F.);
#891=ADVANCED_FACE('',(#61),#851,.F.);
#892=ADVANCED_FACE('',(#62),#852,.F.);
#893=ADVANCED_FACE('',(#63),#853,.F.);
#894=ADVANCED_FACE('',(#64),#854,.F.);
#895=ADVANCED_FACE('',(#65),#855,.F.);
#896=ADVANCED_FACE('',(#66),#856,.F.);
#897=ADVANCED_FACE('',(#67),#857,.F.);
#898=ADVANCED_FACE('',(#68),#858,.F.);
#899=ADVANCED_FACE('',(#69),#859,.F.);
#900=ADVANCED_FACE('',(#70),#860,.F.);
#901=ADVANCED_FACE('',(#71),#861,.F.);
#902=ADVANCED_FACE('',(#72),#862,.F.);
#903=ADVANCED_FACE('',(#73),#863,.F.);
#904=ADVANCED_FACE('',(#74),#864,.F.);
#905=ADVANCED_FACE('',(#75),#865,.F.);
#906=ADVANCED_FACE('',(#76),#866,.T.);
#907=ADVANCED_FACE('',(#77),#867,.F.);
#908=ADVANCED_FACE('',(#78),#868,.F.);
#909=ADVANCED_FACE('',(#79),#869,.T.);
#910=ADVANCED_FACE('',(#80),#38,.T.);
#911=ADVANCED_FACE('',(#81),#39,.T.);
#912=ADVANCED_FACE('',(#82),#40,.T.);
#913=ADVANCED_FACE('',(#83),#41,.F.);
#914=ADVANCED_FACE('',(#84),#870,.T.);
#915=ADVANCED_FACE('',(#85),#871,.T.);
#916=ADVANCED_FACE('',(#86),#872,.F.);
#917=ADVANCED_FACE('',(#87),#42,.T.);
#918=CLOSED_SHELL('',(#873,#874,#875,#876,#877,#878,#879,#880,#881,#882,
#883,#884,#885,#886,#887,#888,#889,#890,#891,#892,#893,#894,#895,#896,#897,
#898,#899,#900,#901,#902,#903,#904,#905,#906,#907,#908,#909,#910,#911,#912,
#913,#914,#915,#916,#917));
#919=DERIVED_UNIT_ELEMENT(#921,1.);
#920=DERIVED_UNIT_ELEMENT(#1496,-3.);
#921=(
MASS_UNIT()
NAMED_UNIT(*)
SI_UNIT(.KILO.,.GRAM.)
);
#922=DERIVED_UNIT((#919,#920));
#923=MEASURE_REPRESENTATION_ITEM('density measure',
POSITIVE_RATIO_MEASURE(7850.),#922);
#924=PROPERTY_DEFINITION_REPRESENTATION(#929,#926);
#925=PROPERTY_DEFINITION_REPRESENTATION(#930,#927);
#926=REPRESENTATION('material name',(#928),#1493);
#927=REPRESENTATION('density',(#923),#1493);
#928=DESCRIPTIVE_REPRESENTATION_ITEM('Steel','Steel');
#929=PROPERTY_DEFINITION('material property','material name',#1503);
#930=PROPERTY_DEFINITION('material property','density of part',#1503);
#931=AXIS2_PLACEMENT_3D('',#1230,#993,#994);
#932=AXIS2_PLACEMENT_3D('',#1231,#995,#996);
#933=AXIS2_PLACEMENT_3D('',#1240,#1001,#1002);
#934=AXIS2_PLACEMENT_3D('',#1249,#1007,#1008);
#935=AXIS2_PLACEMENT_3D('',#1251,#1009,#1010);
#936=AXIS2_PLACEMENT_3D('',#1254,#1012,#1013);
#937=AXIS2_PLACEMENT_3D('',#1255,#1014,#1015);
#938=AXIS2_PLACEMENT_3D('',#1257,#1016,#1017);
#939=AXIS2_PLACEMENT_3D('',#1260,#1019,#1020);
#940=AXIS2_PLACEMENT_3D('',#1261,#1021,#1022);
#941=AXIS2_PLACEMENT_3D('',#1264,#1023,#1024);
#942=AXIS2_PLACEMENT_3D('',#1268,#1026,#1027);
#943=AXIS2_PLACEMENT_3D('',#1270,#1029,#1030);
#944=AXIS2_PLACEMENT_3D('',#1273,#1033,#1034);
#945=AXIS2_PLACEMENT_3D('',#1276,#1037,#1038);
#946=AXIS2_PLACEMENT_3D('',#1330,#1066,#1067);
#947=AXIS2_PLACEMENT_3D('',#1336,#1071,#1072);
#948=AXIS2_PLACEMENT_3D('',#1345,#1077,#1078);
#949=AXIS2_PLACEMENT_3D('',#1346,#1079,#1080);
#950=AXIS2_PLACEMENT_3D('',#1350,#1083,#1084);
#951=AXIS2_PLACEMENT_3D('',#1353,#1085,#1086);
#952=AXIS2_PLACEMENT_3D('',#1360,#1091,#1092);
#953=AXIS2_PLACEMENT_3D('',#1364,#1095,#1096);
#954=AXIS2_PLACEMENT_3D('',#1410,#1121,#1122);
#955=AXIS2_PLACEMENT_3D('',#1413,#1125,#1126);
#956=AXIS2_PLACEMENT_3D('',#1416,#1129,#1130);
#957=AXIS2_PLACEMENT_3D('',#1417,#1131,#1132);
#958=AXIS2_PLACEMENT_3D('',#1419,#1134,#1135);
#959=AXIS2_PLACEMENT_3D('',#1422,#1138,#1139);
#960=AXIS2_PLACEMENT_3D('',#1425,#1142,#1143);
#961=AXIS2_PLACEMENT_3D('',#1426,#1144,#1145);
#962=AXIS2_PLACEMENT_3D('',#1427,#1146,#1147);
#963=AXIS2_PLACEMENT_3D('',#1428,#1148,#1149);
#964=AXIS2_PLACEMENT_3D('',#1431,#1152,#1153);
#965=AXIS2_PLACEMENT_3D('',#1434,#1156,#1157);
#966=AXIS2_PLACEMENT_3D('',#1436,#1159,#1160);
#967=AXIS2_PLACEMENT_3D('',#1438,#1162,#1163);
#968=AXIS2_PLACEMENT_3D('',#1440,#1165,#1166);
#969=AXIS2_PLACEMENT_3D('',#1442,#1168,#1169);
#970=AXIS2_PLACEMENT_3D('',#1443,#1170,#1171);
#971=AXIS2_PLACEMENT_3D('',#1445,#1173,#1174);
#972=AXIS2_PLACEMENT_3D('',#1446,#1175,#1176);
#973=AXIS2_PLACEMENT_3D('',#1452,#1180,#1181);
#974=AXIS2_PLACEMENT_3D('',#1453,#1182,#1183);
#975=AXIS2_PLACEMENT_3D('',#1454,#1184,#1185);
#976=AXIS2_PLACEMENT_3D('',#1458,#1188,#1189);
#977=AXIS2_PLACEMENT_3D('',#1459,#1190,#1191);
#978=AXIS2_PLACEMENT_3D('',#1460,#1192,#1193);
#979=AXIS2_PLACEMENT_3D('',#1462,#1194,#1195);
#980=AXIS2_PLACEMENT_3D('',#1466,#1197,#1198);
#981=AXIS2_PLACEMENT_3D('',#1469,#1200,#1201);
#982=AXIS2_PLACEMENT_3D('',#1470,#1202,#1203);
#983=AXIS2_PLACEMENT_3D('',#1471,#1204,#1205);
#984=AXIS2_PLACEMENT_3D('',#1473,#1206,#1207);
#985=AXIS2_PLACEMENT_3D('',#1475,#1209,#1210);
#986=AXIS2_PLACEMENT_3D('',#1476,#1211,#1212);
#987=AXIS2_PLACEMENT_3D('',#1479,#1213,#1214);
#988=AXIS2_PLACEMENT_3D('',#1482,#1217,#1218);
#989=AXIS2_PLACEMENT_3D('',#1484,#1220,#1221);
#990=AXIS2_PLACEMENT_3D('',#1488,#1224,#1225);
#991=AXIS2_PLACEMENT_3D('',#1489,#1226,#1227);
#992=AXIS2_PLACEMENT_3D('',#1490,#1228,#1229);
#993=DIRECTION('axis',(0.,0.,1.));
#994=DIRECTION('refdir',(1.,0.,0.));
#995=DIRECTION('center_axis',(0.,-1.,0.));
#996=DIRECTION('ref_axis',(0.,0.,-1.));
#997=DIRECTION('',(0.,0.,-1.));
#998=DIRECTION('',(-1.,0.,0.));
#999=DIRECTION('',(0.,0.,-1.));
#1000=DIRECTION('',(1.,0.,0.));
#1001=DIRECTION('center_axis',(0.,-1.,0.));
#1002=DIRECTION('ref_axis',(0.,0.,-1.));
#1003=DIRECTION('',(0.,0.,1.));
#1004=DIRECTION('',(1.,0.,0.));
#1005=DIRECTION('',(0.,0.,1.));
#1006=DIRECTION('',(-1.,0.,0.));
#1007=DIRECTION('center_axis',(0.,0.,1.));
#1008=DIRECTION('ref_axis',(1.,0.,0.));
#1009=DIRECTION('center_axis',(0.,0.,-1.));
#1010=DIRECTION('ref_axis',(1.,0.,0.));
#1011=DIRECTION('',(0.,0.,-1.));
#1012=DIRECTION('center_axis',(0.,0.,-1.));
#1013=DIRECTION('ref_axis',(1.,0.,0.));
#1014=DIRECTION('center_axis',(0.,0.,1.));
#1015=DIRECTION('ref_axis',(1.,0.,0.));
#1016=DIRECTION('center_axis',(0.,0.,-1.));
#1017=DIRECTION('ref_axis',(1.,0.,0.));
#1018=DIRECTION('',(0.,0.,1.));
#1019=DIRECTION('center_axis',(0.,0.,-1.));
#1020=DIRECTION('ref_axis',(1.,0.,0.));
#1021=DIRECTION('center_axis',(0.,0.,1.));
#1022=DIRECTION('ref_axis',(1.,0.,0.));
#1023=DIRECTION('center_axis',(0.,0.,1.));
#1024=DIRECTION('ref_axis',(1.,0.,0.));
#1025=DIRECTION('',(0.,0.,1.));
#1026=DIRECTION('center_axis',(0.,0.,-1.));
#1027=DIRECTION('ref_axis',(1.,0.,0.));
#1028=DIRECTION('',(0.,0.,1.));
#1029=DIRECTION('center_axis',(0.,-1.,0.));
#1030=DIRECTION('ref_axis',(1.,0.,0.));
#1031=DIRECTION('',(1.,0.,0.));
#1032=DIRECTION('',(1.,0.,0.));
#1033=DIRECTION('center_axis',(0.,-1.,0.));
#1034=DIRECTION('ref_axis',(1.,0.,0.));
#1035=DIRECTION('',(1.,0.,0.));
#1036=DIRECTION('',(1.,0.,0.));
#1037=DIRECTION('center_axis',(-0.707106781186548,-0.707106781186547,0.));
#1038=DIRECTION('ref_axis',(0.707106781186547,-0.707106781186548,0.));
#1039=DIRECTION('',(0.,0.,1.));
#1040=DIRECTION('',(0.707106781186547,-0.707106781186548,0.));
#1041=DIRECTION('',(-0.707106781186547,0.707106781186548,0.));
#1042=DIRECTION('',(0.707106781186547,-0.707106781186548,0.));
#1043=DIRECTION('',(0.,0.,-1.));
#1044=DIRECTION('',(-0.707106781186547,0.707106781186548,0.));
#1045=DIRECTION('',(0.,0.,-1.));
#1046=DIRECTION('',(-0.707106781186547,0.707106781186548,0.));
#1047=DIRECTION('',(0.,0.,1.));
#1048=DIRECTION('',(0.707106781186547,-0.707106781186548,0.));
#1049=DIRECTION('',(0.,0.,-1.));
#1050=DIRECTION('',(0.707106781186547,-0.707106781186548,0.));
#1051=DIRECTION('',(0.,0.,-1.));
#1052=DIRECTION('',(-0.707106781186547,0.707106781186548,0.));
#1053=DIRECTION('',(0.,0.,-1.));
#1054=DIRECTION('',(-0.707106781186547,0.707106781186548,0.));
#1055=DIRECTION('',(0.,0.,-1.));
#1056=DIRECTION('',(0.707106781186547,-0.707106781186548,0.));
#1057=DIRECTION('',(0.,0.,-1.));
#1058=DIRECTION('',(-0.707106781186547,0.707106781186548,0.));
#1059=DIRECTION('',(0.,0.,-1.));
#1060=DIRECTION('',(-0.707106781186547,0.707106781186548,0.));
#1061=DIRECTION('',(0.,0.,1.));
#1062=DIRECTION('',(0.707106781186547,-0.707106781186548,0.));
#1063=DIRECTION('',(0.,0.,-1.));
#1064=DIRECTION('',(0.707106781186547,-0.707106781186548,0.));
#1065=DIRECTION('',(0.,0.,-1.));
#1066=DIRECTION('center_axis',(-6.1281436111238E-16,1.,0.));
#1067=DIRECTION('ref_axis',(-1.,-6.1281436111238E-16,0.));
#1068=DIRECTION('',(0.,0.,-1.));
#1069=DIRECTION('',(-1.,-6.1281436111238E-16,0.));
#1070=DIRECTION('',(1.,6.1281436111238E-16,0.));
#1071=DIRECTION('center_axis',(-6.1281436111238E-16,1.,0.));
#1072=DIRECTION('ref_axis',(-1.,-6.1281436111238E-16,0.));
#1073=DIRECTION('',(0.,0.,1.));
#1074=DIRECTION('',(1.,6.1281436111238E-16,0.));
#1075=DIRECTION('',(0.,0.,-1.));
#1076=DIRECTION('',(-1.,-6.1281436111238E-16,0.));
#1077=DIRECTION('center_axis',(0.,0.,-1.));
#1078=DIRECTION('ref_axis',(-1.,0.,0.));
#1079=DIRECTION('center_axis',(0.,0.,1.));
#1080=DIRECTION('ref_axis',(1.,0.,0.));
#1081=DIRECTION('',(1.,0.,0.));
#1082=DIRECTION('',(-0.707106781186548,-0.707106781186547,0.));
#1083=DIRECTION('center_axis',(0.,0.,-1.));
#1084=DIRECTION('ref_axis',(1.,0.,0.));
#1085=DIRECTION('center_axis',(0.,0.,1.));
#1086=DIRECTION('ref_axis',(1.,0.,0.));
#1087=DIRECTION('',(-1.,-6.1281436111238E-16,0.));
#1088=DIRECTION('',(1.,0.,0.));
#1089=DIRECTION('',(-0.707106781186548,-0.707106781186547,0.));
#1090=DIRECTION('',(-1.,-6.1281436111238E-16,0.));
#1091=DIRECTION('center_axis',(-6.1281436111238E-16,1.,0.));
#1092=DIRECTION('ref_axis',(-1.,-6.1281436111238E-16,0.));
#1093=DIRECTION('',(0.,0.,-1.));
#1094=DIRECTION('',(-1.,-6.1281436111238E-16,0.));
#1095=DIRECTION('center_axis',(0.707106781186547,-0.707106781186548,0.));
#1096=DIRECTION('ref_axis',(0.707106781186548,0.707106781186547,0.));
#1097=DIRECTION('',(0.707106781186548,0.707106781186547,0.));
#1098=DIRECTION('',(0.,0.,1.));
#1099=DIRECTION('',(-0.707106781186548,-0.707106781186547,0.));
#1100=DIRECTION('',(-0.707106781186548,-0.707106781186547,0.));
#1101=DIRECTION('',(0.,0.,1.));
#1102=DIRECTION('',(0.707106781186548,0.707106781186547,0.));
#1103=DIRECTION('',(0.,0.,1.));
#1104=DIRECTION('',(-0.707106781186548,-0.707106781186547,0.));
#1105=DIRECTION('',(0.,0.,1.));
#1106=DIRECTION('',(-0.707106781186548,-0.707106781186547,0.));
#1107=DIRECTION('',(0.,0.,1.));
#1108=DIRECTION('',(0.707106781186548,0.707106781186547,0.));
#1109=DIRECTION('',(0.,0.,1.));
#1110=DIRECTION('',(0.707106781186548,0.707106781186547,0.));
#1111=DIRECTION('',(0.,0.,1.));
#1112=DIRECTION('',(-0.707106781186548,-0.707106781186547,0.));
#1113=DIRECTION('',(0.,0.,1.));
#1114=DIRECTION('',(0.707106781186548,0.707106781186547,0.));
#1115=DIRECTION('',(0.,0.,1.));
#1116=DIRECTION('',(0.707106781186548,0.707106781186547,0.));
#1117=DIRECTION('',(0.,0.,-1.));
#1118=DIRECTION('',(0.,0.,1.));
#1119=DIRECTION('',(-0.707106781186548,-0.707106781186547,0.));
#1120=DIRECTION('',(0.,0.,1.));
#1121=DIRECTION('center_axis',(0.,0.,-1.));
#1122=DIRECTION('ref_axis',(1.,0.,0.));
#1123=DIRECTION('',(1.,0.,0.));
#1124=DIRECTION('',(1.,0.,0.));
#1125=DIRECTION('center_axis',(0.,0.,1.));
#1126=DIRECTION('ref_axis',(-1.,0.,0.));
#1127=DIRECTION('',(-1.,0.,0.));
#1128=DIRECTION('',(-1.,0.,0.));
#1129=DIRECTION('center_axis',(0.,-1.,0.));
#1130=DIRECTION('ref_axis',(0.,0.,-1.));
#1131=DIRECTION('center_axis',(0.,-1.,0.));
#1132=DIRECTION('ref_axis',(0.,0.,-1.));
#1133=DIRECTION('',(-1.,0.,0.));
#1134=DIRECTION('center_axis',(0.,0.,-1.));
#1135=DIRECTION('ref_axis',(1.,0.,0.));
#1136=DIRECTION('',(1.,0.,0.));
#1137=DIRECTION('',(1.,0.,0.));
#1138=DIRECTION('center_axis',(0.,0.,1.));
#1139=DIRECTION('ref_axis',(-1.,0.,0.));
#1140=DIRECTION('',(-1.,0.,0.));
#1141=DIRECTION('',(-1.,0.,0.));
#1142=DIRECTION('center_axis',(0.,-1.,0.));
#1143=DIRECTION('ref_axis',(0.,0.,-1.));
#1144=DIRECTION('center_axis',(0.,-1.,0.));
#1145=DIRECTION('ref_axis',(0.,0.,-1.));
#1146=DIRECTION('center_axis',(0.,-1.,0.));
#1147=DIRECTION('ref_axis',(0.,0.,-1.));
#1148=DIRECTION('center_axis',(0.,-1.,0.));
#1149=DIRECTION('ref_axis',(0.,0.,-1.));
#1150=DIRECTION('',(1.,0.,0.));
#1151=DIRECTION('',(-1.,0.,0.));
#1152=DIRECTION('center_axis',(0.,-1.,0.));
#1153=DIRECTION('ref_axis',(0.,0.,-1.));
#1154=DIRECTION('',(-1.,0.,0.));
#1155=DIRECTION('',(1.,0.,0.));
#1156=DIRECTION('center_axis',(0.,0.,-1.));
#1157=DIRECTION('ref_axis',(1.,0.,0.));
#1158=DIRECTION('',(1.,0.,0.));
#1159=DIRECTION('center_axis',(0.,0.,1.));
#1160=DIRECTION('ref_axis',(-1.,0.,0.));
#1161=DIRECTION('',(-1.,0.,0.));
#1162=DIRECTION('center_axis',(0.,-1.,0.));
#1163=DIRECTION('ref_axis',(0.,0.,-1.));
#1164=DIRECTION('',(-1.,0.,0.));
#1165=DIRECTION('center_axis',(0.,0.,-1.));
#1166=DIRECTION('ref_axis',(1.,0.,0.));
#1167=DIRECTION('',(1.,0.,0.));
#1168=DIRECTION('center_axis',(0.,0.,1.));
#1169=DIRECTION('ref_axis',(-1.,0.,0.));
#1170=DIRECTION('center_axis',(0.,-1.,0.));
#1171=DIRECTION('ref_axis',(0.,0.,-1.));
#1172=DIRECTION('',(-1.,0.,0.));
#1173=DIRECTION('center_axis',(0.,-1.,0.));
#1174=DIRECTION('ref_axis',(0.,0.,-1.));
#1175=DIRECTION('center_axis',(0.,-1.,0.));
#1176=DIRECTION('ref_axis',(0.,0.,-1.));
#1177=DIRECTION('',(0.,0.,-1.));
#1178=DIRECTION('',(-1.,0.,0.));
#1179=DIRECTION('',(1.,0.,0.));
#1180=DIRECTION('center_axis',(0.,0.,-1.));
#1181=DIRECTION('ref_axis',(-1.,0.,0.));
#1182=DIRECTION('center_axis',(0.,0.,-1.));
#1183=DIRECTION('ref_axis',(1.,0.,0.));
#1184=DIRECTION('center_axis',(-6.1281436111238E-16,1.,0.));
#1185=DIRECTION('ref_axis',(-1.,-6.1281436111238E-16,0.));
#1186=DIRECTION('',(0.,0.,1.));
#1187=DIRECTION('',(-1.,-6.1281436111238E-16,0.));
#1188=DIRECTION('center_axis',(0.,0.,1.));
#1189=DIRECTION('ref_axis',(1.,0.,0.));
#1190=DIRECTION('center_axis',(0.,0.,-1.));
#1191=DIRECTION('ref_axis',(1.,0.,0.));
#1192=DIRECTION('center_axis',(0.,0.,1.));
#1193=DIRECTION('ref_axis',(1.,0.,0.));
#1194=DIRECTION('center_axis',(0.,0.,-1.));
#1195=DIRECTION('ref_axis',(1.,0.,0.));
#1196=DIRECTION('',(-1.,0.,0.));
#1197=DIRECTION('center_axis',(0.,0.,-1.));
#1198=DIRECTION('ref_axis',(1.,0.,0.));
#1199=DIRECTION('',(-1.,0.,0.));
#1200=DIRECTION('center_axis',(0.,0.,-1.));
#1201=DIRECTION('ref_axis',(1.,0.,0.));
#1202=DIRECTION('center_axis',(0.,0.,1.));
#1203=DIRECTION('ref_axis',(1.,0.,0.));
#1204=DIRECTION('center_axis',(0.,0.,1.));
#1205=DIRECTION('ref_axis',(1.,0.,0.));
#1206=DIRECTION('center_axis',(0.,0.,-1.));
#1207=DIRECTION('ref_axis',(1.,0.,0.));
#1208=DIRECTION('',(0.,0.,1.));
#1209=DIRECTION('center_axis',(0.,0.,1.));
#1210=DIRECTION('ref_axis',(1.,0.,0.));
#1211=DIRECTION('center_axis',(0.,0.,1.));
#1212=DIRECTION('ref_axis',(1.,0.,0.));
#1213=DIRECTION('center_axis',(0.,0.,1.));
#1214=DIRECTION('ref_axis',(1.,0.,0.));
#1215=DIRECTION('',(0.,0.,1.));
#1216=DIRECTION('',(0.,0.,1.));
#1217=DIRECTION('center_axis',(0.,1.,0.));
#1218=DIRECTION('ref_axis',(-1.,0.,0.));
#1219=DIRECTION('',(1.,0.,0.));
#1220=DIRECTION('center_axis',(0.,1.,0.));
#1221=DIRECTION('ref_axis',(-1.,0.,0.));
#1222=DIRECTION('',(1.,0.,0.));
#1223=DIRECTION('',(0.,0.,-1.));
#1224=DIRECTION('center_axis',(0.,0.,1.));
#1225=DIRECTION('ref_axis',(1.,0.,0.));
#1226=DIRECTION('center_axis',(0.,0.,-1.));
#1227=DIRECTION('ref_axis',(1.,0.,0.));
#1228=DIRECTION('center_axis',(0.,0.,1.));
#1229=DIRECTION('ref_axis',(1.,0.,0.));
#1230=CARTESIAN_POINT('',(0.,0.,0.));
#1231=CARTESIAN_POINT('Origin',(0.,36.5,37.5));
#1232=CARTESIAN_POINT('',(12.2667650519422,36.5,75.));
#1233=CARTESIAN_POINT('',(12.2667650519422,36.5,0.));
#1234=CARTESIAN_POINT('',(12.2667650519422,36.5,18.75));
#1235=CARTESIAN_POINT('',(12.4899959969381,36.4999999999681,75.));
#1236=CARTESIAN_POINT('',(0.,36.5,75.));
#1237=CARTESIAN_POINT('',(12.4899959969381,36.4999999999681,0.));
#1238=CARTESIAN_POINT('',(12.4899959967968,36.5,0.));
#1239=CARTESIAN_POINT('',(0.,36.5,0.));
#1240=CARTESIAN_POINT('Origin',(0.,36.5,37.5));
#1241=CARTESIAN_POINT('',(-12.2667650519393,36.5,0.));
#1242=CARTESIAN_POINT('',(-12.2667650519393,36.5,75.));
#1243=CARTESIAN_POINT('',(-12.2667650519393,36.5,18.75));
#1244=CARTESIAN_POINT('',(-12.4899959969381,36.4999999999681,0.));
#1245=CARTESIAN_POINT('',(0.,36.5,0.));
#1246=CARTESIAN_POINT('',(-12.4899959969381,36.4999999999681,75.));
#1247=CARTESIAN_POINT('',(-12.4899959967968,36.5,0.));
#1248=CARTESIAN_POINT('',(0.,36.5,75.));
#1249=CARTESIAN_POINT('Origin',(0.,12.,0.));
#1250=CARTESIAN_POINT('',(26.6171707079023,18.9120346864283,75.));
#1251=CARTESIAN_POINT('Origin',(0.,12.,75.));
#1252=CARTESIAN_POINT('',(26.6171707079023,18.9120346864283,0.));
#1253=CARTESIAN_POINT('',(26.6171707079023,18.9120346864283,0.));
#1254=CARTESIAN_POINT('Origin',(0.,12.,0.));
#1255=CARTESIAN_POINT('Origin',(0.,12.,0.));
#1256=CARTESIAN_POINT('',(-26.6171707079023,18.9120346864283,0.));
#1257=CARTESIAN_POINT('Origin',(0.,12.,0.));
#1258=CARTESIAN_POINT('',(-26.6171707079023,18.9120346864283,75.));
#1259=CARTESIAN_POINT('',(-26.6171707079023,18.9120346864283,0.));
#1260=CARTESIAN_POINT('Origin',(0.,12.,75.));
#1261=CARTESIAN_POINT('Origin',(0.,12.,0.));
#1262=CARTESIAN_POINT('',(19.8298708138407,18.9120346864283,0.));
#1263=CARTESIAN_POINT('',(-19.8298708138407,18.9120346864283,0.));
#1264=CARTESIAN_POINT('Origin',(0.,12.,0.));
#1265=CARTESIAN_POINT('',(19.8298708138407,18.9120346864283,75.));
#1266=CARTESIAN_POINT('',(19.8298708138407,18.9120346864283,0.));
#1267=CARTESIAN_POINT('',(-19.8298708138407,18.9120346864283,75.));
#1268=CARTESIAN_POINT('Origin',(0.,12.,75.));
#1269=CARTESIAN_POINT('',(-19.8298708138407,18.9120346864283,0.));
#1270=CARTESIAN_POINT('Origin',(-26.1002639161678,18.9120346864283,0.));
#1271=CARTESIAN_POINT('',(-26.1002639161678,18.9120346864283,0.));
#1272=CARTESIAN_POINT('',(-26.1002639161678,18.9120346864283,75.));
#1273=CARTESIAN_POINT('Origin',(19.8298708138407,18.9120346864283,0.));
#1274=CARTESIAN_POINT('',(-26.1002639161678,18.9120346864283,0.));
#1275=CARTESIAN_POINT('',(-26.1002639161678,18.9120346864283,75.));
#1276=CARTESIAN_POINT('Origin',(-26.223177958742,50.4564129068028,0.));
#1277=CARTESIAN_POINT('',(-23.732515938745,47.9657508868058,0.));
#1278=CARTESIAN_POINT('',(-23.732515938745,47.9657508868058,75.));
#1279=CARTESIAN_POINT('',(-23.732515938745,47.9657508868058,0.));
#1280=CARTESIAN_POINT('',(-26.223177958742,50.4564129068028,0.));
#1281=CARTESIAN_POINT('',(-10.8032802423558,35.0365151904166,75.));
#1282=CARTESIAN_POINT('',(-14.9120621881136,39.1452971361743,16.5482125171923));
#1283=CARTESIAN_POINT('',(-12.9120621881136,37.1452971361743,16.5482125171923));
#1284=CARTESIAN_POINT('',(-12.3752227461713,36.6084576942321,16.5482125171923));
#1285=CARTESIAN_POINT('',(-12.9120621881136,37.1452971361743,11.5482125171923));
#1286=CARTESIAN_POINT('',(-12.9120621881136,37.1452971361743,7.02410625859614));
#1287=CARTESIAN_POINT('',(-14.9120621881136,39.1452971361743,11.5482125171923));
#1288=CARTESIAN_POINT('',(-21.3022444402557,45.5354793883164,11.5482125171923));
#1289=CARTESIAN_POINT('',(-14.9120621881136,39.1452971361743,10.));
#1290=CARTESIAN_POINT('',(-14.9120621881136,39.1452971361743,5.));
#1291=CARTESIAN_POINT('',(-21.7401502656003,45.973385213661,10.));
#1292=CARTESIAN_POINT('',(-20.8176200734278,45.0508550214886,10.));
#1293=CARTESIAN_POINT('',(-21.7401502656003,45.973385213661,27.));
#1294=CARTESIAN_POINT('',(-21.7401502656003,45.973385213661,5.));
#1295=CARTESIAN_POINT('',(-14.9120621881136,39.1452971361743,27.));
#1296=CARTESIAN_POINT('',(-13.1115889793703,37.344823927431,27.));
#1297=CARTESIAN_POINT('',(-14.9120621881136,39.1452971361743,25.9185401223037));
#1298=CARTESIAN_POINT('',(-14.9120621881136,39.1452971361743,5.));
#1299=CARTESIAN_POINT('',(-12.9120621881136,37.1452971361743,25.9185401223037));
#1300=CARTESIAN_POINT('',(-12.3752227461713,36.6084576942321,25.9185401223037));
#1301=CARTESIAN_POINT('',(-12.9120621881136,37.1452971361743,17.9185401223037));
#1302=CARTESIAN_POINT('',(-12.9120621881136,37.1452971361743,10.9592700611518));
#1303=CARTESIAN_POINT('',(-14.9120621881136,39.1452971361743,17.9185401223037));
#1304=CARTESIAN_POINT('',(-21.3158527050332,45.549087653094,17.9185401223037));
#1305=CARTESIAN_POINT('',(-14.9120621881136,39.1452971361743,5.));
#1306=CARTESIAN_POINT('',(-12.9120621881136,37.1452971361743,55.9185401223037));
#1307=CARTESIAN_POINT('',(-14.9120621881136,39.1452971361743,55.9185401223037));
#1308=CARTESIAN_POINT('',(-21.3158527050332,45.549087653094,55.9185401223037));
#1309=CARTESIAN_POINT('',(-14.9120621881136,39.1452971361743,54.5482125171923));
#1310=CARTESIAN_POINT('',(-14.9120621881136,39.1452971361743,24.5));
#1311=CARTESIAN_POINT('',(-12.9120621881136,37.1452971361743,54.5482125171923));
#1312=CARTESIAN_POINT('',(-12.3752227461713,36.6084576942321,54.5482125171923));
#1313=CARTESIAN_POINT('',(-12.9120621881136,37.1452971361743,49.5482125171923));
#1314=CARTESIAN_POINT('',(-12.9120621881136,37.1452971361743,26.0241062585961));
#1315=CARTESIAN_POINT('',(-14.9120621881136,39.1452971361743,49.5482125171923));
#1316=CARTESIAN_POINT('',(-21.3022444402557,45.5354793883164,49.5482125171923));
#1317=CARTESIAN_POINT('',(-14.9120621881136,39.1452971361743,48.));
#1318=CARTESIAN_POINT('',(-14.9120621881136,39.1452971361743,24.5));
#1319=CARTESIAN_POINT('',(-21.7401502656003,45.973385213661,48.));
#1320=CARTESIAN_POINT('',(-20.8176200734278,45.0508550214886,48.));
#1321=CARTESIAN_POINT('',(-21.7401502656003,45.973385213661,65.));
#1322=CARTESIAN_POINT('',(-21.7401502656003,45.973385213661,24.5));
#1323=CARTESIAN_POINT('',(-14.9120621881136,39.1452971361743,65.));
#1324=CARTESIAN_POINT('',(-13.1115889793703,37.344823927431,65.));
#1325=CARTESIAN_POINT('',(-14.9120621881136,39.1452971361743,63.9185401223037));
#1326=CARTESIAN_POINT('',(-14.9120621881136,39.1452971361743,24.5));
#1327=CARTESIAN_POINT('',(-12.9120621881136,37.1452971361743,63.9185401223037));
#1328=CARTESIAN_POINT('',(-12.3752227461713,36.6084576942321,63.9185401223037));
#1329=CARTESIAN_POINT('',(-12.9120621881136,37.1452971361743,29.9592700611518));
#1330=CARTESIAN_POINT('Origin',(21.7401502656032,45.9733852136611,49.));
#1331=CARTESIAN_POINT('',(-19.3986759036464,45.9733852136611,65.));
#1332=CARTESIAN_POINT('',(-19.3986759036463,45.973385213661,48.));
#1333=CARTESIAN_POINT('',(-19.3986759036463,45.973385213661,0.));
#1334=CARTESIAN_POINT('',(10.8700751328023,45.9733852136611,65.));
#1335=CARTESIAN_POINT('',(21.7401502656032,45.9733852136611,48.));
#1336=CARTESIAN_POINT('Origin',(21.7401502656032,45.9733852136611,49.));
#1337=CARTESIAN_POINT('',(18.2126240055434,45.9733852136611,48.));
#1338=CARTESIAN_POINT('',(18.2126240055434,45.9733852136611,65.));
#1339=CARTESIAN_POINT('',(18.2126240055434,45.9733852136611,0.));
#1340=CARTESIAN_POINT('',(21.7401502656032,45.9733852136611,48.));
#1341=CARTESIAN_POINT('',(21.7401502656032,45.9733852136611,48.));
#1342=CARTESIAN_POINT('',(21.7401502656032,45.9733852136611,65.));
#1343=CARTESIAN_POINT('',(21.7401502656032,45.9733852136611,24.5));
#1344=CARTESIAN_POINT('',(10.8700751328023,45.9733852136611,65.));
#1345=CARTESIAN_POINT('Origin',(1.46105350040671E-12,42.8093411749177,48.));
#1346=CARTESIAN_POINT('Origin',(-0.593025949051514,92.5895888171661,48.));
#1347=CARTESIAN_POINT('',(14.9120621881165,39.1452971361743,48.));
#1348=CARTESIAN_POINT('',(-15.4120621881136,39.1452971361743,48.));
#1349=CARTESIAN_POINT('',(6.04052116750772,30.2737561155656,48.));
#1350=CARTESIAN_POINT('Origin',(1.46105350040671E-12,42.8093411749177,10.));
#1351=CARTESIAN_POINT('',(-19.3986759036463,45.973385213661,10.));
#1352=CARTESIAN_POINT('',(18.2126240055434,45.9733852136611,10.));
#1353=CARTESIAN_POINT('Origin',(-0.593025949051514,92.5895888171661,10.));
#1354=CARTESIAN_POINT('',(21.7401502656032,45.9733852136611,10.));
#1355=CARTESIAN_POINT('',(14.9120621881165,39.1452971361743,10.));
#1356=CARTESIAN_POINT('',(-15.4120621881136,39.1452971361743,10.));
#1357=CARTESIAN_POINT('',(21.7401502656032,45.9733852136611,10.));
#1358=CARTESIAN_POINT('',(6.04052116750772,30.2737561155656,10.));
#1359=CARTESIAN_POINT('',(21.7401502656032,45.9733852136611,10.));
#1360=CARTESIAN_POINT('Origin',(21.7401502656032,45.9733852136611,10.));
#1361=CARTESIAN_POINT('',(-19.3986759036463,45.973385213661,27.));
#1362=CARTESIAN_POINT('',(-19.3986759036463,45.973385213661,0.));
#1363=CARTESIAN_POINT('',(21.7401502656032,45.9733852136611,27.));
#1364=CARTESIAN_POINT('Origin',(12.081042335014,36.3142772830719,0.));
#1365=CARTESIAN_POINT('',(25.223177958745,49.4564129068028,0.));
#1366=CARTESIAN_POINT('',(12.081042335014,36.3142772830719,0.));
#1367=CARTESIAN_POINT('',(25.223177958745,49.4564129068028,75.));
#1368=CARTESIAN_POINT('',(25.2231779587449,49.4564129068028,0.));
#1369=CARTESIAN_POINT('',(3.73221243049254,27.9654473785504,75.));
#1370=CARTESIAN_POINT('',(14.9120621881165,39.1452971361743,55.9185401223037));
#1371=CARTESIAN_POINT('',(12.9120621881165,37.1452971361743,55.9185401223037));
#1372=CARTESIAN_POINT('',(5.2922885359023,29.5255234839601,55.9185401223037));
#1373=CARTESIAN_POINT('',(12.9120621881165,37.1452971361743,63.9185401223037));
#1374=CARTESIAN_POINT('',(12.9120621881165,37.1452971361743,29.9592700611518));
#1375=CARTESIAN_POINT('',(14.9120621881165,39.1452971361743,63.9185401223037));
#1376=CARTESIAN_POINT('',(14.2329184947642,38.4661534428221,63.9185401223037));
#1377=CARTESIAN_POINT('',(14.9120621881165,39.1452971361743,65.));
#1378=CARTESIAN_POINT('',(14.9120621881165,39.1452971361743,24.5));
#1379=CARTESIAN_POINT('',(10.6845477242223,34.9177826722802,65.));
#1380=CARTESIAN_POINT('',(14.9120621881165,39.1452971361743,49.5482125171923));
#1381=CARTESIAN_POINT('',(14.9120621881165,39.1452971361743,24.5));
#1382=CARTESIAN_POINT('',(12.9120621881165,37.1452971361743,49.5482125171923));
#1383=CARTESIAN_POINT('',(5.30589680067987,29.5391317487377,49.5482125171923));
#1384=CARTESIAN_POINT('',(12.9120621881165,37.1452971361743,54.5482125171923));
#1385=CARTESIAN_POINT('',(12.9120621881165,37.1452971361743,26.0241062585961));
#1386=CARTESIAN_POINT('',(14.9120621881165,39.1452971361743,54.5482125171923));
#1387=CARTESIAN_POINT('',(14.2329184947642,38.4661534428221,54.5482125171923));
#1388=CARTESIAN_POINT('',(14.9120621881165,39.1452971361743,24.5));
#1389=CARTESIAN_POINT('',(12.9120621881165,37.1452971361743,16.5482125171923));
#1390=CARTESIAN_POINT('',(14.9120621881165,39.1452971361743,16.5482125171923));
#1391=CARTESIAN_POINT('',(14.2329184947642,38.4661534428221,16.5482125171923));
#1392=CARTESIAN_POINT('',(14.9120621881165,39.1452971361743,17.9185401223037));
#1393=CARTESIAN_POINT('',(14.9120621881165,39.1452971361743,5.));
#1394=CARTESIAN_POINT('',(12.9120621881165,37.1452971361743,17.9185401223037));
#1395=CARTESIAN_POINT('',(5.2922885359023,29.5255234839601,17.9185401223037));
#1396=CARTESIAN_POINT('',(12.9120621881165,37.1452971361743,25.9185401223037));
#1397=CARTESIAN_POINT('',(12.9120621881165,37.1452971361743,10.9592700611518));
#1398=CARTESIAN_POINT('',(14.9120621881165,39.1452971361743,25.9185401223037));
#1399=CARTESIAN_POINT('',(14.2329184947642,38.4661534428221,25.9185401223037));
#1400=CARTESIAN_POINT('',(14.9120621881165,39.1452971361743,27.));
#1401=CARTESIAN_POINT('',(14.9120621881165,39.1452971361743,5.));
#1402=CARTESIAN_POINT('',(21.7401502656032,45.9733852136611,27.));
#1403=CARTESIAN_POINT('',(13.7465522615652,37.9797872096231,27.));
#1404=CARTESIAN_POINT('',(21.7401502656032,45.9733852136611,5.));
#1405=CARTESIAN_POINT('',(14.9120621881165,39.1452971361743,11.5482125171923));
#1406=CARTESIAN_POINT('',(14.9120621881165,39.1452971361743,5.));
#1407=CARTESIAN_POINT('',(12.9120621881165,37.1452971361743,11.5482125171923));
#1408=CARTESIAN_POINT('',(5.30589680067987,29.5391317487377,11.5482125171923));
#1409=CARTESIAN_POINT('',(12.9120621881165,37.1452971361743,7.02410625859614));
#1410=CARTESIAN_POINT('Origin',(-17.9049927145353,39.1452971361743,55.9185401223037));
#1411=CARTESIAN_POINT('',(-17.9049927145353,37.1452971361743,55.9185401223037));
#1412=CARTESIAN_POINT('',(-16.6585274513244,39.1452971361743,55.9185401223037));
#1413=CARTESIAN_POINT('Origin',(17.8575271209124,39.1452971361743,63.9185401223037));
#1414=CARTESIAN_POINT('',(1.2227324663994,39.1452971361743,63.9185401223037));
#1415=CARTESIAN_POINT('',(17.8575271209124,37.1452971361743,63.9185401223037));
#1416=CARTESIAN_POINT('Origin',(-0.0237327968114465,37.1452971361743,59.9185401223037));
#1417=CARTESIAN_POINT('Origin',(-15.4120621881136,39.1452971361743,49.));
#1418=CARTESIAN_POINT('',(-7.70603109405607,39.1452971361743,65.));
#1419=CARTESIAN_POINT('Origin',(-17.850559655425,39.1452971361743,49.5482125171923));
#1420=CARTESIAN_POINT('',(17.8575271209124,37.1452971361743,49.5482125171923));
#1421=CARTESIAN_POINT('',(-16.6313109217693,39.1452971361743,49.5482125171923));
#1422=CARTESIAN_POINT('Origin',(17.8575271209124,39.1452971361743,54.5482125171923));
#1423=CARTESIAN_POINT('',(1.2227324663994,39.1452971361743,54.5482125171923));
#1424=CARTESIAN_POINT('',(-17.850559655425,37.1452971361743,54.5482125171923));
#1425=CARTESIAN_POINT('Origin',(0.00348373274368763,37.1452971361743,52.0482125171923));
#1426=CARTESIAN_POINT('Origin',(-15.4120621881136,39.1452971361743,49.));
#1427=CARTESIAN_POINT('Origin',(-15.4120621881136,39.1452971361743,49.));
#1428=CARTESIAN_POINT('Origin',(0.00348373274368763,37.1452971361743,14.0482125171923));
#1429=CARTESIAN_POINT('',(17.8575271209124,37.1452971361743,11.5482125171923));
#1430=CARTESIAN_POINT('',(-17.850559655425,37.1452971361743,16.5482125171923));
#1431=CARTESIAN_POINT('Origin',(-0.0237327968114465,37.1452971361743,21.9185401223037));
#1432=CARTESIAN_POINT('',(17.8575271209124,37.1452971361743,25.9185401223037));
#1433=CARTESIAN_POINT('',(-17.9049927145353,37.1452971361743,17.9185401223037));
#1434=CARTESIAN_POINT('Origin',(-17.9049927145353,39.1452971361743,17.9185401223037));
#1435=CARTESIAN_POINT('',(-16.6585274513244,39.1452971361743,17.9185401223037));
#1436=CARTESIAN_POINT('Origin',(17.8575271209124,39.1452971361743,25.9185401223037));
#1437=CARTESIAN_POINT('',(1.2227324663994,39.1452971361743,25.9185401223037));
#1438=CARTESIAN_POINT('Origin',(-15.4120621881136,39.1452971361743,10.));
#1439=CARTESIAN_POINT('',(1.2227324663994,39.1452971361743,16.5482125171923));
#1440=CARTESIAN_POINT('Origin',(-17.850559655425,39.1452971361743,11.5482125171923));
#1441=CARTESIAN_POINT('',(-16.6313109217693,39.1452971361743,11.5482125171923));
#1442=CARTESIAN_POINT('Origin',(17.8575271209124,39.1452971361743,16.5482125171923));
#1443=CARTESIAN_POINT('Origin',(-15.4120621881136,39.1452971361743,10.));
#1444=CARTESIAN_POINT('',(-15.4120621881136,39.1452971361743,27.));
#1445=CARTESIAN_POINT('Origin',(-15.4120621881136,39.1452971361743,10.));
#1446=CARTESIAN_POINT('Origin',(26.223177958745,49.4564129068028,0.));
#1447=CARTESIAN_POINT('',(25.2188326532236,49.4564129068028,75.));
#1448=CARTESIAN_POINT('',(25.2188326532236,49.4564129068028,0.));
#1449=CARTESIAN_POINT('',(25.2188326532236,49.4564129068028,0.));
#1450=CARTESIAN_POINT('',(13.1115889793725,49.4564129068028,75.));
#1451=CARTESIAN_POINT('',(13.1115889793725,49.4564129068028,0.));
#1452=CARTESIAN_POINT('Origin',(1.46105350040671E-12,42.8093411749177,65.));
#1453=CARTESIAN_POINT('Origin',(-0.593025949051514,92.5895888171661,65.));
#1454=CARTESIAN_POINT('Origin',(21.7401502656032,45.9733852136611,10.));
#1455=CARTESIAN_POINT('',(18.2126240055434,45.9733852136611,27.));
#1456=CARTESIAN_POINT('',(18.2126240055434,45.9733852136611,0.));
#1457=CARTESIAN_POINT('',(21.7401502656032,45.9733852136611,27.));
#1458=CARTESIAN_POINT('Origin',(1.46105350040671E-12,42.8093411749177,27.));
#1459=CARTESIAN_POINT('Origin',(-0.593025949051514,92.5895888171661,27.));
#1460=CARTESIAN_POINT('Origin',(-0.593025949051516,92.5895888171661,75.));
#1461=CARTESIAN_POINT('',(45.4021196200313,72.3122740862391,75.));
#1462=CARTESIAN_POINT('Origin',(-0.593025949051514,92.5895888171661,75.));
#1463=CARTESIAN_POINT('',(35.0186421851841,72.3122740862391,75.));
#1464=CARTESIAN_POINT('',(-44.9439431845509,72.3122740862391,75.));
#1465=CARTESIAN_POINT('',(-36.2046940832871,72.3122740862391,75.));
#1466=CARTESIAN_POINT('Origin',(-0.593025949051514,92.5895888171661,75.));
#1467=CARTESIAN_POINT('',(-46.5881715181343,72.3122740862391,75.));
#1468=CARTESIAN_POINT('',(-44.9439431845509,72.3122740862391,75.));
#1469=CARTESIAN_POINT('Origin',(-0.593025949051514,92.5895888171661,75.));
#1470=CARTESIAN_POINT('Origin',(-0.593025949051514,92.5895888171661,0.));
#1471=CARTESIAN_POINT('Origin',(-0.593025949051514,92.5895888171661,0.));
#1472=CARTESIAN_POINT('',(45.4021196200313,72.3122740862391,0.));
#1473=CARTESIAN_POINT('Origin',(-0.593025949051514,92.5895888171661,0.));
#1474=CARTESIAN_POINT('',(45.4021196200313,72.3122740862391,0.));
#1475=CARTESIAN_POINT('Origin',(-0.593025949051514,92.5895888171661,0.));
#1476=CARTESIAN_POINT('Origin',(-0.593025949051514,92.5895888171661,0.));
#1477=CARTESIAN_POINT('',(-36.2046940832871,72.3122740862391,0.));
#1478=CARTESIAN_POINT('',(35.0186421851841,72.3122740862391,0.));
#1479=CARTESIAN_POINT('Origin',(-0.593025949051514,92.5895888171661,0.));
#1480=CARTESIAN_POINT('',(-36.2046940832871,72.3122740862391,0.));
#1481=CARTESIAN_POINT('',(35.0186421851841,72.3122740862391,0.));
#1482=CARTESIAN_POINT('Origin',(43.7578912864478,72.3122740862391,0.));
#1483=CARTESIAN_POINT('',(-44.9439431845509,72.3122740862391,0.));
#1484=CARTESIAN_POINT('Origin',(-36.2046940832871,72.3122740862391,0.));
#1485=CARTESIAN_POINT('',(-46.5881715181343,72.3122740862391,0.));
#1486=CARTESIAN_POINT('',(-44.9439431845509,72.3122740862391,0.));
#1487=CARTESIAN_POINT('',(-46.5881715181343,72.3122740862391,0.));
#1488=CARTESIAN_POINT('Origin',(-0.593025949051516,92.5895888171661,0.));
#1489=CARTESIAN_POINT('Origin',(-0.593025949051514,92.5895888171661,0.));
#1490=CARTESIAN_POINT('Origin',(-0.593025949051514,92.5895888171661,0.));
#1491=UNCERTAINTY_MEASURE_WITH_UNIT(LENGTH_MEASURE(0.01),#1495,
'DISTANCE_ACCURACY_VALUE',
'Maximum model space distance between geometric entities at asserted c
onnectivities');
#1492=UNCERTAINTY_MEASURE_WITH_UNIT(LENGTH_MEASURE(0.01),#1495,
'DISTANCE_ACCURACY_VALUE',
'Maximum model space distance between geometric entities at asserted c
onnectivities');
#1493=(
GEOMETRIC_REPRESENTATION_CONTEXT(3)
GLOBAL_UNCERTAINTY_ASSIGNED_CONTEXT((#1491))
GLOBAL_UNIT_ASSIGNED_CONTEXT((#1495,#1497,#1498))
REPRESENTATION_CONTEXT('','3D')
);
#1494=(
GEOMETRIC_REPRESENTATION_CONTEXT(3)
GLOBAL_UNCERTAINTY_ASSIGNED_CONTEXT((#1492))
GLOBAL_UNIT_ASSIGNED_CONTEXT((#1495,#1497,#1498))
REPRESENTATION_CONTEXT('','3D')
);
#1495=(
LENGTH_UNIT()
NAMED_UNIT(*)
SI_UNIT(.MILLI.,.METRE.)
);
#1496=(
LENGTH_UNIT()
NAMED_UNIT(*)
SI_UNIT($,.METRE.)
);
#1497=(
NAMED_UNIT(*)
PLANE_ANGLE_UNIT()
SI_UNIT($,.RADIAN.)
);
#1498=(
NAMED_UNIT(*)
SI_UNIT($,.STERADIAN.)
SOLID_ANGLE_UNIT()
);
#1499=SHAPE_DEFINITION_REPRESENTATION(#1500,#1501);
#1500=PRODUCT_DEFINITION_SHAPE('',$,#1503);
#1501=SHAPE_REPRESENTATION('',(#931),#1493);
#1502=PRODUCT_DEFINITION_CONTEXT('part definition',#1507,'design');
#1503=PRODUCT_DEFINITION('2026-06-28-20-13-41-792',
'Pressure house mount4',#1504,#1502);
#1504=PRODUCT_DEFINITION_FORMATION('',$,#1509);
#1505=PRODUCT_RELATED_PRODUCT_CATEGORY('Pressure house mount4',
'Pressure house mount4',(#1509));
#1506=APPLICATION_PROTOCOL_DEFINITION('international standard',
'automotive_design',2009,#1507);
#1507=APPLICATION_CONTEXT(
'Core Data for Automotive Mechanical Design Process');
#1508=PRODUCT_CONTEXT('part definition',#1507,'mechanical');
#1509=PRODUCT('2026-06-28-20-13-41-792','Pressure house mount4',$,(#1508));
#1510=PRESENTATION_STYLE_ASSIGNMENT((#1511));
#1511=SURFACE_STYLE_USAGE(.BOTH.,#1512);
#1512=SURFACE_SIDE_STYLE('',(#1513));
#1513=SURFACE_STYLE_FILL_AREA(#1514);
#1514=FILL_AREA_STYLE('Steel - Satin',(#1515));
#1515=FILL_AREA_STYLE_COLOUR('Steel - Satin',#1516);
#1516=COLOUR_RGB('Steel - Satin',0.627450980392157,0.627450980392157,0.627450980392157);
ENDSEC;
END-ISO-10303-21;
